{"glyphs":{"0":{"ha":882,"x_min":0,"x_max":0,"o":"m 442 -19 b 60 479 174 -19 60 204 b 442 979 60 754 174 979 b 822 479 710 979 822 754 b 442 -19 822 204 710 -19 m 442 110 b 665 479 614 110 665 282 b 442 850 665 676 614 850 b 217 479 268 850 217 676 b 442 110 217 282 268 110 "},"1":{"ha":474,"x_min":0,"x_max":0,"o":"m 219 713 b 18 667 178 674 104 667 l 18 789 b 250 960 188 793 238 844 l 369 960 l 369 0 l 219 0 "},"2":{"ha":790,"x_min":0,"x_max":0,"o":"m 39 0 b 332 419 39 181 149 306 b 576 686 494 518 576 558 b 414 850 576 765 544 850 b 217 621 264 850 217 753 l 64 621 b 418 979 64 825 175 979 b 732 692 592 979 732 875 b 443 325 732 506 581 410 b 232 132 349 269 260 217 l 232 129 l 721 129 l 721 0 "},"3":{"ha":836,"x_min":0,"x_max":0,"o":"m 431 -19 b 44 328 183 -19 44 108 l 197 328 b 421 110 197 196 253 110 b 624 274 572 110 624 171 b 432 438 624 406 529 438 l 342 438 l 342 561 l 426 561 b 590 708 522 561 590 604 b 426 850 590 783 544 850 b 224 671 264 850 224 764 l 71 671 b 428 979 71 849 192 979 b 746 715 599 979 746 885 b 601 510 746 613 693 549 l 601 507 b 779 271 728 467 779 383 b 431 -19 779 85 642 -19 "},"4":{"ha":819,"x_min":0,"x_max":0,"o":"m 493 0 l 493 219 l 36 219 l 36 358 l 493 960 l 643 960 l 643 349 l 778 349 l 778 219 l 643 219 l 643 0 m 175 349 l 493 349 l 493 767 "},"5":{"ha":807,"x_min":0,"x_max":0,"o":"m 407 -19 b 47 281 178 -19 53 119 l 200 281 b 399 110 210 193 260 110 b 601 328 521 110 601 185 b 408 524 601 463 528 524 b 214 438 331 524 260 497 l 60 438 l 163 960 l 708 960 l 708 831 l 278 831 l 225 565 l 225 563 b 449 646 275 614 346 646 b 757 328 631 646 757 511 b 407 -19 757 115 604 -19 "},"6":{"ha":832,"x_min":0,"x_max":0,"o":"m 435 -19 b 61 478 160 -19 61 185 b 436 979 61 793 199 979 b 751 717 617 979 735 860 l 597 717 b 436 854 585 796 539 854 b 211 522 257 854 211 688 l 211 508 l 215 507 b 463 633 265 588 353 633 b 778 314 649 633 778 503 b 435 -19 778 128 647 -19 m 431 106 b 625 306 557 106 625 185 b 440 507 625 432 551 507 b 228 303 308 507 228 424 b 431 106 228 186 300 106 "},"7":{"ha":719,"x_min":0,"x_max":0,"o":"m 157 0 b 525 828 157 318 354 676 l 525 831 l 14 831 l 14 960 l 689 960 l 689 844 b 315 0 471 663 315 307 "},"8":{"ha":843,"x_min":0,"x_max":0,"o":"m 421 -19 b 53 271 213 -19 53 76 b 232 510 53 403 140 469 l 232 513 b 100 718 164 549 100 610 b 421 979 100 883 235 979 b 743 718 608 979 743 883 b 611 513 743 610 678 549 l 611 510 b 790 271 701 469 790 403 b 421 -19 790 76 631 -19 m 421 569 b 593 713 529 569 593 615 b 421 857 593 808 529 857 b 250 713 314 857 250 808 b 421 569 250 615 314 569 m 421 106 b 633 279 554 106 633 169 b 421 450 633 386 554 450 b 208 279 288 450 208 386 b 421 106 208 169 288 106 "},"9":{"ha":835,"x_min":0,"x_max":0,"o":"m 396 -19 b 81 243 217 -19 99 100 l 236 243 b 397 106 247 164 294 106 b 622 438 575 106 622 272 l 622 451 l 618 453 b 371 326 568 372 479 326 b 56 646 185 326 56 457 b 399 979 56 832 185 979 b 772 482 674 979 772 775 b 396 -19 772 167 635 -19 m 393 453 b 606 657 524 453 606 536 b 401 854 606 774 533 854 b 208 654 276 854 208 775 b 393 453 208 528 282 453 "},"\r":{"ha":290,"x_min":0,"x_max":0,"o":""}," ":{"ha":290,"x_min":0,"x_max":0,"o":""},"A":{"ha":917,"x_min":0,"x_max":0,"o":"m 6 0 l 375 993 l 540 993 l 913 0 l 746 0 l 664 239 l 249 239 l 167 0 m 294 368 l 621 368 l 458 851 l 456 851 "},"Á":{"ha":917,"x_min":0,"x_max":0,"o":"m 392 1100 l 474 1292 l 633 1292 l 500 1100 m 6 0 l 375 993 l 540 993 l 913 0 l 746 0 l 664 239 l 249 239 l 167 0 m 294 368 l 621 368 l 458 851 l 456 851 "},"Ă":{"ha":917,"x_min":0,"x_max":0,"o":"m 458 1086 b 271 1278 353 1086 275 1150 l 364 1278 b 458 1182 368 1211 399 1182 b 551 1278 518 1182 547 1211 l 644 1278 b 458 1086 639 1154 565 1086 m 6 0 l 375 993 l 540 993 l 913 0 l 746 0 l 664 239 l 249 239 l 167 0 m 294 368 l 621 368 l 458 851 l 456 851 "},"Â":{"ha":917,"x_min":0,"x_max":0,"o":"m 251 1100 l 383 1292 l 531 1292 l 663 1100 l 532 1100 l 458 1224 l 456 1224 l 381 1100 m 6 0 l 375 993 l 540 993 l 913 0 l 746 0 l 664 239 l 249 239 l 167 0 m 294 368 l 621 368 l 458 851 l 456 851 "},"Ä":{"ha":917,"x_min":0,"x_max":0,"o":"m 264 1119 l 264 1267 l 418 1267 l 418 1119 m 497 1119 l 497 1267 l 651 1267 l 651 1119 m 6 0 l 375 993 l 540 993 l 913 0 l 746 0 l 664 239 l 249 239 l 167 0 m 294 368 l 621 368 l 458 851 l 456 851 "},"À":{"ha":917,"x_min":0,"x_max":0,"o":"m 399 1100 l 282 1292 l 435 1292 l 506 1100 m 6 0 l 375 993 l 540 993 l 913 0 l 746 0 l 664 239 l 249 239 l 167 0 m 294 368 l 621 368 l 458 851 l 456 851 "},"Ā":{"ha":917,"x_min":0,"x_max":0,"o":"m 274 1119 l 274 1226 l 640 1226 l 640 1119 m 6 0 l 375 993 l 540 993 l 913 0 l 746 0 l 664 239 l 249 239 l 167 0 m 294 368 l 621 368 l 458 851 l 456 851 "},"Ą":{"ha":917,"x_min":0,"x_max":0,"o":"m 789 -111 b 839 -151 789 -137 811 -151 b 904 -139 864 -151 885 -146 l 904 -232 b 808 -246 876 -240 842 -246 b 675 -140 721 -246 675 -204 b 779 0 675 -75 731 -24 l 746 0 l 664 239 l 249 239 l 167 0 l 6 0 l 375 993 l 540 993 l 913 0 l 875 0 b 789 -111 821 -43 789 -82 m 294 368 l 621 368 l 458 851 l 456 851 "},"Å":{"ha":917,"x_min":0,"x_max":0,"o":"m 456 1056 b 328 1183 383 1056 328 1107 b 456 1311 328 1260 383 1311 b 585 1183 531 1311 585 1260 b 456 1056 585 1107 531 1056 m 456 1117 b 521 1183 494 1117 521 1143 b 456 1250 521 1222 494 1250 b 393 1183 419 1250 393 1222 b 456 1117 393 1143 419 1117 m 6 0 l 375 993 l 540 993 l 913 0 l 746 0 l 664 239 l 249 239 l 167 0 m 294 368 l 621 368 l 458 851 l 456 851 "},"Ã":{"ha":917,"x_min":0,"x_max":0,"o":"m 250 1108 b 357 1256 250 1213 300 1256 b 532 1204 428 1256 490 1204 b 567 1253 563 1204 567 1232 l 658 1253 b 551 1106 658 1146 608 1106 b 378 1157 482 1106 418 1157 b 342 1108 346 1157 342 1126 m 6 0 l 375 993 l 540 993 l 913 0 l 746 0 l 664 239 l 249 239 l 167 0 m 294 368 l 621 368 l 458 851 l 456 851 "},"Æ":{"ha":1361,"x_min":0,"x_max":0,"o":"m 753 132 l 1317 132 l 1317 0 l 600 0 l 600 239 l 244 239 l 163 0 l 6 0 l 374 993 l 1301 993 l 1301 861 l 753 861 l 753 579 l 1235 579 l 1235 447 l 753 447 m 599 368 l 599 857 l 456 857 l 290 368 "},"B":{"ha":926,"x_min":0,"x_max":0,"o":"m 99 0 l 99 993 l 517 993 b 840 743 721 993 840 901 b 686 536 840 621 768 564 l 686 533 b 879 290 790 515 879 439 b 542 0 879 100 747 0 m 513 581 b 681 721 638 581 681 632 b 524 861 681 808 628 861 l 251 861 l 251 581 m 531 132 b 719 296 678 132 719 203 b 551 460 719 400 656 460 l 251 460 l 251 132 "},"C":{"ha":981,"x_min":0,"x_max":0,"o":"m 514 -19 b 50 496 232 -19 50 197 b 515 1013 50 796 233 1013 b 942 656 764 1013 918 854 l 782 656 b 513 881 764 753 703 881 b 210 497 293 881 210 694 b 513 113 210 299 293 113 b 782 361 704 113 772 240 l 942 361 b 514 -19 919 140 764 -19 "},"Ć":{"ha":981,"x_min":0,"x_max":0,"o":"m 450 1100 l 532 1292 l 692 1292 l 558 1100 m 514 -19 b 50 496 232 -19 50 197 b 515 1013 50 796 233 1013 b 942 656 764 1013 918 854 l 782 656 b 513 881 764 753 703 881 b 210 497 293 881 210 694 b 513 113 210 299 293 113 b 782 361 704 113 772 240 l 942 361 b 514 -19 919 140 764 -19 "},"Č":{"ha":981,"x_min":0,"x_max":0,"o":"m 442 1100 l 310 1292 l 439 1292 l 514 1168 l 517 1168 l 590 1292 l 721 1292 l 589 1100 m 514 -19 b 50 496 232 -19 50 197 b 515 1013 50 796 233 1013 b 942 656 764 1013 918 854 l 782 656 b 513 881 764 753 703 881 b 210 497 293 881 210 694 b 513 113 210 299 293 113 b 782 361 704 113 772 240 l 942 361 b 514 -19 919 140 764 -19 "},"Ç":{"ha":981,"x_min":0,"x_max":0,"o":"m 513 113 b 782 361 704 113 772 240 l 942 361 b 547 -18 921 150 778 -6 l 500 -74 l 500 -76 b 638 -167 560 -68 638 -90 b 485 -275 638 -243 563 -275 b 335 -232 425 -275 372 -256 l 367 -193 b 461 -214 397 -206 425 -214 b 529 -165 506 -214 529 -194 b 476 -124 529 -135 510 -124 b 421 -133 460 -124 435 -128 l 400 -103 l 471 -18 b 50 496 214 3 50 213 b 515 1013 50 796 233 1013 b 942 656 764 1013 918 854 l 782 656 b 513 881 764 753 703 881 b 210 497 293 881 210 694 b 513 113 210 299 293 113 "},"Ĉ":{"ha":981,"x_min":0,"x_max":0,"o":"m 310 1100 l 442 1292 l 589 1292 l 721 1100 l 590 1100 l 517 1224 l 514 1224 l 439 1100 m 514 -19 b 50 496 232 -19 50 197 b 515 1013 50 796 233 1013 b 942 656 764 1013 918 854 l 782 656 b 513 881 764 753 703 881 b 210 497 293 881 210 694 b 513 113 210 299 293 113 b 782 361 704 113 772 240 l 942 361 b 514 -19 919 140 764 -19 "},"Ċ":{"ha":981,"x_min":0,"x_max":0,"o":"m 439 1119 l 439 1267 l 593 1267 l 593 1119 m 514 -19 b 50 496 232 -19 50 197 b 515 1013 50 796 233 1013 b 942 656 764 1013 918 854 l 782 656 b 513 881 764 753 703 881 b 210 497 293 881 210 694 b 513 113 210 299 293 113 b 782 361 704 113 772 240 l 942 361 b 514 -19 919 140 764 -19 "},"D":{"ha":971,"x_min":0,"x_max":0,"o":"m 99 0 l 99 993 l 476 993 b 918 496 751 993 918 815 b 479 0 918 176 754 0 m 469 132 b 760 496 700 132 760 304 b 469 861 760 688 700 861 l 251 861 l 251 132 "},"Ð":{"ha":1006,"x_min":0,"x_max":0,"o":"m 510 993 b 951 496 785 993 951 815 b 513 0 951 176 788 0 l 132 0 l 132 463 l 17 463 l 17 565 l 132 565 l 132 993 m 503 132 b 793 496 733 132 793 304 b 503 861 793 688 733 861 l 285 861 l 285 565 l 553 565 l 553 463 l 285 463 l 285 132 "},"Ď":{"ha":971,"x_min":0,"x_max":0,"o":"m 324 1100 l 192 1292 l 321 1292 l 396 1168 l 399 1168 l 472 1292 l 603 1292 l 471 1100 m 99 0 l 99 993 l 476 993 b 918 496 751 993 918 815 b 479 0 918 176 754 0 m 469 132 b 760 496 700 132 760 304 b 469 861 760 688 700 861 l 251 861 l 251 132 "},"Đ":{"ha":1006,"x_min":0,"x_max":0,"o":"m 510 993 b 951 496 785 993 951 815 b 513 0 951 176 788 0 l 132 0 l 132 463 l 17 463 l 17 565 l 132 565 l 132 993 m 503 132 b 793 496 733 132 793 304 b 503 861 793 688 733 861 l 285 861 l 285 565 l 553 565 l 553 463 l 285 463 l 285 132 "},"E":{"ha":860,"x_min":0,"x_max":0,"o":"m 99 0 l 99 993 l 801 993 l 801 861 l 251 861 l 251 579 l 733 579 l 733 447 l 251 447 l 251 132 l 815 132 l 815 0 "},"É":{"ha":860,"x_min":0,"x_max":0,"o":"m 386 1100 l 468 1292 l 628 1292 l 494 1100 m 99 0 l 99 993 l 801 993 l 801 861 l 251 861 l 251 579 l 733 579 l 733 447 l 251 447 l 251 132 l 815 132 l 815 0 "},"Ě":{"ha":860,"x_min":0,"x_max":0,"o":"m 379 1100 l 247 1292 l 376 1292 l 451 1168 l 454 1168 l 528 1292 l 658 1292 l 526 1100 m 99 0 l 99 993 l 801 993 l 801 861 l 251 861 l 251 579 l 733 579 l 733 447 l 251 447 l 251 132 l 815 132 l 815 0 "},"Ê":{"ha":860,"x_min":0,"x_max":0,"o":"m 247 1100 l 379 1292 l 526 1292 l 658 1100 l 528 1100 l 454 1224 l 451 1224 l 376 1100 m 99 0 l 99 993 l 801 993 l 801 861 l 251 861 l 251 579 l 733 579 l 733 447 l 251 447 l 251 132 l 815 132 l 815 0 "},"Ë":{"ha":860,"x_min":0,"x_max":0,"o":"m 258 1119 l 258 1267 l 413 1267 l 413 1119 m 492 1119 l 492 1267 l 646 1267 l 646 1119 m 99 0 l 99 993 l 801 993 l 801 861 l 251 861 l 251 579 l 733 579 l 733 447 l 251 447 l 251 132 l 815 132 l 815 0 "},"Ė":{"ha":860,"x_min":0,"x_max":0,"o":"m 375 1119 l 375 1267 l 529 1267 l 529 1119 m 99 0 l 99 993 l 801 993 l 801 861 l 251 861 l 251 579 l 733 579 l 733 447 l 251 447 l 251 132 l 815 132 l 815 0 "},"È":{"ha":860,"x_min":0,"x_max":0,"o":"m 394 1100 l 278 1292 l 431 1292 l 501 1100 m 99 0 l 99 993 l 801 993 l 801 861 l 251 861 l 251 579 l 733 579 l 733 447 l 251 447 l 251 132 l 815 132 l 815 0 "},"Ē":{"ha":860,"x_min":0,"x_max":0,"o":"m 268 1119 l 268 1226 l 635 1226 l 635 1119 m 99 0 l 99 993 l 801 993 l 801 861 l 251 861 l 251 579 l 733 579 l 733 447 l 251 447 l 251 132 l 815 132 l 815 0 "},"Ę":{"ha":860,"x_min":0,"x_max":0,"o":"m 761 -151 b 826 -139 786 -151 807 -146 l 826 -232 b 731 -246 799 -240 764 -246 b 597 -140 643 -246 597 -204 b 701 0 597 -75 653 -24 l 99 0 l 99 993 l 801 993 l 801 861 l 251 861 l 251 579 l 733 579 l 733 447 l 251 447 l 251 132 l 815 132 l 815 0 l 797 0 b 711 -111 743 -43 711 -82 b 761 -151 711 -137 733 -151 "},"F":{"ha":811,"x_min":0,"x_max":0,"o":"m 99 0 l 99 993 l 788 993 l 788 861 l 251 861 l 251 563 l 685 563 l 685 431 l 251 431 l 251 0 "},"G":{"ha":1024,"x_min":0,"x_max":0,"o":"m 499 -19 b 51 497 213 -19 51 197 b 517 1013 51 796 233 1013 b 942 686 774 1013 910 875 l 782 686 b 515 881 756 811 663 881 b 211 497 296 881 211 683 b 507 113 211 310 275 113 b 803 392 671 113 801 226 l 510 392 l 510 519 l 958 519 l 958 0 l 853 0 l 815 138 l 813 138 b 499 -19 743 36 650 -19 "},"Ğ":{"ha":1024,"x_min":0,"x_max":0,"o":"m 513 1086 b 325 1278 407 1086 329 1150 l 418 1278 b 513 1182 422 1211 453 1182 b 606 1278 572 1182 601 1211 l 699 1278 b 513 1086 693 1154 619 1086 m 499 -19 b 51 497 213 -19 51 197 b 517 1013 51 796 233 1013 b 942 686 774 1013 910 875 l 782 686 b 515 881 756 811 663 881 b 211 497 296 881 211 683 b 507 113 211 310 275 113 b 803 392 671 113 801 226 l 510 392 l 510 519 l 958 519 l 958 0 l 853 0 l 815 138 l 813 138 b 499 -19 743 36 650 -19 "},"Ĝ":{"ha":1024,"x_min":0,"x_max":0,"o":"m 306 1100 l 438 1292 l 585 1292 l 717 1100 l 586 1100 l 513 1224 l 510 1224 l 435 1100 m 499 -19 b 51 497 213 -19 51 197 b 517 1013 51 796 233 1013 b 942 686 774 1013 910 875 l 782 686 b 515 881 756 811 663 881 b 211 497 296 881 211 683 b 507 113 211 310 275 113 b 803 392 671 113 801 226 l 510 392 l 510 519 l 958 519 l 958 0 l 853 0 l 815 138 l 813 138 b 499 -19 743 36 650 -19 "},"Ģ":{"ha":1024,"x_min":0,"x_max":0,"o":"m 510 519 l 958 519 l 958 0 l 853 0 l 815 138 l 813 138 b 499 -19 743 36 650 -19 b 51 497 213 -19 51 197 b 517 1013 51 796 233 1013 b 942 686 774 1013 910 875 l 782 686 b 515 881 756 811 663 881 b 211 497 296 881 211 683 b 507 113 211 310 275 113 b 803 392 671 113 801 226 l 510 392 m 449 -183 l 449 -68 l 600 -68 l 600 -183 b 449 -331 600 -253 560 -307 l 449 -272 b 521 -183 499 -260 521 -239 "},"Ġ":{"ha":1024,"x_min":0,"x_max":0,"o":"m 435 1119 l 435 1267 l 589 1267 l 589 1119 m 499 -19 b 51 497 213 -19 51 197 b 517 1013 51 796 233 1013 b 942 686 774 1013 910 875 l 782 686 b 515 881 756 811 663 881 b 211 497 296 881 211 683 b 507 113 211 310 275 113 b 803 392 671 113 801 226 l 510 392 l 510 519 l 958 519 l 958 0 l 853 0 l 815 138 l 813 138 b 499 -19 743 36 650 -19 "},"H":{"ha":990,"x_min":0,"x_max":0,"o":"m 99 0 l 99 993 l 251 993 l 251 578 l 739 578 l 739 993 l 893 993 l 893 0 l 739 0 l 739 446 l 251 446 l 251 0 "},"Ħ":{"ha":1028,"x_min":0,"x_max":0,"o":"m 1000 844 l 1000 740 l 919 740 l 919 0 l 765 0 l 765 446 l 279 446 l 279 0 l 125 0 l 125 740 l 22 740 l 22 844 l 125 844 l 125 993 l 279 993 l 279 844 l 765 844 l 765 993 l 919 993 l 919 844 m 765 578 l 765 740 l 279 740 l 279 578 "},"Ĥ":{"ha":990,"x_min":0,"x_max":0,"o":"m 290 1100 l 422 1292 l 569 1292 l 701 1100 l 571 1100 l 497 1224 l 494 1224 l 419 1100 m 99 0 l 99 993 l 251 993 l 251 578 l 739 578 l 739 993 l 893 993 l 893 0 l 739 0 l 739 446 l 251 446 l 251 0 "},"I":{"ha":350,"x_min":0,"x_max":0,"o":"m 99 0 l 99 993 l 251 993 l 251 0 "},"Í":{"ha":350,"x_min":0,"x_max":0,"o":"m 110 1100 l 192 1292 l 351 1292 l 218 1100 m 99 0 l 99 993 l 251 993 l 251 0 "},"Î":{"ha":350,"x_min":0,"x_max":0,"o":"m -31 1100 l 101 1292 l 249 1292 l 381 1100 l 250 1100 l 176 1224 l 174 1224 l 99 1100 m 99 0 l 99 993 l 251 993 l 251 0 "},"Ï":{"ha":350,"x_min":0,"x_max":0,"o":"m -19 1119 l -19 1267 l 135 1267 l 135 1119 m 214 1119 l 214 1267 l 368 1267 l 368 1119 m 99 0 l 99 993 l 251 993 l 251 0 "},"İ":{"ha":350,"x_min":0,"x_max":0,"o":"m 96 1119 l 96 1267 l 254 1267 l 254 1119 m 99 0 l 99 993 l 251 993 l 251 0 "},"Ì":{"ha":350,"x_min":0,"x_max":0,"o":"m 117 1100 l 0 1292 l 153 1292 l 224 1100 m 99 0 l 99 993 l 251 993 l 251 0 "},"Ī":{"ha":350,"x_min":0,"x_max":0,"o":"m -8 1119 l -8 1226 l 358 1226 l 358 1119 m 99 0 l 99 993 l 251 993 l 251 0 "},"Į":{"ha":350,"x_min":0,"x_max":0,"o":"m 197 -151 b 263 -139 222 -151 243 -146 l 263 -232 b 167 -246 235 -240 200 -246 b 33 -140 79 -246 33 -204 b 138 0 33 -75 89 -24 l 99 0 l 99 993 l 251 993 l 251 0 l 233 0 b 147 -111 179 -43 147 -82 b 197 -151 147 -137 169 -151 "},"Ĩ":{"ha":350,"x_min":0,"x_max":0,"o":"m -32 1108 b 75 1256 -32 1213 18 1256 b 250 1204 146 1256 208 1204 b 285 1253 281 1204 285 1232 l 376 1253 b 269 1106 376 1146 326 1106 b 96 1157 200 1106 136 1157 b 60 1108 64 1157 60 1126 m 99 0 l 99 993 l 251 993 l 251 0 "},"J":{"ha":719,"x_min":0,"x_max":0,"o":"m 325 -19 b 25 310 90 -19 25 142 l 25 350 l 172 350 l 172 310 b 322 113 172 196 192 113 b 474 310 451 113 474 196 l 474 993 l 626 993 l 626 310 b 325 -19 626 142 560 -19 "},"Ĵ":{"ha":719,"x_min":0,"x_max":0,"o":"m 344 1100 l 476 1292 l 624 1292 l 756 1100 l 625 1100 l 551 1224 l 549 1224 l 474 1100 m 325 -19 b 25 310 90 -19 25 142 l 25 350 l 172 350 l 172 310 b 322 113 172 196 192 113 b 474 310 451 113 474 196 l 474 993 l 626 993 l 626 310 b 325 -19 626 142 560 -19 "},"K":{"ha":904,"x_min":0,"x_max":0,"o":"m 746 0 l 410 478 l 251 310 l 251 0 l 99 0 l 99 993 l 251 993 l 251 490 l 722 993 l 893 993 l 504 579 l 925 0 "},"Ķ":{"ha":904,"x_min":0,"x_max":0,"o":"m 504 579 l 925 0 l 746 0 l 410 478 l 251 310 l 251 0 l 99 0 l 99 993 l 251 993 l 251 490 l 722 993 l 893 993 m 410 -183 l 410 -68 l 561 -68 l 561 -183 b 410 -331 561 -253 521 -307 l 410 -272 b 482 -183 460 -260 482 -239 "},"L":{"ha":775,"x_min":0,"x_max":0,"o":"m 99 0 l 99 993 l 251 993 l 251 132 l 754 132 l 754 0 "},"Ĺ":{"ha":775,"x_min":0,"x_max":0,"o":"m 111 1100 l 193 1292 l 353 1292 l 219 1100 m 99 0 l 99 993 l 251 993 l 251 132 l 754 132 l 754 0 "},"Ľ":{"ha":775,"x_min":0,"x_max":0,"o":"m 99 0 l 99 993 l 251 993 l 251 132 l 754 132 l 754 0 m 408 722 l 440 993 l 596 993 l 510 722 "},"Ļ":{"ha":775,"x_min":0,"x_max":0,"o":"m 251 132 l 754 132 l 754 0 l 99 0 l 99 993 l 251 993 m 351 -183 l 351 -68 l 503 -68 l 503 -183 b 351 -331 503 -253 463 -307 l 351 -272 b 424 -183 401 -260 424 -239 "},"Ł":{"ha":828,"x_min":0,"x_max":0,"o":"m 304 132 l 807 132 l 807 0 l 150 0 l 150 340 l 39 258 l 39 379 l 150 461 l 150 993 l 304 993 l 304 574 l 526 736 l 526 617 l 304 453 "},"M":{"ha":1176,"x_min":0,"x_max":0,"o":"m 99 0 l 99 993 l 300 993 l 586 213 l 589 213 l 876 993 l 1078 993 l 1078 0 l 928 0 l 928 771 l 925 771 l 651 0 l 525 0 l 251 771 l 249 771 l 249 0 "},"N":{"ha":990,"x_min":0,"x_max":0,"o":"m 99 0 l 99 993 l 274 993 l 735 229 l 738 229 l 738 993 l 892 993 l 892 0 l 717 0 l 254 764 l 251 764 l 251 0 "},"Ń":{"ha":990,"x_min":0,"x_max":0,"o":"m 431 1100 l 513 1292 l 672 1292 l 539 1100 m 99 0 l 99 993 l 274 993 l 735 229 l 738 229 l 738 993 l 892 993 l 892 0 l 717 0 l 254 764 l 251 764 l 251 0 "},"Ň":{"ha":990,"x_min":0,"x_max":0,"o":"m 422 1100 l 290 1292 l 419 1292 l 494 1168 l 497 1168 l 571 1292 l 701 1292 l 569 1100 m 99 0 l 99 993 l 274 993 l 735 229 l 738 229 l 738 993 l 892 993 l 892 0 l 717 0 l 254 764 l 251 764 l 251 0 "},"Ņ":{"ha":990,"x_min":0,"x_max":0,"o":"m 738 993 l 892 993 l 892 0 l 717 0 l 254 764 l 251 764 l 251 0 l 99 0 l 99 993 l 274 993 l 735 229 l 738 229 m 421 -183 l 421 -68 l 572 -68 l 572 -183 b 421 -331 572 -253 532 -307 l 421 -272 b 493 -183 471 -260 493 -239 "},"Ñ":{"ha":990,"x_min":0,"x_max":0,"o":"m 289 1108 b 396 1256 289 1213 339 1256 b 571 1204 467 1256 529 1204 b 606 1253 601 1204 606 1232 l 697 1253 b 590 1106 697 1146 647 1106 b 417 1157 521 1106 457 1157 b 381 1108 385 1157 381 1126 m 99 0 l 99 993 l 274 993 l 735 229 l 738 229 l 738 993 l 892 993 l 892 0 l 717 0 l 254 764 l 251 764 l 251 0 "},"Ŋ":{"ha":990,"x_min":0,"x_max":0,"o":"m 639 -247 b 547 -237 603 -247 572 -244 l 547 -125 b 729 -21 657 -135 724 -110 l 254 764 l 251 764 l 251 0 l 99 0 l 99 993 l 274 993 l 735 226 l 738 226 l 738 993 l 892 993 l 892 15 b 639 -247 892 -167 793 -247 "},"O":{"ha":1075,"x_min":0,"x_max":0,"o":"m 538 -19 b 50 497 240 -19 50 199 b 538 1013 50 796 240 1013 b 1025 497 835 1013 1025 796 b 538 -19 1025 199 835 -19 m 538 113 b 865 497 772 113 865 293 b 538 881 865 701 772 881 b 210 497 303 881 210 701 b 538 113 210 293 303 113 "},"Ó":{"ha":1075,"x_min":0,"x_max":0,"o":"m 472 1100 l 554 1292 l 714 1292 l 581 1100 m 538 -19 b 50 497 240 -19 50 199 b 538 1013 50 796 240 1013 b 1025 497 835 1013 1025 796 b 538 -19 1025 199 835 -19 m 538 113 b 865 497 772 113 865 293 b 538 881 865 701 772 881 b 210 497 303 881 210 701 b 538 113 210 293 303 113 "},"Ô":{"ha":1075,"x_min":0,"x_max":0,"o":"m 332 1100 l 464 1292 l 611 1292 l 743 1100 l 613 1100 l 539 1224 l 536 1224 l 461 1100 m 538 -19 b 50 497 240 -19 50 199 b 538 1013 50 796 240 1013 b 1025 497 835 1013 1025 796 b 538 -19 1025 199 835 -19 m 538 113 b 865 497 772 113 865 293 b 538 881 865 701 772 881 b 210 497 303 881 210 701 b 538 113 210 293 303 113 "},"Ö":{"ha":1075,"x_min":0,"x_max":0,"o":"m 343 1119 l 343 1267 l 497 1267 l 497 1119 m 576 1119 l 576 1267 l 731 1267 l 731 1119 m 538 -19 b 50 497 240 -19 50 199 b 538 1013 50 796 240 1013 b 1025 497 835 1013 1025 796 b 538 -19 1025 199 835 -19 m 538 113 b 865 497 772 113 865 293 b 538 881 865 701 772 881 b 210 497 303 881 210 701 b 538 113 210 293 303 113 "},"Ò":{"ha":1075,"x_min":0,"x_max":0,"o":"m 479 1100 l 363 1292 l 515 1292 l 586 1100 m 538 -19 b 50 497 240 -19 50 199 b 538 1013 50 796 240 1013 b 1025 497 835 1013 1025 796 b 538 -19 1025 199 835 -19 m 538 113 b 865 497 772 113 865 293 b 538 881 865 701 772 881 b 210 497 303 881 210 701 b 538 113 210 293 303 113 "},"Ő":{"ha":1075,"x_min":0,"x_max":0,"o":"m 372 1100 l 457 1292 l 608 1292 l 478 1100 m 581 1100 l 671 1292 l 822 1292 l 686 1100 m 538 -19 b 50 497 240 -19 50 199 b 538 1013 50 796 240 1013 b 1025 497 835 1013 1025 796 b 538 -19 1025 199 835 -19 m 538 113 b 865 497 772 113 865 293 b 538 881 865 701 772 881 b 210 497 303 881 210 701 b 538 113 210 293 303 113 "},"Ō":{"ha":1075,"x_min":0,"x_max":0,"o":"m 354 1119 l 354 1226 l 721 1226 l 721 1119 m 538 -19 b 50 497 240 -19 50 199 b 538 1013 50 796 240 1013 b 1025 497 835 1013 1025 796 b 538 -19 1025 199 835 -19 m 538 113 b 865 497 772 113 865 293 b 538 881 865 701 772 881 b 210 497 303 881 210 701 b 538 113 210 293 303 113 "},"Ø":{"ha":1082,"x_min":0,"x_max":0,"o":"m 1032 939 l 925 832 b 1029 497 992 744 1029 629 b 542 -19 1029 199 838 -19 b 204 110 403 -19 288 28 l 100 6 l 50 57 l 156 164 b 54 497 90 251 54 367 b 542 1013 54 796 244 1013 b 876 886 679 1013 793 967 l 979 989 m 214 497 b 263 271 214 414 229 335 l 776 786 b 542 881 724 844 647 881 b 214 497 307 881 214 701 m 869 497 b 818 725 869 581 854 661 l 304 210 b 542 113 357 150 435 113 b 869 497 775 113 869 293 "},"Õ":{"ha":1075,"x_min":0,"x_max":0,"o":"m 331 1108 b 438 1256 331 1213 381 1256 b 613 1204 508 1256 571 1204 b 647 1253 643 1204 647 1232 l 739 1253 b 632 1106 739 1146 689 1106 b 458 1157 563 1106 499 1157 b 422 1108 426 1157 422 1126 m 538 -19 b 50 497 240 -19 50 199 b 538 1013 50 796 240 1013 b 1025 497 835 1013 1025 796 b 538 -19 1025 199 835 -19 m 538 113 b 865 497 772 113 865 293 b 538 881 865 701 772 881 b 210 497 303 881 210 701 b 538 113 210 293 303 113 "},"Œ":{"ha":1546,"x_min":0,"x_max":0,"o":"m 938 132 l 1501 132 l 1501 0 l 785 0 l 785 183 b 465 -19 721 50 611 -19 b 51 497 221 -19 51 199 b 465 1013 51 796 221 1013 b 785 811 611 1013 721 943 l 785 993 l 1486 993 l 1486 861 l 938 861 l 938 579 l 1419 579 l 1419 447 l 938 447 m 496 113 b 774 497 649 113 774 239 b 496 881 774 756 649 881 b 211 497 283 881 211 701 b 496 113 211 293 283 113 "},"P":{"ha":867,"x_min":0,"x_max":0,"o":"m 99 0 l 99 993 l 513 993 b 838 697 700 993 838 906 b 513 403 838 489 700 403 l 251 403 l 251 0 m 506 535 b 679 697 621 535 679 586 b 506 861 679 810 621 861 l 251 861 l 251 535 "},"Þ":{"ha":867,"x_min":0,"x_max":0,"o":"m 99 0 l 99 993 l 251 993 l 251 833 l 513 833 b 838 538 700 833 838 746 b 513 242 838 329 700 242 l 251 242 l 251 0 m 511 375 b 685 538 626 375 685 425 b 511 700 685 650 626 700 l 251 700 l 251 375 "},"Q":{"ha":1075,"x_min":0,"x_max":0,"o":"m 1031 28 l 942 -62 l 818 63 b 538 -19 742 10 647 -19 b 50 497 240 -19 50 199 b 538 1013 50 796 240 1013 b 1025 497 835 1013 1025 796 b 911 147 1025 358 985 238 m 538 113 b 718 161 611 113 671 131 l 589 292 l 678 382 l 806 253 b 865 497 847 321 865 407 b 538 881 865 701 772 881 b 210 497 303 881 210 701 b 538 113 210 293 303 113 "},"R":{"ha":911,"x_min":0,"x_max":0,"o":"m 99 0 l 99 993 l 513 993 b 850 707 732 993 850 890 b 664 464 850 581 774 489 l 664 461 b 864 10 894 418 810 26 l 864 0 l 700 0 b 507 389 656 42 750 389 l 251 389 l 251 0 m 479 521 b 696 696 619 521 696 582 b 482 861 696 803 635 861 l 251 861 l 251 521 "},"Ŕ":{"ha":911,"x_min":0,"x_max":0,"o":"m 374 1100 l 456 1292 l 615 1292 l 482 1100 m 99 0 l 99 993 l 513 993 b 850 707 732 993 850 890 b 664 464 850 581 774 489 l 664 461 b 864 10 894 418 810 26 l 864 0 l 700 0 b 507 389 656 42 750 389 l 251 389 l 251 0 m 479 521 b 696 696 619 521 696 582 b 482 861 696 803 635 861 l 251 861 l 251 521 "},"Ř":{"ha":911,"x_min":0,"x_max":0,"o":"m 365 1100 l 233 1292 l 363 1292 l 438 1168 l 440 1168 l 514 1292 l 644 1292 l 513 1100 m 99 0 l 99 993 l 513 993 b 850 707 732 993 850 890 b 664 464 850 581 774 489 l 664 461 b 864 10 894 418 810 26 l 864 0 l 700 0 b 507 389 656 42 750 389 l 251 389 l 251 0 m 479 521 b 696 696 619 521 696 582 b 482 861 696 803 635 861 l 251 861 l 251 521 "},"Ŗ":{"ha":911,"x_min":0,"x_max":0,"o":"m 664 461 b 864 10 894 418 810 26 l 864 0 l 700 0 b 507 389 656 42 750 389 l 251 389 l 251 0 l 99 0 l 99 993 l 513 993 b 850 707 732 993 850 890 b 664 464 850 581 774 489 m 479 521 b 696 696 619 521 696 582 b 482 861 696 803 635 861 l 251 861 l 251 521 m 394 -183 l 394 -68 l 546 -68 l 546 -183 b 394 -331 546 -253 506 -307 l 394 -272 b 467 -183 444 -260 467 -239 "},"S":{"ha":878,"x_min":0,"x_max":0,"o":"m 472 -19 b 33 335 221 -19 44 111 l 192 335 b 468 111 203 201 282 111 b 676 271 628 111 676 181 b 399 461 676 397 579 415 b 72 742 243 503 72 553 b 419 1013 72 914 206 1013 b 808 697 646 1013 793 897 l 650 697 b 421 882 633 817 565 882 b 232 750 296 882 232 836 b 464 583 232 639 336 615 b 836 279 656 535 836 489 b 472 -19 836 108 721 -19 "},"Ś":{"ha":878,"x_min":0,"x_max":0,"o":"m 364 1100 l 446 1292 l 606 1292 l 472 1100 m 472 -19 b 33 335 221 -19 44 111 l 192 335 b 468 111 203 201 282 111 b 676 271 628 111 676 181 b 399 461 676 397 579 415 b 72 742 243 503 72 553 b 419 1013 72 914 206 1013 b 808 697 646 1013 793 897 l 650 697 b 421 882 633 817 565 882 b 232 750 296 882 232 836 b 464 583 232 639 336 615 b 836 279 656 535 836 489 b 472 -19 836 108 721 -19 "},"Š":{"ha":878,"x_min":0,"x_max":0,"o":"m 356 1100 l 224 1292 l 353 1292 l 428 1168 l 431 1168 l 504 1292 l 635 1292 l 503 1100 m 472 -19 b 33 335 221 -19 44 111 l 192 335 b 468 111 203 201 282 111 b 676 271 628 111 676 181 b 399 461 676 397 579 415 b 72 742 243 503 72 553 b 419 1013 72 914 206 1013 b 808 697 646 1013 793 897 l 650 697 b 421 882 633 817 565 882 b 232 750 296 882 232 836 b 464 583 232 639 336 615 b 836 279 656 535 836 489 b 472 -19 836 108 721 -19 "},"Ş":{"ha":878,"x_min":0,"x_max":0,"o":"m 469 -74 l 469 -76 b 607 -167 529 -68 607 -90 b 454 -275 607 -243 532 -275 b 304 -232 394 -275 342 -256 l 336 -193 b 431 -214 367 -206 394 -214 b 499 -165 475 -214 499 -194 b 446 -124 499 -135 479 -124 b 390 -133 429 -124 404 -128 l 369 -103 l 440 -18 b 33 335 206 -8 44 121 l 192 335 b 468 111 203 201 282 111 b 676 271 628 111 676 181 b 399 461 676 397 579 415 b 72 742 243 503 72 553 b 419 1013 72 914 206 1013 b 808 697 646 1013 793 897 l 650 697 b 421 882 633 817 565 882 b 232 750 296 882 232 836 b 464 583 232 639 336 615 b 836 279 656 535 836 489 b 517 -18 836 119 735 -4 "},"Ŝ":{"ha":878,"x_min":0,"x_max":0,"o":"m 224 1100 l 356 1292 l 503 1292 l 635 1100 l 504 1100 l 431 1224 l 428 1224 l 353 1100 m 472 -19 b 33 335 221 -19 44 111 l 192 335 b 468 111 203 201 282 111 b 676 271 628 111 676 181 b 399 461 676 397 579 415 b 72 742 243 503 72 553 b 419 1013 72 914 206 1013 b 808 697 646 1013 793 897 l 650 697 b 421 882 633 817 565 882 b 232 750 296 882 232 836 b 464 583 232 639 336 615 b 836 279 656 535 836 489 b 472 -19 836 108 721 -19 "},"Ș":{"ha":878,"x_min":0,"x_max":0,"o":"m 464 583 b 836 279 656 535 836 489 b 472 -19 836 108 721 -19 b 33 335 221 -19 44 111 l 192 335 b 468 111 203 201 282 111 b 676 271 628 111 676 181 b 399 461 676 397 579 415 b 72 742 243 503 72 553 b 419 1013 72 914 206 1013 b 808 697 646 1013 793 897 l 650 697 b 421 882 633 817 565 882 b 232 750 296 882 232 836 b 464 583 232 639 336 615 m 408 -183 l 408 -68 l 560 -68 l 560 -183 b 408 -331 560 -253 519 -307 l 408 -272 b 481 -183 458 -260 481 -239 "},"T":{"ha":838,"x_min":0,"x_max":0,"o":"m 342 0 l 342 861 l 21 861 l 21 993 l 817 993 l 817 861 l 496 861 l 496 0 "},"Ŧ":{"ha":838,"x_min":0,"x_max":0,"o":"m 817 861 l 496 861 l 496 565 l 726 565 l 726 463 l 496 463 l 496 0 l 342 0 l 342 463 l 147 463 l 147 565 l 342 565 l 342 861 l 21 861 l 21 993 l 817 993 "},"Ť":{"ha":838,"x_min":0,"x_max":0,"o":"m 344 1100 l 213 1292 l 342 1292 l 417 1168 l 419 1168 l 493 1292 l 624 1292 l 492 1100 m 342 0 l 342 861 l 21 861 l 21 993 l 817 993 l 817 861 l 496 861 l 496 0 "},"Ţ":{"ha":838,"x_min":0,"x_max":0,"o":"m 465 0 l 403 -74 l 403 -76 b 540 -167 463 -68 540 -90 b 388 -275 540 -243 465 -275 b 238 -232 328 -275 275 -256 l 269 -193 b 364 -214 300 -206 328 -214 b 432 -165 408 -214 432 -194 b 379 -124 432 -135 413 -124 b 324 -133 363 -124 338 -128 l 303 -103 l 389 0 l 342 0 l 342 861 l 21 861 l 21 993 l 817 993 l 817 861 l 496 861 l 496 0 "},"Ț":{"ha":838,"x_min":0,"x_max":0,"o":"m 21 993 l 817 993 l 817 861 l 496 861 l 496 0 l 342 0 l 342 861 l 21 861 m 343 -183 l 343 -68 l 494 -68 l 494 -183 b 343 -331 494 -253 454 -307 l 343 -272 b 415 -183 393 -260 415 -239 "},"U":{"ha":960,"x_min":0,"x_max":0,"o":"m 479 -19 b 92 338 207 -19 92 124 l 92 993 l 244 993 l 244 338 b 479 113 244 183 322 113 b 714 338 638 113 714 183 l 714 993 l 868 993 l 868 338 b 479 -19 868 124 753 -19 "},"Ú":{"ha":960,"x_min":0,"x_max":0,"o":"m 414 1100 l 496 1292 l 656 1292 l 522 1100 m 479 -19 b 92 338 207 -19 92 124 l 92 993 l 244 993 l 244 338 b 479 113 244 183 322 113 b 714 338 638 113 714 183 l 714 993 l 868 993 l 868 338 b 479 -19 868 124 753 -19 "},"Ŭ":{"ha":960,"x_min":0,"x_max":0,"o":"m 481 1086 b 293 1278 375 1086 297 1150 l 386 1278 b 481 1182 390 1211 421 1182 b 574 1278 540 1182 569 1211 l 667 1278 b 481 1086 661 1154 588 1086 m 479 -19 b 92 338 207 -19 92 124 l 92 993 l 244 993 l 244 338 b 479 113 244 183 322 113 b 714 338 638 113 714 183 l 714 993 l 868 993 l 868 338 b 479 -19 868 124 753 -19 "},"Û":{"ha":960,"x_min":0,"x_max":0,"o":"m 274 1100 l 406 1292 l 553 1292 l 685 1100 l 554 1100 l 481 1224 l 478 1224 l 403 1100 m 479 -19 b 92 338 207 -19 92 124 l 92 993 l 244 993 l 244 338 b 479 113 244 183 322 113 b 714 338 638 113 714 183 l 714 993 l 868 993 l 868 338 b 479 -19 868 124 753 -19 "},"Ü":{"ha":960,"x_min":0,"x_max":0,"o":"m 286 1119 l 286 1267 l 440 1267 l 440 1119 m 519 1119 l 519 1267 l 674 1267 l 674 1119 m 479 -19 b 92 338 207 -19 92 124 l 92 993 l 244 993 l 244 338 b 479 113 244 183 322 113 b 714 338 638 113 714 183 l 714 993 l 868 993 l 868 338 b 479 -19 868 124 753 -19 "},"Ù":{"ha":960,"x_min":0,"x_max":0,"o":"m 421 1100 l 304 1292 l 457 1292 l 528 1100 m 479 -19 b 92 338 207 -19 92 124 l 92 993 l 244 993 l 244 338 b 479 113 244 183 322 113 b 714 338 638 113 714 183 l 714 993 l 868 993 l 868 338 b 479 -19 868 124 753 -19 "},"Ű":{"ha":960,"x_min":0,"x_max":0,"o":"m 314 1100 l 399 1292 l 550 1292 l 419 1100 m 522 1100 l 613 1292 l 764 1292 l 628 1100 m 479 -19 b 92 338 207 -19 92 124 l 92 993 l 244 993 l 244 338 b 479 113 244 183 322 113 b 714 338 638 113 714 183 l 714 993 l 868 993 l 868 338 b 479 -19 868 124 753 -19 "},"Ū":{"ha":960,"x_min":0,"x_max":0,"o":"m 296 1119 l 296 1226 l 663 1226 l 663 1119 m 479 -19 b 92 338 207 -19 92 124 l 92 993 l 244 993 l 244 338 b 479 113 244 183 322 113 b 714 338 638 113 714 183 l 714 993 l 868 993 l 868 338 b 479 -19 868 124 753 -19 "},"Ų":{"ha":960,"x_min":0,"x_max":0,"o":"m 714 993 l 868 993 l 868 338 b 613 -6 868 163 790 35 b 533 -111 563 -47 533 -83 b 583 -151 533 -137 556 -151 b 649 -139 608 -151 629 -146 l 649 -232 b 553 -246 621 -240 586 -246 b 419 -140 465 -246 419 -204 b 492 -19 419 -89 453 -47 l 479 -19 b 92 338 207 -19 92 124 l 92 993 l 244 993 l 244 338 b 479 113 244 183 322 113 b 714 338 638 113 714 183 "},"Ů":{"ha":960,"x_min":0,"x_max":0,"o":"m 478 1056 b 350 1183 406 1056 350 1107 b 478 1311 350 1260 406 1311 b 607 1183 553 1311 607 1260 b 478 1056 607 1107 553 1056 m 478 1117 b 543 1183 517 1117 543 1143 b 478 1250 543 1222 517 1250 b 415 1183 442 1250 415 1222 b 478 1117 415 1143 442 1117 m 479 -19 b 92 338 207 -19 92 124 l 92 993 l 244 993 l 244 338 b 479 113 244 183 322 113 b 714 338 638 113 714 183 l 714 993 l 868 993 l 868 338 b 479 -19 868 124 753 -19 "},"Ũ":{"ha":960,"x_min":0,"x_max":0,"o":"m 272 1108 b 379 1256 272 1213 322 1256 b 554 1204 450 1256 513 1204 b 589 1253 585 1204 589 1232 l 681 1253 b 574 1106 681 1146 631 1106 b 400 1157 504 1106 440 1157 b 364 1108 368 1157 364 1126 m 479 -19 b 92 338 207 -19 92 124 l 92 993 l 244 993 l 244 338 b 479 113 244 183 322 113 b 714 338 638 113 714 183 l 714 993 l 868 993 l 868 338 b 479 -19 868 124 753 -19 "},"V":{"ha":881,"x_min":0,"x_max":0,"o":"m 360 0 l 10 993 l 178 993 l 442 161 l 443 161 l 706 993 l 867 993 l 525 0 "},"W":{"ha":1288,"x_min":0,"x_max":0,"o":"m 267 0 l 19 993 l 179 993 l 354 211 l 357 211 l 563 993 l 724 993 l 931 211 l 933 211 l 1108 993 l 1268 993 l 1019 0 l 856 0 l 644 799 l 642 799 l 432 0 "},"Ẃ":{"ha":1288,"x_min":0,"x_max":0,"o":"m 578 1100 l 660 1292 l 819 1292 l 686 1100 m 267 0 l 19 993 l 179 993 l 354 211 l 357 211 l 563 993 l 724 993 l 931 211 l 933 211 l 1108 993 l 1268 993 l 1019 0 l 856 0 l 644 799 l 642 799 l 432 0 "},"Ŵ":{"ha":1288,"x_min":0,"x_max":0,"o":"m 438 1100 l 569 1292 l 717 1292 l 849 1100 l 718 1100 l 644 1224 l 642 1224 l 567 1100 m 267 0 l 19 993 l 179 993 l 354 211 l 357 211 l 563 993 l 724 993 l 931 211 l 933 211 l 1108 993 l 1268 993 l 1019 0 l 856 0 l 644 799 l 642 799 l 432 0 "},"Ẅ":{"ha":1288,"x_min":0,"x_max":0,"o":"m 450 1119 l 450 1267 l 604 1267 l 604 1119 m 683 1119 l 683 1267 l 838 1267 l 838 1119 m 267 0 l 19 993 l 179 993 l 354 211 l 357 211 l 563 993 l 724 993 l 931 211 l 933 211 l 1108 993 l 1268 993 l 1019 0 l 856 0 l 644 799 l 642 799 l 432 0 "},"Ẁ":{"ha":1288,"x_min":0,"x_max":0,"o":"m 586 1100 l 469 1292 l 622 1292 l 693 1100 m 267 0 l 19 993 l 179 993 l 354 211 l 357 211 l 563 993 l 724 993 l 931 211 l 933 211 l 1108 993 l 1268 993 l 1019 0 l 856 0 l 644 799 l 642 799 l 432 0 "},"X":{"ha":835,"x_min":0,"x_max":0,"o":"m -6 0 l 331 507 l 18 993 l 188 993 l 418 618 l 419 618 l 651 993 l 819 993 l 507 510 l 836 0 l 658 0 l 415 396 l 414 396 l 174 0 "},"Y":{"ha":885,"x_min":0,"x_max":0,"o":"m 365 0 l 365 397 l 10 993 l 175 993 l 442 518 l 444 518 l 711 993 l 875 993 l 519 397 l 519 0 "},"Ý":{"ha":885,"x_min":0,"x_max":0,"o":"m 378 1100 l 460 1292 l 619 1292 l 486 1100 m 365 0 l 365 397 l 10 993 l 175 993 l 442 518 l 444 518 l 711 993 l 875 993 l 519 397 l 519 0 "},"Ŷ":{"ha":885,"x_min":0,"x_max":0,"o":"m 239 1100 l 371 1292 l 518 1292 l 650 1100 l 519 1100 l 446 1224 l 443 1224 l 368 1100 m 365 0 l 365 397 l 10 993 l 175 993 l 442 518 l 444 518 l 711 993 l 875 993 l 519 397 l 519 0 "},"Ÿ":{"ha":885,"x_min":0,"x_max":0,"o":"m 250 1119 l 250 1267 l 404 1267 l 404 1119 m 483 1119 l 483 1267 l 638 1267 l 638 1119 m 365 0 l 365 397 l 10 993 l 175 993 l 442 518 l 444 518 l 711 993 l 875 993 l 519 397 l 519 0 "},"Ỳ":{"ha":885,"x_min":0,"x_max":0,"o":"m 386 1100 l 269 1292 l 422 1292 l 493 1100 m 365 0 l 365 397 l 10 993 l 175 993 l 442 518 l 444 518 l 711 993 l 875 993 l 519 397 l 519 0 "},"Z":{"ha":840,"x_min":0,"x_max":0,"o":"m 31 0 l 31 132 l 601 858 l 601 861 l 58 861 l 58 993 l 789 993 l 789 861 l 218 135 l 218 132 l 803 132 l 803 0 "},"Ź":{"ha":840,"x_min":0,"x_max":0,"o":"m 354 1100 l 436 1292 l 596 1292 l 463 1100 m 31 0 l 31 132 l 601 858 l 601 861 l 58 861 l 58 993 l 789 993 l 789 861 l 218 135 l 218 132 l 803 132 l 803 0 "},"Ž":{"ha":840,"x_min":0,"x_max":0,"o":"m 347 1100 l 215 1292 l 344 1292 l 419 1168 l 422 1168 l 496 1292 l 626 1292 l 494 1100 m 31 0 l 31 132 l 601 858 l 601 861 l 58 861 l 58 993 l 789 993 l 789 861 l 218 135 l 218 132 l 803 132 l 803 0 "},"Ż":{"ha":840,"x_min":0,"x_max":0,"o":"m 343 1119 l 343 1267 l 497 1267 l 497 1119 m 31 0 l 31 132 l 601 858 l 601 861 l 58 861 l 58 993 l 789 993 l 789 861 l 218 135 l 218 132 l 803 132 l 803 0 "},"a":{"ha":738,"x_min":0,"x_max":0,"o":"m 272 -19 b 40 183 131 -19 40 63 b 336 422 40 342 160 389 b 515 526 447 443 515 457 b 381 621 515 578 485 621 b 213 488 257 621 219 582 l 74 488 b 386 731 81 624 169 731 b 649 486 532 731 649 669 l 649 161 b 682 83 649 110 656 83 b 699 85 686 83 690 83 l 699 1 b 629 -7 675 -4 651 -7 b 517 100 561 -7 525 19 l 514 100 b 272 -19 468 26 388 -19 m 303 90 b 515 276 425 90 515 153 l 515 378 b 360 326 493 357 432 342 b 182 193 235 301 182 267 b 303 90 182 126 218 90 "},"á":{"ha":738,"x_min":0,"x_max":0,"o":"m 314 815 l 396 1007 l 556 1007 l 422 815 m 272 -19 b 40 183 131 -19 40 63 b 336 422 40 342 160 389 b 515 526 447 443 515 457 b 381 621 515 578 485 621 b 213 488 257 621 219 582 l 74 488 b 386 731 81 624 169 731 b 649 486 532 731 649 669 l 649 161 b 682 83 649 110 656 83 b 699 85 686 83 690 83 l 699 1 b 629 -7 675 -4 651 -7 b 517 100 561 -7 525 19 l 514 100 b 272 -19 468 26 388 -19 m 303 90 b 515 276 425 90 515 153 l 515 378 b 360 326 493 357 432 342 b 182 193 235 301 182 267 b 303 90 182 126 218 90 "},"ă":{"ha":738,"x_min":0,"x_max":0,"o":"m 381 801 b 193 993 275 801 197 865 l 286 993 b 381 897 290 926 321 897 b 474 993 440 897 469 926 l 567 993 b 381 801 561 869 488 801 m 272 -19 b 40 183 131 -19 40 63 b 336 422 40 342 160 389 b 515 526 447 443 515 457 b 381 621 515 578 485 621 b 213 488 257 621 219 582 l 74 488 b 386 731 81 624 169 731 b 649 486 532 731 649 669 l 649 161 b 682 83 649 110 656 83 b 699 85 686 83 690 83 l 699 1 b 629 -7 675 -4 651 -7 b 517 100 561 -7 525 19 l 514 100 b 272 -19 468 26 388 -19 m 303 90 b 515 276 425 90 515 153 l 515 378 b 360 326 493 357 432 342 b 182 193 235 301 182 267 b 303 90 182 126 218 90 "},"â":{"ha":738,"x_min":0,"x_max":0,"o":"m 174 815 l 306 1007 l 453 1007 l 585 815 l 454 815 l 381 939 l 378 939 l 303 815 m 272 -19 b 40 183 131 -19 40 63 b 336 422 40 342 160 389 b 515 526 447 443 515 457 b 381 621 515 578 485 621 b 213 488 257 621 219 582 l 74 488 b 386 731 81 624 169 731 b 649 486 532 731 649 669 l 649 161 b 682 83 649 110 656 83 b 699 85 686 83 690 83 l 699 1 b 629 -7 675 -4 651 -7 b 517 100 561 -7 525 19 l 514 100 b 272 -19 468 26 388 -19 m 303 90 b 515 276 425 90 515 153 l 515 378 b 360 326 493 357 432 342 b 182 193 235 301 182 267 b 303 90 182 126 218 90 "},"ä":{"ha":738,"x_min":0,"x_max":0,"o":"m 186 835 l 186 982 l 340 982 l 340 835 m 419 835 l 419 982 l 574 982 l 574 835 m 272 -19 b 40 183 131 -19 40 63 b 336 422 40 342 160 389 b 515 526 447 443 515 457 b 381 621 515 578 485 621 b 213 488 257 621 219 582 l 74 488 b 386 731 81 624 169 731 b 649 486 532 731 649 669 l 649 161 b 682 83 649 110 656 83 b 699 85 686 83 690 83 l 699 1 b 629 -7 675 -4 651 -7 b 517 100 561 -7 525 19 l 514 100 b 272 -19 468 26 388 -19 m 303 90 b 515 276 425 90 515 153 l 515 378 b 360 326 493 357 432 342 b 182 193 235 301 182 267 b 303 90 182 126 218 90 "},"à":{"ha":738,"x_min":0,"x_max":0,"o":"m 322 815 l 206 1007 l 358 1007 l 429 815 m 272 -19 b 40 183 131 -19 40 63 b 336 422 40 342 160 389 b 515 526 447 443 515 457 b 381 621 515 578 485 621 b 213 488 257 621 219 582 l 74 488 b 386 731 81 624 169 731 b 649 486 532 731 649 669 l 649 161 b 682 83 649 110 656 83 b 699 85 686 83 690 83 l 699 1 b 629 -7 675 -4 651 -7 b 517 100 561 -7 525 19 l 514 100 b 272 -19 468 26 388 -19 m 303 90 b 515 276 425 90 515 153 l 515 378 b 360 326 493 357 432 342 b 182 193 235 301 182 267 b 303 90 182 126 218 90 "},"ā":{"ha":738,"x_min":0,"x_max":0,"o":"m 196 835 l 196 942 l 563 942 l 563 835 m 272 -19 b 40 183 131 -19 40 63 b 336 422 40 342 160 389 b 515 526 447 443 515 457 b 381 621 515 578 485 621 b 213 488 257 621 219 582 l 74 488 b 386 731 81 624 169 731 b 649 486 532 731 649 669 l 649 161 b 682 83 649 110 656 83 b 699 85 686 83 690 83 l 699 1 b 629 -7 675 -4 651 -7 b 517 100 561 -7 525 19 l 514 100 b 272 -19 468 26 388 -19 m 303 90 b 515 276 425 90 515 153 l 515 378 b 360 326 493 357 432 342 b 182 193 235 301 182 267 b 303 90 182 126 218 90 "},"ą":{"ha":738,"x_min":0,"x_max":0,"o":"m 663 -150 b 728 -137 688 -150 708 -144 l 728 -231 b 632 -244 700 -239 665 -244 b 499 -139 544 -244 499 -203 b 593 -4 499 -78 547 -29 b 517 100 549 6 524 35 l 514 100 b 272 -19 468 26 388 -19 b 40 183 131 -19 40 63 b 336 422 40 342 160 389 b 515 526 447 443 515 457 b 381 621 515 578 485 621 b 213 488 257 621 219 582 l 74 488 b 386 731 81 624 169 731 b 649 486 532 731 649 669 l 649 161 b 682 83 649 110 656 83 b 699 85 686 83 690 83 l 699 1 b 613 -110 644 -42 613 -81 b 663 -150 613 -136 635 -150 m 515 378 b 360 326 493 357 432 342 b 182 193 235 301 182 267 b 303 90 182 126 218 90 b 515 276 425 90 515 153 "},"å":{"ha":738,"x_min":0,"x_max":0,"o":"m 378 771 b 250 899 306 771 250 822 b 378 1026 250 975 306 1026 b 507 899 453 1026 507 975 b 378 771 507 822 453 771 m 378 832 b 443 899 417 832 443 858 b 378 965 443 938 417 965 b 315 899 342 965 315 938 b 378 832 315 858 342 832 m 272 -19 b 40 183 131 -19 40 63 b 336 422 40 342 160 389 b 515 526 447 443 515 457 b 381 621 515 578 485 621 b 213 488 257 621 219 582 l 74 488 b 386 731 81 624 169 731 b 649 486 532 731 649 669 l 649 161 b 682 83 649 110 656 83 b 699 85 686 83 690 83 l 699 1 b 629 -7 675 -4 651 -7 b 517 100 561 -7 525 19 l 514 100 b 272 -19 468 26 388 -19 m 303 90 b 515 276 425 90 515 153 l 515 378 b 360 326 493 357 432 342 b 182 193 235 301 182 267 b 303 90 182 126 218 90 "},"ã":{"ha":738,"x_min":0,"x_max":0,"o":"m 174 824 b 281 971 174 928 224 971 b 456 919 351 971 414 919 b 490 968 486 919 490 947 l 582 968 b 475 821 582 861 532 821 b 301 872 406 821 342 872 b 265 824 269 872 265 842 m 272 -19 b 40 183 131 -19 40 63 b 336 422 40 342 160 389 b 515 526 447 443 515 457 b 381 621 515 578 485 621 b 213 488 257 621 219 582 l 74 488 b 386 731 81 624 169 731 b 649 486 532 731 649 669 l 649 161 b 682 83 649 110 656 83 b 699 85 686 83 690 83 l 699 1 b 629 -7 675 -4 651 -7 b 517 100 561 -7 525 19 l 514 100 b 272 -19 468 26 388 -19 m 303 90 b 515 276 425 90 515 153 l 515 378 b 360 326 493 357 432 342 b 182 193 235 301 182 267 b 303 90 182 126 218 90 "},"æ":{"ha":1238,"x_min":0,"x_max":0,"o":"m 1199 369 b 1197 318 1199 350 1199 329 l 653 318 b 865 90 656 200 725 90 b 1051 218 990 90 1039 171 l 1190 218 b 863 -21 1153 82 1049 -21 b 575 124 731 -21 633 35 b 281 -19 506 21 393 -19 b 40 183 129 -19 40 63 b 336 422 40 342 160 389 b 515 526 447 443 515 457 b 381 621 515 578 485 621 b 213 488 257 621 219 583 l 74 488 b 379 731 81 625 169 731 b 611 631 476 731 564 703 b 863 731 671 694 757 731 b 1199 369 1078 731 1199 589 m 1057 425 b 858 619 1057 536 979 619 b 653 425 744 619 661 542 m 514 317 b 513 356 513 329 513 342 l 513 375 b 360 326 490 357 428 342 b 182 193 235 301 182 267 b 301 90 182 126 218 90 b 514 275 446 90 514 165 "},"b":{"ha":792,"x_min":0,"x_max":0,"o":"m 433 729 b 751 354 614 729 751 588 b 433 -19 751 121 614 -19 b 215 88 322 -19 254 31 l 213 88 l 213 0 l 76 0 l 76 993 l 213 993 l 213 625 l 215 625 b 433 729 254 675 322 729 m 411 93 b 608 354 544 93 608 215 b 411 615 608 493 544 615 b 214 354 289 615 214 515 b 411 93 214 194 289 93 "},"c":{"ha":738,"x_min":0,"x_max":0,"o":"m 388 -21 b 39 354 176 -21 39 132 b 386 729 39 576 176 729 b 706 451 568 729 689 611 l 565 451 b 388 617 558 525 517 617 b 181 354 236 617 181 488 b 388 93 181 221 236 93 b 565 263 518 93 558 182 l 706 263 b 388 -21 696 100 569 -21 "},"ć":{"ha":738,"x_min":0,"x_max":0,"o":"m 321 815 l 403 1007 l 563 1007 l 429 815 m 388 -21 b 39 354 176 -21 39 132 b 386 729 39 576 176 729 b 706 451 568 729 689 611 l 565 451 b 388 617 558 525 517 617 b 181 354 236 617 181 488 b 388 93 181 221 236 93 b 565 263 518 93 558 182 l 706 263 b 388 -21 696 100 569 -21 "},"č":{"ha":738,"x_min":0,"x_max":0,"o":"m 313 815 l 181 1007 l 310 1007 l 385 883 l 388 883 l 461 1007 l 592 1007 l 460 815 m 388 -21 b 39 354 176 -21 39 132 b 386 729 39 576 176 729 b 706 451 568 729 689 611 l 565 451 b 388 617 558 525 517 617 b 181 354 236 617 181 488 b 388 93 181 221 236 93 b 565 263 518 93 558 182 l 706 263 b 388 -21 696 100 569 -21 "},"ç":{"ha":738,"x_min":0,"x_max":0,"o":"m 388 93 b 565 263 518 93 558 182 l 706 263 b 429 -18 697 113 589 -1 l 382 -74 l 382 -76 b 519 -167 442 -68 519 -90 b 367 -275 519 -243 444 -275 b 217 -232 307 -275 254 -256 l 249 -193 b 343 -214 279 -206 307 -214 b 411 -165 388 -214 411 -194 b 358 -124 411 -135 392 -124 b 303 -133 342 -124 317 -128 l 282 -103 l 351 -19 b 39 354 161 -3 39 144 b 386 729 39 576 176 729 b 706 451 568 729 689 611 l 565 451 b 388 617 558 525 517 617 b 181 354 236 617 181 488 b 388 93 181 221 236 93 "},"ĉ":{"ha":738,"x_min":0,"x_max":0,"o":"m 181 815 l 313 1007 l 460 1007 l 592 815 l 461 815 l 388 939 l 385 939 l 310 815 m 388 -21 b 39 354 176 -21 39 132 b 386 729 39 576 176 729 b 706 451 568 729 689 611 l 565 451 b 388 617 558 525 517 617 b 181 354 236 617 181 488 b 388 93 181 221 236 93 b 565 263 518 93 558 182 l 706 263 b 388 -21 696 100 569 -21 "},"ċ":{"ha":738,"x_min":0,"x_max":0,"o":"m 310 835 l 310 982 l 464 982 l 464 835 m 388 -21 b 39 354 176 -21 39 132 b 386 729 39 576 176 729 b 706 451 568 729 689 611 l 565 451 b 388 617 558 525 517 617 b 181 354 236 617 181 488 b 388 93 181 221 236 93 b 565 263 518 93 558 182 l 706 263 b 388 -21 696 100 569 -21 "},"d":{"ha":792,"x_min":0,"x_max":0,"o":"m 579 993 l 715 993 l 715 0 l 579 0 l 579 83 l 576 83 b 358 -19 538 33 469 -19 b 40 354 178 -19 40 121 b 358 729 40 588 178 729 b 576 622 469 729 538 678 l 579 622 m 381 93 b 578 354 503 93 578 194 b 381 615 578 515 503 615 b 182 354 247 615 182 493 b 381 93 182 215 247 93 "},"ð":{"ha":792,"x_min":0,"x_max":0,"o":"m 576 858 b 746 418 664 760 746 614 b 386 -22 746 203 650 -22 b 39 357 164 -22 39 129 b 375 729 39 592 193 729 b 585 619 461 729 539 685 b 451 825 563 690 517 760 l 235 768 l 215 850 l 376 893 b 232 993 333 928 285 961 l 413 993 b 506 928 439 979 471 957 l 683 975 l 704 893 m 386 93 b 607 357 524 93 607 213 b 386 618 607 501 524 618 b 175 357 247 618 175 501 b 386 93 175 213 247 93 "},"ď":{"ha":832,"x_min":0,"x_max":0,"o":"m 579 622 l 579 993 l 715 993 l 715 0 l 579 0 l 579 83 l 576 83 b 358 -19 538 33 469 -19 b 40 354 178 -19 40 121 b 358 729 40 588 178 729 b 576 622 469 729 538 678 m 801 993 l 956 993 l 871 722 l 769 722 m 381 93 b 578 354 503 93 578 194 b 381 615 578 515 503 615 b 182 354 247 615 182 493 b 381 93 182 215 247 93 "},"đ":{"ha":792,"x_min":0,"x_max":0,"o":"m 811 904 l 811 811 l 715 811 l 715 0 l 579 0 l 579 83 l 576 83 b 358 -19 538 33 469 -19 b 40 354 178 -19 40 121 b 358 729 40 588 178 729 b 576 622 469 729 538 678 l 579 622 l 579 811 l 381 811 l 381 904 l 579 904 l 579 993 l 715 993 l 715 904 m 381 93 b 578 354 503 93 578 194 b 381 615 578 515 503 615 b 182 354 247 615 182 493 b 381 93 182 215 247 93 "},"e":{"ha":765,"x_min":0,"x_max":0,"o":"m 726 369 b 725 318 726 350 726 329 l 181 318 b 393 90 183 200 253 90 b 579 218 518 90 567 171 l 718 218 b 390 -21 681 82 576 -21 b 40 356 165 -21 40 139 b 390 731 40 578 174 731 b 726 369 606 731 726 589 m 585 425 b 386 619 585 536 507 619 b 181 425 272 619 189 542 "},"é":{"ha":765,"x_min":0,"x_max":0,"o":"m 560 1010 l 426 818 l 318 818 l 400 1010 m 726 369 b 725 318 726 350 726 329 l 181 318 b 393 90 183 200 253 90 b 579 218 518 90 567 171 l 718 218 b 390 -21 681 82 576 -21 b 40 356 165 -21 40 139 b 390 731 40 578 174 731 b 726 369 606 731 726 589 m 585 425 b 386 619 585 536 507 619 b 181 425 272 619 189 542 "},"ě":{"ha":765,"x_min":0,"x_max":0,"o":"m 457 818 l 310 818 l 178 1010 l 307 1010 l 382 886 l 385 886 l 458 1010 l 589 1010 m 726 369 b 725 318 726 350 726 329 l 181 318 b 393 90 183 200 253 90 b 579 218 518 90 567 171 l 718 218 b 390 -21 681 82 576 -21 b 40 356 165 -21 40 139 b 390 731 40 578 174 731 b 726 369 606 731 726 589 m 585 425 b 386 619 585 536 507 619 b 181 425 272 619 189 542 "},"ê":{"ha":765,"x_min":0,"x_max":0,"o":"m 382 942 l 307 818 l 178 818 l 310 1010 l 457 1010 l 589 818 l 458 818 l 385 942 m 726 369 b 725 318 726 350 726 329 l 181 318 b 393 90 183 200 253 90 b 579 218 518 90 567 171 l 718 218 b 390 -21 681 82 576 -21 b 40 356 165 -21 40 139 b 390 731 40 578 174 731 b 726 369 606 731 726 589 m 585 425 b 386 619 585 536 507 619 b 181 425 272 619 189 542 "},"ë":{"ha":765,"x_min":0,"x_max":0,"o":"m 343 985 l 343 838 l 189 838 l 189 985 m 576 985 l 576 838 l 422 838 l 422 985 m 726 369 b 725 318 726 350 726 329 l 181 318 b 393 90 183 200 253 90 b 579 218 518 90 567 171 l 718 218 b 390 -21 681 82 576 -21 b 40 356 165 -21 40 139 b 390 731 40 578 174 731 b 726 369 606 731 726 589 m 585 425 b 386 619 585 536 507 619 b 181 425 272 619 189 542 "},"ė":{"ha":765,"x_min":0,"x_max":0,"o":"m 461 985 l 461 838 l 307 838 l 307 985 m 726 369 b 725 318 726 350 726 329 l 181 318 b 393 90 183 200 253 90 b 579 218 518 90 567 171 l 718 218 b 390 -21 681 82 576 -21 b 40 356 165 -21 40 139 b 390 731 40 578 174 731 b 726 369 606 731 726 589 m 585 425 b 386 619 585 536 507 619 b 181 425 272 619 189 542 "},"è":{"ha":765,"x_min":0,"x_max":0,"o":"m 432 818 l 325 818 l 208 1010 l 361 1010 m 726 369 b 725 318 726 350 726 329 l 181 318 b 393 90 183 200 253 90 b 579 218 518 90 567 171 l 718 218 b 390 -21 681 82 576 -21 b 40 356 165 -21 40 139 b 390 731 40 578 174 731 b 726 369 606 731 726 589 m 585 425 b 386 619 585 536 507 619 b 181 425 272 619 189 542 "},"ē":{"ha":765,"x_min":0,"x_max":0,"o":"m 567 944 l 567 838 l 200 838 l 200 944 m 726 369 b 725 318 726 350 726 329 l 181 318 b 393 90 183 200 253 90 b 579 218 518 90 567 171 l 718 218 b 390 -21 681 82 576 -21 b 40 356 165 -21 40 139 b 390 731 40 578 174 731 b 726 369 606 731 726 589 m 585 425 b 386 619 585 536 507 619 b 181 425 272 619 189 542 "},"ę":{"ha":765,"x_min":0,"x_max":0,"o":"m 726 369 b 725 318 726 350 726 329 l 181 318 b 393 90 183 200 253 90 b 579 218 518 90 567 171 l 718 218 b 497 -8 689 111 618 24 b 421 -111 449 -47 421 -83 b 471 -151 421 -137 443 -151 b 536 -139 496 -151 517 -146 l 536 -232 b 440 -246 508 -240 474 -246 b 307 -140 353 -246 307 -204 b 376 -21 307 -90 340 -49 b 40 356 160 -14 40 143 b 390 731 40 578 174 731 b 726 369 606 731 726 589 m 585 425 b 386 619 585 536 507 619 b 181 425 272 619 189 542 "},"f":{"ha":406,"x_min":0,"x_max":0,"o":"m 338 889 b 264 797 281 889 264 872 l 264 708 l 396 708 l 396 596 l 264 596 l 264 0 l 126 0 l 126 596 l 29 596 l 29 708 l 126 708 l 126 794 b 310 1003 126 958 194 1003 b 396 994 336 1003 357 1000 l 396 885 b 338 889 368 888 357 889 "},"g":{"ha":788,"x_min":0,"x_max":0,"o":"m 576 708 l 713 708 l 713 56 b 381 -254 713 -158 583 -254 b 63 -29 178 -254 76 -157 l 204 -29 b 381 -143 218 -93 265 -143 b 576 47 510 -143 576 -86 l 576 143 l 574 143 b 356 36 535 86 469 36 b 43 382 179 36 43 156 b 356 729 43 610 179 729 b 574 625 469 729 535 675 l 576 625 m 381 149 b 575 382 503 149 575 228 b 381 615 575 538 503 615 b 185 382 247 615 185 515 b 381 149 185 249 247 149 "},"ğ":{"ha":788,"x_min":0,"x_max":0,"o":"m 375 801 b 188 993 269 801 192 865 l 281 993 b 375 897 285 926 315 897 b 468 993 435 897 464 926 l 561 993 b 375 801 556 869 482 801 m 576 708 l 713 708 l 713 56 b 381 -254 713 -158 583 -254 b 63 -29 178 -254 76 -157 l 204 -29 b 381 -143 218 -93 265 -143 b 576 47 510 -143 576 -86 l 576 143 l 574 143 b 356 36 535 86 469 36 b 43 382 179 36 43 156 b 356 729 43 610 179 729 b 574 625 469 729 535 675 l 576 625 m 381 149 b 575 382 503 149 575 228 b 381 615 575 538 503 615 b 185 382 247 615 185 515 b 381 149 185 249 247 149 "},"ĝ":{"ha":788,"x_min":0,"x_max":0,"o":"m 374 939 l 299 815 l 169 815 l 301 1007 l 449 1007 l 581 815 l 450 815 l 376 939 m 576 708 l 713 708 l 713 56 b 381 -254 713 -158 583 -254 b 63 -29 178 -254 76 -157 l 204 -29 b 381 -143 218 -93 265 -143 b 576 47 510 -143 576 -86 l 576 143 l 574 143 b 356 36 535 86 469 36 b 43 382 179 36 43 156 b 356 729 43 610 179 729 b 574 625 469 729 535 675 l 576 625 m 381 149 b 575 382 503 149 575 228 b 381 615 575 538 503 615 b 185 382 247 615 185 515 b 381 149 185 249 247 149 "},"ģ":{"ha":788,"x_min":0,"x_max":0,"o":"m 456 942 l 456 815 l 304 815 l 304 942 b 456 1103 304 1018 344 1078 l 456 1038 b 383 942 404 1025 382 1003 m 576 708 l 713 708 l 713 56 b 381 -254 713 -158 583 -254 b 63 -29 178 -254 76 -157 l 204 -29 b 381 -143 218 -93 265 -143 b 576 47 510 -143 576 -86 l 576 143 l 574 143 b 356 36 535 86 469 36 b 43 382 179 36 43 156 b 356 729 43 610 179 729 b 574 625 469 729 535 675 l 576 625 m 381 149 b 575 382 503 149 575 228 b 381 615 575 538 503 615 b 185 382 247 615 185 515 b 381 149 185 249 247 149 "},"ġ":{"ha":788,"x_min":0,"x_max":0,"o":"m 453 982 l 453 835 l 299 835 l 299 982 m 576 708 l 713 708 l 713 56 b 381 -254 713 -158 583 -254 b 63 -29 178 -254 76 -157 l 204 -29 b 381 -143 218 -93 265 -143 b 576 47 510 -143 576 -86 l 576 143 l 574 143 b 356 36 535 86 469 36 b 43 382 179 36 43 156 b 356 729 43 610 179 729 b 574 625 469 729 535 675 l 576 625 m 381 149 b 575 382 503 149 575 228 b 381 615 575 538 503 615 b 185 382 247 615 185 515 b 381 149 185 249 247 149 "},"h":{"ha":756,"x_min":0,"x_max":0,"o":"m 449 729 b 685 492 579 729 685 654 l 685 0 l 549 0 l 549 454 b 404 613 549 549 507 613 b 213 435 288 613 213 542 l 213 0 l 76 0 l 76 993 l 213 993 l 213 619 l 215 619 b 449 729 253 674 326 729 "},"ħ":{"ha":756,"x_min":0,"x_max":0,"o":"m 449 729 b 685 492 579 729 685 654 l 685 0 l 549 0 l 549 454 b 404 613 549 549 507 613 b 213 435 288 613 213 542 l 213 0 l 76 0 l 76 811 l -7 811 l -7 904 l 76 904 l 76 993 l 213 993 l 213 904 l 431 904 l 431 811 l 213 811 l 213 619 l 215 619 b 449 729 253 674 326 729 "},"ĥ":{"ha":756,"x_min":0,"x_max":0,"o":"m 146 1164 l 143 1164 l 68 1040 l -61 1040 l 71 1232 l 218 1232 l 350 1040 l 219 1040 m 449 729 b 685 492 579 729 685 654 l 685 0 l 549 0 l 549 454 b 404 613 549 549 507 613 b 213 435 288 613 213 542 l 213 0 l 76 0 l 76 993 l 213 993 l 213 619 l 215 619 b 449 729 253 674 326 729 "},"i":{"ha":289,"x_min":0,"x_max":0,"o":"m 68 835 l 68 982 l 222 982 l 222 835 m 76 0 l 76 708 l 213 708 l 213 0 "},"ı":{"ha":289,"x_min":0,"x_max":0,"o":"m 76 0 l 76 708 l 213 708 l 213 0 "},"í":{"ha":289,"x_min":0,"x_max":0,"o":"m 79 815 l 161 1007 l 321 1007 l 188 815 m 76 0 l 76 708 l 213 708 l 213 0 "},"î":{"ha":289,"x_min":0,"x_max":0,"o":"m -61 815 l 71 1007 l 218 1007 l 350 815 l 219 815 l 146 939 l 143 939 l 68 815 m 76 0 l 76 708 l 213 708 l 213 0 "},"ï":{"ha":289,"x_min":0,"x_max":0,"o":"m -50 835 l -50 982 l 104 982 l 104 835 m 183 835 l 183 982 l 338 982 l 338 835 m 76 0 l 76 708 l 213 708 l 213 0 "},"ì":{"ha":289,"x_min":0,"x_max":0,"o":"m 86 815 l -31 1007 l 122 1007 l 193 815 m 76 0 l 76 708 l 213 708 l 213 0 "},"ī":{"ha":289,"x_min":0,"x_max":0,"o":"m -39 835 l -39 942 l 328 942 l 328 835 m 76 0 l 76 708 l 213 708 l 213 0 "},"į":{"ha":289,"x_min":0,"x_max":0,"o":"m 222 982 l 222 835 l 68 835 l 68 982 m 158 -151 b 224 -139 183 -151 204 -146 l 224 -232 b 128 -246 196 -240 161 -246 b -6 -140 40 -246 -6 -204 b 99 0 -6 -75 50 -24 l 76 0 l 76 708 l 213 708 l 213 0 l 194 0 b 108 -111 140 -43 108 -82 b 158 -151 108 -137 131 -151 "},"ĩ":{"ha":289,"x_min":0,"x_max":0,"o":"m -62 824 b 44 971 -62 928 -12 971 b 219 919 115 971 178 919 b 254 968 250 919 254 947 l 346 968 b 239 821 346 861 296 821 b 65 872 169 821 106 872 b 29 824 33 872 29 842 m 76 0 l 76 708 l 213 708 l 213 0 "},"j":{"ha":289,"x_min":0,"x_max":0,"o":"m 68 835 l 68 982 l 222 982 l 222 835 m 43 -251 b -42 -243 14 -251 -7 -249 l -42 -131 b 13 -135 -19 -133 -8 -135 b 76 -32 56 -135 76 -111 l 76 708 l 213 708 l 213 -37 b 43 -251 213 -189 143 -251 "},"ȷ":{"ha":289,"x_min":0,"x_max":0,"o":"m 43 -251 b -42 -243 14 -251 -7 -249 l -42 -131 b 13 -135 -19 -133 -8 -135 b 76 -32 56 -135 76 -111 l 76 708 l 213 708 l 213 -37 b 43 -251 213 -189 143 -251 "},"ĵ":{"ha":289,"x_min":0,"x_max":0,"o":"m -61 815 l 71 1007 l 218 1007 l 350 815 l 219 815 l 146 939 l 143 939 l 68 815 m 43 -251 b -42 -243 14 -251 -7 -249 l -42 -131 b 13 -135 -19 -133 -8 -135 b 76 -32 56 -135 76 -111 l 76 708 l 213 708 l 213 -37 b 43 -251 213 -189 143 -251 "},"k":{"ha":688,"x_min":0,"x_max":0,"o":"m 547 0 l 315 363 l 213 264 l 213 0 l 76 0 l 76 993 l 213 993 l 213 408 l 522 708 l 679 708 l 407 449 l 708 0 "},"ķ":{"ha":688,"x_min":0,"x_max":0,"o":"m 407 449 l 708 0 l 547 0 l 315 363 l 213 264 l 213 0 l 76 0 l 76 993 l 213 993 l 213 408 l 522 708 l 679 708 m 307 -183 l 307 -68 l 458 -68 l 458 -183 b 307 -331 458 -253 418 -307 l 307 -272 b 379 -183 357 -260 379 -239 "},"ĸ":{"ha":694,"x_min":0,"x_max":0,"o":"m 547 0 l 322 351 l 213 249 l 213 0 l 76 0 l 76 708 l 213 708 l 213 396 l 540 708 l 700 708 l 414 439 l 708 0 "},"l":{"ha":289,"x_min":0,"x_max":0,"o":"m 76 0 l 76 993 l 213 993 l 213 0 "},"ĺ":{"ha":289,"x_min":0,"x_max":0,"o":"m 79 1040 l 161 1232 l 321 1232 l 188 1040 m 76 0 l 76 993 l 213 993 l 213 0 "},"ľ":{"ha":329,"x_min":0,"x_max":0,"o":"m 256 725 l 288 996 l 443 996 l 357 725 m 76 0 l 76 993 l 213 993 l 213 0 "},"ļ":{"ha":289,"x_min":0,"x_max":0,"o":"m 213 993 l 213 0 l 76 0 l 76 993 m 69 -68 l 221 -68 l 221 -183 b 69 -331 221 -253 181 -307 l 69 -272 b 142 -183 119 -260 142 -239 l 69 -183 "},"ł":{"ha":396,"x_min":0,"x_max":0,"o":"m 365 710 l 365 590 l 267 519 l 267 0 l 131 0 l 131 421 l 32 350 l 32 469 l 131 540 l 131 993 l 267 993 l 267 639 "},"m":{"ha":1135,"x_min":0,"x_max":0,"o":"m 847 729 b 1063 492 990 729 1063 643 l 1063 0 l 926 0 l 926 454 b 803 613 926 549 907 613 b 638 435 701 613 638 542 l 638 0 l 501 0 l 501 454 b 378 613 501 549 482 613 b 213 435 276 613 213 542 l 213 0 l 76 0 l 76 708 l 213 708 l 213 619 l 215 619 b 425 729 253 674 318 729 b 613 606 524 729 585 685 l 615 606 b 847 729 667 674 739 729 "},"n":{"ha":756,"x_min":0,"x_max":0,"o":"m 449 729 b 685 492 579 729 685 654 l 685 0 l 549 0 l 549 454 b 404 613 549 549 507 613 b 213 435 288 613 213 542 l 213 0 l 76 0 l 76 708 l 213 708 l 213 619 l 215 619 b 449 729 253 674 326 729 "},"ń":{"ha":756,"x_min":0,"x_max":0,"o":"m 567 1007 l 433 815 l 325 815 l 407 1007 m 449 729 b 685 492 579 729 685 654 l 685 0 l 549 0 l 549 454 b 404 613 549 549 507 613 b 213 435 288 613 213 542 l 213 0 l 76 0 l 76 708 l 213 708 l 213 619 l 215 619 b 449 729 253 674 326 729 "},"ň":{"ha":756,"x_min":0,"x_max":0,"o":"m 464 815 l 317 815 l 185 1007 l 314 1007 l 389 883 l 392 883 l 465 1007 l 596 1007 m 449 729 b 685 492 579 729 685 654 l 685 0 l 549 0 l 549 454 b 404 613 549 549 507 613 b 213 435 288 613 213 542 l 213 0 l 76 0 l 76 708 l 213 708 l 213 619 l 215 619 b 449 729 253 674 326 729 "},"ņ":{"ha":756,"x_min":0,"x_max":0,"o":"m 449 729 b 685 492 579 729 685 654 l 685 0 l 549 0 l 549 454 b 404 613 549 549 507 613 b 213 435 288 613 213 542 l 213 0 l 76 0 l 76 708 l 213 708 l 213 619 l 215 619 b 449 729 253 674 326 729 m 306 -183 l 306 -68 l 457 -68 l 457 -183 b 306 -331 457 -253 417 -307 l 306 -272 b 378 -183 356 -260 378 -239 "},"ñ":{"ha":756,"x_min":0,"x_max":0,"o":"m 311 872 b 275 824 279 872 275 842 l 183 824 b 290 971 183 928 233 971 b 465 919 361 971 424 919 b 500 968 496 919 500 947 l 592 968 b 485 821 592 861 542 821 b 311 872 415 821 351 872 m 449 729 b 685 492 579 729 685 654 l 685 0 l 549 0 l 549 454 b 404 613 549 549 507 613 b 213 435 288 613 213 542 l 213 0 l 76 0 l 76 708 l 213 708 l 213 619 l 215 619 b 449 729 253 674 326 729 "},"ŋ":{"ha":756,"x_min":0,"x_max":0,"o":"m 449 729 b 685 492 579 729 685 654 l 685 -42 b 508 -237 685 -189 618 -237 b 413 -228 472 -237 442 -235 l 413 -115 b 549 -29 507 -121 549 -110 l 549 454 b 404 613 549 549 507 613 b 213 435 288 613 213 542 l 213 0 l 76 0 l 76 708 l 213 708 l 213 619 l 215 619 b 449 729 253 674 326 729 "},"o":{"ha":786,"x_min":0,"x_max":0,"o":"m 393 -21 b 39 354 172 -21 39 132 b 394 731 39 575 172 731 b 747 356 614 731 747 576 b 393 -21 747 133 614 -21 m 394 92 b 606 354 539 92 606 207 b 394 617 606 503 539 617 b 181 354 247 617 181 503 b 394 92 181 207 247 92 "},"ó":{"ha":786,"x_min":0,"x_max":0,"o":"m 328 818 l 410 1010 l 569 1010 l 436 818 m 393 -21 b 39 354 172 -21 39 132 b 394 731 39 575 172 731 b 747 356 614 731 747 576 b 393 -21 747 133 614 -21 m 394 92 b 606 354 539 92 606 207 b 394 617 606 503 539 617 b 181 354 247 617 181 503 b 394 92 181 207 247 92 "},"ô":{"ha":786,"x_min":0,"x_max":0,"o":"m 189 818 l 321 1010 l 468 1010 l 600 818 l 469 818 l 396 942 l 393 942 l 318 818 m 393 -21 b 39 354 172 -21 39 132 b 394 731 39 575 172 731 b 747 356 614 731 747 576 b 393 -21 747 133 614 -21 m 394 92 b 606 354 539 92 606 207 b 394 617 606 503 539 617 b 181 354 247 617 181 503 b 394 92 181 207 247 92 "},"ö":{"ha":786,"x_min":0,"x_max":0,"o":"m 200 838 l 200 985 l 354 985 l 354 838 m 433 838 l 433 985 l 588 985 l 588 838 m 393 -21 b 39 354 172 -21 39 132 b 394 731 39 575 172 731 b 747 356 614 731 747 576 b 393 -21 747 133 614 -21 m 394 92 b 606 354 539 92 606 207 b 394 617 606 503 539 617 b 181 354 247 617 181 503 b 394 92 181 207 247 92 "},"ò":{"ha":786,"x_min":0,"x_max":0,"o":"m 336 818 l 219 1010 l 372 1010 l 443 818 m 393 -21 b 39 354 172 -21 39 132 b 394 731 39 575 172 731 b 747 356 614 731 747 576 b 393 -21 747 133 614 -21 m 394 92 b 606 354 539 92 606 207 b 394 617 606 503 539 617 b 181 354 247 617 181 503 b 394 92 181 207 247 92 "},"ő":{"ha":786,"x_min":0,"x_max":0,"o":"m 229 818 l 314 1010 l 465 1010 l 335 818 m 438 818 l 528 1010 l 679 1010 l 543 818 m 393 -21 b 39 354 172 -21 39 132 b 394 731 39 575 172 731 b 747 356 614 731 747 576 b 393 -21 747 133 614 -21 m 394 92 b 606 354 539 92 606 207 b 394 617 606 503 539 617 b 181 354 247 617 181 503 b 394 92 181 207 247 92 "},"ō":{"ha":786,"x_min":0,"x_max":0,"o":"m 210 838 l 210 944 l 576 944 l 576 838 m 393 -21 b 39 354 172 -21 39 132 b 394 731 39 575 172 731 b 747 356 614 731 747 576 b 393 -21 747 133 614 -21 m 394 92 b 606 354 539 92 606 207 b 394 617 606 503 539 617 b 181 354 247 617 181 503 b 394 92 181 207 247 92 "},"ø":{"ha":799,"x_min":0,"x_max":0,"o":"m 767 672 l 688 592 b 754 356 731 529 754 449 b 400 -21 754 133 621 -21 b 160 64 301 -21 219 10 l 81 -15 l 32 36 l 113 117 b 46 354 69 181 46 261 b 401 731 46 575 179 731 b 639 646 500 731 581 700 l 717 724 m 188 354 b 211 217 188 303 196 257 l 549 556 b 400 617 514 594 465 617 b 188 354 254 617 188 503 m 613 354 b 588 493 613 406 604 453 l 250 154 b 400 92 285 115 335 92 b 613 354 544 92 613 207 "},"õ":{"ha":786,"x_min":0,"x_max":0,"o":"m 188 826 b 294 974 188 931 238 974 b 469 922 365 974 428 922 b 504 971 500 922 504 950 l 596 971 b 489 824 596 864 546 824 b 315 875 419 824 356 875 b 279 826 283 875 279 844 m 393 -21 b 39 354 172 -21 39 132 b 394 731 39 575 172 731 b 747 356 614 731 747 576 b 393 -21 747 133 614 -21 m 394 92 b 606 354 539 92 606 207 b 394 617 606 503 539 617 b 181 354 247 617 181 503 b 394 92 181 207 247 92 "},"œ":{"ha":1332,"x_min":0,"x_max":0,"o":"m 1293 369 b 1292 318 1293 350 1293 329 l 747 318 b 958 90 750 200 819 90 b 1146 218 1085 90 1132 171 l 1283 218 b 957 -21 1247 82 1143 -21 b 676 113 831 -21 735 29 b 393 -21 615 29 518 -21 b 39 354 172 -21 39 132 b 394 729 39 575 172 729 b 676 597 519 729 617 679 b 957 731 736 681 833 731 b 1293 369 1171 731 1293 589 m 1150 425 b 953 619 1150 536 1074 619 b 747 425 839 619 756 542 m 394 93 b 606 354 539 93 606 207 b 394 617 606 503 539 617 b 181 354 247 617 181 503 b 394 93 181 207 247 93 "},"p":{"ha":792,"x_min":0,"x_max":0,"o":"m 433 729 b 751 354 614 729 751 588 b 433 -19 751 121 614 -19 b 215 88 322 -19 254 31 l 213 88 l 213 -246 l 76 -246 l 76 708 l 213 708 l 213 625 l 215 625 b 433 729 254 675 322 729 m 411 93 b 608 354 544 93 608 215 b 411 615 608 493 544 615 b 214 354 289 615 214 515 b 411 93 214 194 289 93 "},"þ":{"ha":792,"x_min":0,"x_max":0,"o":"m 433 729 b 751 354 614 729 751 588 b 433 -19 751 121 614 -19 b 215 88 322 -19 254 31 l 213 88 l 213 -246 l 76 -246 l 76 993 l 213 993 l 213 625 l 215 625 b 433 729 254 675 322 729 m 411 93 b 608 354 544 93 608 215 b 411 615 608 493 544 615 b 214 354 289 615 214 515 b 411 93 214 194 289 93 "},"q":{"ha":790,"x_min":0,"x_max":0,"o":"m 579 708 l 715 708 l 715 -246 l 579 -246 l 579 83 l 576 83 b 358 -19 538 33 469 -19 b 40 354 178 -19 40 121 b 358 729 40 588 178 729 b 576 622 469 729 538 678 l 579 622 m 381 93 b 578 354 503 93 578 194 b 381 615 578 515 503 615 b 182 354 247 615 182 493 b 381 93 182 215 247 93 "},"r":{"ha":483,"x_min":0,"x_max":0,"o":"m 406 725 b 471 721 431 725 450 724 l 471 590 b 425 594 454 593 442 594 b 213 367 301 594 213 501 l 213 0 l 76 0 l 76 708 l 213 708 l 213 574 l 215 574 b 406 725 253 663 310 725 "},"ŕ":{"ha":483,"x_min":0,"x_max":0,"o":"m 450 1007 l 317 815 l 208 815 l 290 1007 m 406 725 b 471 721 431 725 450 724 l 471 590 b 425 594 454 593 442 594 b 213 367 301 594 213 501 l 213 0 l 76 0 l 76 708 l 213 708 l 213 574 l 215 574 b 406 725 253 663 310 725 "},"ř":{"ha":483,"x_min":0,"x_max":0,"o":"m 347 815 l 200 815 l 68 1007 l 197 1007 l 272 883 l 275 883 l 349 1007 l 479 1007 m 215 574 b 406 725 253 663 310 725 b 471 721 431 725 450 724 l 471 590 b 425 594 454 593 442 594 b 213 367 301 594 213 501 l 213 0 l 76 0 l 76 708 l 213 708 l 213 574 "},"ŗ":{"ha":483,"x_min":0,"x_max":0,"o":"m 406 725 b 471 721 431 725 450 724 l 471 590 b 425 594 454 593 442 594 b 213 367 301 594 213 501 l 213 0 l 76 0 l 76 708 l 213 708 l 213 574 l 215 574 b 406 725 253 663 310 725 m 69 -183 l 69 -68 l 221 -68 l 221 -183 b 69 -331 221 -253 181 -307 l 69 -272 b 142 -183 119 -260 142 -239 "},"s":{"ha":678,"x_min":0,"x_max":0,"o":"m 356 -19 b 29 236 140 -19 33 92 l 167 236 b 354 90 172 154 222 90 b 506 194 474 90 506 143 b 319 313 506 283 411 293 b 54 525 196 342 54 378 b 324 729 54 647 153 729 b 621 503 518 729 611 625 l 483 503 b 326 619 474 557 444 619 b 196 531 235 619 196 583 b 375 428 196 457 275 450 b 647 201 506 397 647 360 b 356 -19 647 64 542 -19 "},"ś":{"ha":678,"x_min":0,"x_max":0,"o":"m 272 815 l 354 1007 l 514 1007 l 381 815 m 356 -19 b 29 236 140 -19 33 92 l 167 236 b 354 90 172 154 222 90 b 506 194 474 90 506 143 b 319 313 506 283 411 293 b 54 525 196 342 54 378 b 324 729 54 647 153 729 b 621 503 518 729 611 625 l 483 503 b 326 619 474 557 444 619 b 196 531 235 619 196 583 b 375 428 196 457 275 450 b 647 201 506 397 647 360 b 356 -19 647 64 542 -19 "},"š":{"ha":678,"x_min":0,"x_max":0,"o":"m 265 815 l 133 1007 l 263 1007 l 338 883 l 340 883 l 414 1007 l 544 1007 l 413 815 m 356 -19 b 29 236 140 -19 33 92 l 167 236 b 354 90 172 154 222 90 b 506 194 474 90 506 143 b 319 313 506 283 411 293 b 54 525 196 342 54 378 b 324 729 54 647 153 729 b 621 503 518 729 611 625 l 483 503 b 326 619 474 557 444 619 b 196 531 235 619 196 583 b 375 428 196 457 275 450 b 647 201 506 397 647 360 b 356 -19 647 64 542 -19 "},"ş":{"ha":678,"x_min":0,"x_max":0,"o":"m 328 -74 l 328 -76 b 465 -167 388 -68 465 -90 b 313 -275 465 -243 390 -275 b 163 -232 253 -275 200 -256 l 194 -193 b 289 -214 225 -206 253 -214 b 357 -165 333 -214 357 -194 b 304 -124 357 -135 338 -124 b 249 -133 288 -124 263 -128 l 228 -103 l 300 -17 b 29 236 122 1 33 104 l 167 236 b 354 90 172 154 222 90 b 506 194 474 90 506 143 b 319 313 506 283 411 293 b 54 525 196 342 54 378 b 324 729 54 647 153 729 b 621 503 518 729 611 625 l 483 503 b 326 619 474 557 444 619 b 196 531 235 619 196 583 b 375 428 196 457 275 450 b 647 201 506 397 647 360 b 374 -19 647 68 549 -14 "},"ŝ":{"ha":678,"x_min":0,"x_max":0,"o":"m 133 815 l 265 1007 l 413 1007 l 544 815 l 414 815 l 340 939 l 338 939 l 263 815 m 356 -19 b 29 236 140 -19 33 92 l 167 236 b 354 90 172 154 222 90 b 506 194 474 90 506 143 b 319 313 506 283 411 293 b 54 525 196 342 54 378 b 324 729 54 647 153 729 b 621 503 518 729 611 625 l 483 503 b 326 619 474 557 444 619 b 196 531 235 619 196 583 b 375 428 196 457 275 450 b 647 201 506 397 647 360 b 356 -19 647 64 542 -19 "},"ș":{"ha":678,"x_min":0,"x_max":0,"o":"m 375 428 b 647 201 506 397 647 360 b 356 -19 647 64 542 -19 b 29 236 140 -19 33 92 l 167 236 b 354 90 172 154 222 90 b 506 194 474 90 506 143 b 319 313 506 283 411 293 b 54 525 196 342 54 378 b 324 729 54 647 153 729 b 621 503 518 729 611 625 l 483 503 b 326 619 474 557 444 619 b 196 531 235 619 196 583 b 375 428 196 457 275 450 m 268 -183 l 268 -68 l 419 -68 l 419 -183 b 268 -331 419 -253 379 -307 l 268 -272 b 340 -183 318 -260 340 -239 "},"ß":{"ha":740,"x_min":0,"x_max":0,"o":"m 425 -19 b 293 0 382 -19 338 -12 l 293 113 b 392 94 329 100 361 94 b 560 285 504 94 560 176 b 343 496 560 431 460 496 l 304 496 l 304 603 l 339 603 b 514 760 426 603 514 651 b 369 900 514 832 478 900 b 213 694 247 900 213 814 l 213 0 l 76 0 l 76 713 b 369 1013 76 901 185 1013 b 657 765 546 1013 657 913 b 501 551 657 649 586 588 l 501 549 b 701 267 621 508 701 421 b 425 -19 701 93 597 -19 "},"t":{"ha":432,"x_min":0,"x_max":0,"o":"m 338 104 b 396 110 361 104 372 106 l 396 0 b 310 -8 361 -7 339 -8 b 122 200 193 -8 122 36 l 122 596 l 19 596 l 19 708 l 122 708 l 122 936 l 258 936 l 258 708 l 394 708 l 394 596 l 258 596 l 258 196 b 338 104 258 121 279 104 "},"ŧ":{"ha":440,"x_min":0,"x_max":0,"o":"m 342 104 b 400 110 365 104 376 106 l 400 0 b 314 -8 365 -7 343 -8 b 126 200 197 -8 126 36 l 126 371 l 24 371 l 24 475 l 126 475 l 126 596 l 24 596 l 24 708 l 126 708 l 126 936 l 264 936 l 264 708 l 399 708 l 399 596 l 264 596 l 264 475 l 399 475 l 399 371 l 264 371 l 264 196 b 342 104 264 121 283 104 "},"ť":{"ha":432,"x_min":0,"x_max":0,"o":"m 347 993 l 493 993 l 411 775 l 315 775 m 258 196 b 338 104 258 121 279 104 b 396 110 361 104 372 106 l 396 0 b 310 -8 361 -7 339 -8 b 122 200 193 -8 122 36 l 122 596 l 19 596 l 19 708 l 122 708 l 122 936 l 258 936 l 258 708 l 394 708 l 394 596 l 258 596 "},"ţ":{"ha":432,"x_min":0,"x_max":0,"o":"m 269 -58 b 407 -149 329 -50 407 -72 b 254 -257 407 -225 332 -257 b 104 -214 194 -257 142 -237 l 136 -175 b 231 -196 167 -187 194 -196 b 299 -147 275 -196 299 -176 b 246 -106 299 -117 279 -106 b 190 -115 229 -106 204 -110 l 169 -85 l 239 -1 b 122 200 165 17 122 72 l 122 596 l 19 596 l 19 708 l 122 708 l 122 936 l 258 936 l 258 708 l 394 708 l 394 596 l 258 596 l 258 196 b 338 104 258 121 279 104 b 396 110 361 104 372 106 l 396 0 b 310 -8 361 -7 339 -8 l 269 -56 "},"ț":{"ha":432,"x_min":0,"x_max":0,"o":"m 338 104 b 396 110 361 104 372 106 l 396 0 b 310 -8 361 -7 339 -8 b 122 200 193 -8 122 36 l 122 596 l 19 596 l 19 708 l 122 708 l 122 936 l 258 936 l 258 708 l 394 708 l 394 596 l 258 596 l 258 196 b 338 104 258 121 279 104 m 210 -165 l 210 -50 l 361 -50 l 361 -165 b 210 -312 361 -235 321 -289 l 210 -254 b 282 -165 260 -242 282 -221 "},"u":{"ha":756,"x_min":0,"x_max":0,"o":"m 543 708 l 679 708 l 679 0 l 543 0 l 543 89 l 540 89 b 307 -19 503 35 429 -19 b 71 218 176 -19 71 56 l 71 708 l 207 708 l 207 256 b 351 96 207 160 249 96 b 543 274 468 96 543 167 "},"ú":{"ha":756,"x_min":0,"x_max":0,"o":"m 540 1007 l 407 815 l 299 815 l 381 1007 m 543 708 l 679 708 l 679 0 l 543 0 l 543 89 l 540 89 b 307 -19 503 35 429 -19 b 71 218 176 -19 71 56 l 71 708 l 207 708 l 207 256 b 351 96 207 160 249 96 b 543 274 468 96 543 167 "},"ŭ":{"ha":756,"x_min":0,"x_max":0,"o":"m 365 801 b 178 993 260 801 182 865 l 271 993 b 365 897 275 926 306 897 b 458 993 425 897 454 926 l 551 993 b 365 801 546 869 472 801 m 543 708 l 679 708 l 679 0 l 543 0 l 543 89 l 540 89 b 307 -19 503 35 429 -19 b 71 218 176 -19 71 56 l 71 708 l 207 708 l 207 256 b 351 96 207 160 249 96 b 543 274 468 96 543 167 "},"û":{"ha":756,"x_min":0,"x_max":0,"o":"m 363 939 l 288 815 l 158 815 l 290 1007 l 438 1007 l 569 815 l 439 815 l 365 939 m 543 708 l 679 708 l 679 0 l 543 0 l 543 89 l 540 89 b 307 -19 503 35 429 -19 b 71 218 176 -19 71 56 l 71 708 l 207 708 l 207 256 b 351 96 207 160 249 96 b 543 274 468 96 543 167 "},"ü":{"ha":756,"x_min":0,"x_max":0,"o":"m 324 982 l 324 835 l 169 835 l 169 982 m 557 982 l 557 835 l 403 835 l 403 982 m 543 708 l 679 708 l 679 0 l 543 0 l 543 89 l 540 89 b 307 -19 503 35 429 -19 b 71 218 176 -19 71 56 l 71 708 l 207 708 l 207 256 b 351 96 207 160 249 96 b 543 274 468 96 543 167 "},"ù":{"ha":756,"x_min":0,"x_max":0,"o":"m 413 815 l 306 815 l 189 1007 l 342 1007 m 543 708 l 679 708 l 679 0 l 543 0 l 543 89 l 540 89 b 307 -19 503 35 429 -19 b 71 218 176 -19 71 56 l 71 708 l 207 708 l 207 256 b 351 96 207 160 249 96 b 543 274 468 96 543 167 "},"ű":{"ha":756,"x_min":0,"x_max":0,"o":"m 435 1007 l 304 815 l 199 815 l 283 1007 m 513 815 l 407 815 l 497 1007 l 649 1007 m 543 708 l 679 708 l 679 0 l 543 0 l 543 89 l 540 89 b 307 -19 503 35 429 -19 b 71 218 176 -19 71 56 l 71 708 l 207 708 l 207 256 b 351 96 207 160 249 96 b 543 274 468 96 543 167 "},"ū":{"ha":756,"x_min":0,"x_max":0,"o":"m 547 942 l 547 835 l 181 835 l 181 942 m 543 708 l 679 708 l 679 0 l 543 0 l 543 89 l 540 89 b 307 -19 503 35 429 -19 b 71 218 176 -19 71 56 l 71 708 l 207 708 l 207 256 b 351 96 207 160 249 96 b 543 274 468 96 543 167 "},"ų":{"ha":756,"x_min":0,"x_max":0,"o":"m 650 0 b 564 -111 596 -43 564 -82 b 614 -151 564 -137 586 -151 b 679 -139 639 -151 660 -146 l 679 -232 b 583 -246 651 -240 617 -246 b 450 -140 496 -246 450 -204 b 554 0 450 -75 506 -24 l 543 0 l 543 89 l 540 89 b 307 -19 503 35 429 -19 b 71 218 176 -19 71 56 l 71 708 l 207 708 l 207 256 b 351 96 207 160 249 96 b 543 274 468 96 543 167 l 543 708 l 679 708 l 679 0 "},"ů":{"ha":756,"x_min":0,"x_max":0,"o":"m 363 771 b 235 899 290 771 235 822 b 363 1026 235 975 290 1026 b 492 899 438 1026 492 975 b 363 771 492 822 438 771 m 363 965 b 300 899 326 965 300 938 b 363 832 300 858 326 832 b 428 899 401 832 428 858 b 363 965 428 938 401 965 m 543 708 l 679 708 l 679 0 l 543 0 l 543 89 l 540 89 b 307 -19 503 35 429 -19 b 71 218 176 -19 71 56 l 71 708 l 207 708 l 207 256 b 351 96 207 160 249 96 b 543 274 468 96 543 167 "},"ũ":{"ha":756,"x_min":0,"x_max":0,"o":"m 285 872 b 249 824 253 872 249 842 l 157 824 b 264 971 157 928 207 971 b 439 919 335 971 397 919 b 474 968 469 919 474 947 l 565 968 b 458 821 565 861 515 821 b 285 872 389 821 325 872 m 543 708 l 679 708 l 679 0 l 543 0 l 543 89 l 540 89 b 307 -19 503 35 429 -19 b 71 218 176 -19 71 56 l 71 708 l 207 708 l 207 256 b 351 96 207 160 249 96 b 543 274 468 96 543 167 "},"v":{"ha":678,"x_min":0,"x_max":0,"o":"m 263 0 l 10 708 l 156 708 l 342 140 l 343 140 l 526 708 l 668 708 l 415 0 "},"w":{"ha":1053,"x_min":0,"x_max":0,"o":"m 232 0 l 13 708 l 160 708 l 310 160 l 313 160 l 460 708 l 597 708 l 744 160 l 747 160 l 899 708 l 1040 708 l 821 0 l 681 0 l 528 546 l 525 546 l 372 0 "},"ẃ":{"ha":1053,"x_min":0,"x_max":0,"o":"m 461 815 l 543 1007 l 703 1007 l 569 815 m 232 0 l 13 708 l 160 708 l 310 160 l 313 160 l 460 708 l 597 708 l 744 160 l 747 160 l 899 708 l 1040 708 l 821 0 l 681 0 l 528 546 l 525 546 l 372 0 "},"ŵ":{"ha":1053,"x_min":0,"x_max":0,"o":"m 322 815 l 454 1007 l 601 1007 l 733 815 l 603 815 l 529 939 l 526 939 l 451 815 m 232 0 l 13 708 l 160 708 l 310 160 l 313 160 l 460 708 l 597 708 l 744 160 l 747 160 l 899 708 l 1040 708 l 821 0 l 681 0 l 528 546 l 525 546 l 372 0 "},"ẅ":{"ha":1053,"x_min":0,"x_max":0,"o":"m 333 835 l 333 982 l 488 982 l 488 835 m 567 835 l 567 982 l 721 982 l 721 835 m 232 0 l 13 708 l 160 708 l 310 160 l 313 160 l 460 708 l 597 708 l 744 160 l 747 160 l 899 708 l 1040 708 l 821 0 l 681 0 l 528 546 l 525 546 l 372 0 "},"ẁ":{"ha":1053,"x_min":0,"x_max":0,"o":"m 469 815 l 353 1007 l 506 1007 l 576 815 m 232 0 l 13 708 l 160 708 l 310 160 l 313 160 l 460 708 l 597 708 l 744 160 l 747 160 l 899 708 l 1040 708 l 821 0 l 681 0 l 528 546 l 525 546 l 372 0 "},"x":{"ha":676,"x_min":0,"x_max":0,"o":"m -11 0 l 256 363 l 13 708 l 168 708 l 338 456 l 340 456 l 507 708 l 663 708 l 419 363 l 689 0 l 529 0 l 338 271 l 335 271 l 147 0 "},"y":{"ha":701,"x_min":0,"x_max":0,"o":"m 168 -249 b 81 -239 138 -249 117 -246 l 81 -128 b 139 -132 104 -131 117 -132 b 285 7 193 -132 257 -104 l -1 708 l 147 708 l 354 167 l 357 167 l 551 708 l 694 708 l 414 -17 b 168 -249 346 -192 278 -249 "},"ý":{"ha":701,"x_min":0,"x_max":0,"o":"m 282 815 l 364 1007 l 524 1007 l 390 815 m 168 -249 b 81 -239 138 -249 117 -246 l 81 -128 b 139 -132 104 -131 117 -132 b 285 7 193 -132 257 -104 l -1 708 l 147 708 l 354 167 l 357 167 l 551 708 l 694 708 l 414 -17 b 168 -249 346 -192 278 -249 "},"ŷ":{"ha":701,"x_min":0,"x_max":0,"o":"m 142 815 l 274 1007 l 421 1007 l 553 815 l 422 815 l 349 939 l 346 939 l 271 815 m 168 -249 b 81 -239 138 -249 117 -246 l 81 -128 b 139 -132 104 -131 117 -132 b 285 7 193 -132 257 -104 l -1 708 l 147 708 l 354 167 l 357 167 l 551 708 l 694 708 l 414 -17 b 168 -249 346 -192 278 -249 "},"ÿ":{"ha":701,"x_min":0,"x_max":0,"o":"m 153 835 l 153 982 l 307 982 l 307 835 m 386 835 l 386 982 l 540 982 l 540 835 m 168 -249 b 81 -239 138 -249 117 -246 l 81 -128 b 139 -132 104 -131 117 -132 b 285 7 193 -132 257 -104 l -1 708 l 147 708 l 354 167 l 357 167 l 551 708 l 694 708 l 414 -17 b 168 -249 346 -192 278 -249 "},"ỳ":{"ha":701,"x_min":0,"x_max":0,"o":"m 289 815 l 172 1007 l 325 1007 l 396 815 m 168 -249 b 81 -239 138 -249 117 -246 l 81 -128 b 139 -132 104 -131 117 -132 b 285 7 193 -132 257 -104 l -1 708 l 147 708 l 354 167 l 357 167 l 551 708 l 694 708 l 414 -17 b 168 -249 346 -192 278 -249 "},"z":{"ha":642,"x_min":0,"x_max":0,"o":"m 26 0 l 26 101 l 414 593 l 414 596 l 51 596 l 51 708 l 599 708 l 599 621 l 201 115 l 201 113 l 614 113 l 614 0 "},"ź":{"ha":642,"x_min":0,"x_max":0,"o":"m 254 815 l 336 1007 l 496 1007 l 363 815 m 26 0 l 26 101 l 414 593 l 414 596 l 51 596 l 51 708 l 599 708 l 599 621 l 201 115 l 201 113 l 614 113 l 614 0 "},"ž":{"ha":642,"x_min":0,"x_max":0,"o":"m 246 815 l 114 1007 l 243 1007 l 318 883 l 321 883 l 394 1007 l 525 1007 l 393 815 m 26 0 l 26 101 l 414 593 l 414 596 l 51 596 l 51 708 l 599 708 l 599 621 l 201 115 l 201 113 l 614 113 l 614 0 "},"ż":{"ha":642,"x_min":0,"x_max":0,"o":"m 243 835 l 243 982 l 397 982 l 397 835 m 26 0 l 26 101 l 414 593 l 414 596 l 51 596 l 51 708 l 599 708 l 599 621 l 201 115 l 201 113 l 614 113 l 614 0 "},"ﬁ":{"ha":694,"x_min":0,"x_max":0,"o":"m 126 794 b 310 1003 126 958 194 1003 b 396 994 336 1003 357 1000 l 396 885 b 338 889 368 888 357 889 b 264 797 281 889 264 872 l 264 708 l 396 708 l 396 596 l 264 596 l 264 0 l 126 0 l 126 596 l 29 596 l 29 708 l 126 708 m 472 982 l 626 982 l 626 835 l 472 835 m 482 0 l 482 708 l 618 708 l 618 0 "},"ﬂ":{"ha":694,"x_min":0,"x_max":0,"o":"m 126 794 b 310 1003 126 958 194 1003 b 396 994 336 1003 357 1000 l 396 885 b 338 889 368 888 357 889 b 264 797 281 889 264 872 l 264 708 l 396 708 l 396 596 l 264 596 l 264 0 l 126 0 l 126 596 l 29 596 l 29 708 l 126 708 m 482 993 l 618 993 l 618 0 l 482 0 "},"ª":{"ha":614,"x_min":0,"x_max":0,"o":"m 219 415 b 42 579 111 415 42 479 b 267 757 42 694 139 733 b 406 843 344 772 406 782 b 307 910 406 879 381 910 b 190 808 225 910 194 874 l 65 808 b 314 1003 69 915 143 1003 b 526 803 439 1003 526 953 l 526 557 b 554 507 526 526 531 507 l 568 507 l 568 433 b 501 424 542 426 521 424 b 407 507 439 424 414 451 l 403 507 b 219 415 368 454 303 415 m 261 515 b 406 650 346 515 406 567 l 406 719 b 292 679 389 704 354 693 b 172 586 218 664 172 636 b 261 515 172 540 201 515 "},"º":{"ha":636,"x_min":0,"x_max":0,"o":"m 318 415 b 38 710 144 415 38 536 b 319 1003 38 882 144 1003 b 599 710 493 1003 599 882 b 318 415 599 538 493 415 m 318 518 b 471 710 424 518 471 600 b 318 900 471 818 422 900 b 165 710 213 900 165 818 b 318 518 165 600 213 518 "},"А":{"ha":917,"x_min":0,"x_max":0,"o":"m 6 0 l 375 993 l 540 993 l 913 0 l 746 0 l 664 239 l 249 239 l 167 0 m 294 368 l 621 368 l 458 851 l 456 851 "},"Б":{"ha":878,"x_min":0,"x_max":0,"o":"m 99 0 l 99 993 l 763 993 l 763 861 l 251 861 l 251 625 l 514 625 b 844 318 719 625 844 515 b 500 0 844 122 714 0 m 251 132 l 504 132 b 685 318 615 132 685 203 b 517 493 685 424 621 493 l 251 493 "},"В":{"ha":926,"x_min":0,"x_max":0,"o":"m 99 0 l 99 993 l 517 993 b 840 743 721 993 840 901 b 686 536 840 621 768 564 l 686 533 b 879 290 790 515 879 439 b 542 0 879 100 747 0 m 513 581 b 681 721 638 581 681 632 b 524 861 681 808 628 861 l 251 861 l 251 581 m 531 132 b 719 296 678 132 719 203 b 551 460 719 400 656 460 l 251 460 l 251 132 "},"Г":{"ha":692,"x_min":0,"x_max":0,"o":"m 99 0 l 99 993 l 671 993 l 671 861 l 251 861 l 251 0 "},"Ѓ":{"ha":692,"x_min":0,"x_max":0,"o":"m 328 1100 l 410 1292 l 569 1292 l 436 1100 m 99 0 l 99 993 l 671 993 l 671 861 l 251 861 l 251 0 "},"Ґ":{"ha":696,"x_min":0,"x_max":0,"o":"m 99 0 l 99 993 l 533 993 l 533 1131 l 675 1131 l 675 861 l 251 861 l 251 0 "},"Ғ":{"ha":772,"x_min":0,"x_max":0,"o":"m 749 861 l 329 861 l 329 540 l 613 540 l 613 426 l 329 426 l 329 0 l 176 0 l 176 426 l 11 426 l 11 540 l 176 540 l 176 993 l 749 993 "},"Д":{"ha":968,"x_min":0,"x_max":0,"o":"m 6 -181 l 6 131 l 78 131 b 188 381 157 131 179 201 l 215 993 l 817 993 l 817 131 l 932 131 l 932 -181 l 790 -181 l 790 -1 l 149 -1 l 149 -181 m 278 131 l 664 131 l 664 861 l 363 861 l 335 324 b 278 133 331 226 310 172 "},"Е":{"ha":860,"x_min":0,"x_max":0,"o":"m 99 0 l 99 993 l 801 993 l 801 861 l 251 861 l 251 579 l 733 579 l 733 447 l 251 447 l 251 132 l 815 132 l 815 0 "},"Ѐ":{"ha":860,"x_min":0,"x_max":0,"o":"m 394 1100 l 278 1292 l 431 1292 l 501 1100 m 99 0 l 99 993 l 801 993 l 801 861 l 251 861 l 251 579 l 733 579 l 733 447 l 251 447 l 251 132 l 815 132 l 815 0 "},"Ё":{"ha":860,"x_min":0,"x_max":0,"o":"m 258 1119 l 258 1267 l 413 1267 l 413 1119 m 492 1119 l 492 1267 l 646 1267 l 646 1119 m 99 0 l 99 993 l 801 993 l 801 861 l 251 861 l 251 579 l 733 579 l 733 447 l 251 447 l 251 132 l 815 132 l 815 0 "},"Ж":{"ha":1311,"x_min":0,"x_max":0,"o":"m 956 494 l 1321 0 l 1142 0 l 836 417 l 733 417 l 733 0 l 579 0 l 579 417 l 476 417 l 171 0 l -10 0 l 356 494 l 17 993 l 178 993 l 478 550 l 579 550 l 579 993 l 733 993 l 733 550 l 838 550 l 1138 993 l 1294 993 "},"З":{"ha":829,"x_min":0,"x_max":0,"o":"m 419 -21 b 36 276 171 -21 36 82 l 196 276 b 414 113 199 163 275 113 b 619 283 536 113 619 179 b 435 438 619 381 549 438 l 317 438 l 317 561 l 429 561 b 589 722 536 561 589 626 b 401 876 589 814 511 876 b 207 721 278 876 207 813 l 47 721 b 401 1008 50 893 181 1008 b 749 732 607 1008 749 903 b 590 503 749 629 690 543 l 590 500 b 779 278 700 469 779 392 b 419 -21 779 104 631 -21 "},"И":{"ha":1022,"x_min":0,"x_max":0,"o":"m 99 0 l 99 993 l 251 993 l 251 233 l 254 233 l 769 993 l 924 993 l 924 0 l 769 0 l 769 758 l 767 758 l 251 0 "},"Й":{"ha":1022,"x_min":0,"x_max":0,"o":"m 511 1086 b 324 1278 406 1086 328 1150 l 417 1278 b 511 1182 421 1211 451 1182 b 604 1278 571 1182 600 1211 l 697 1278 b 511 1086 692 1154 618 1086 m 99 0 l 99 993 l 251 993 l 251 233 l 254 233 l 769 993 l 924 993 l 924 0 l 769 0 l 769 758 l 767 758 l 251 0 "},"Ѝ":{"ha":1022,"x_min":0,"x_max":0,"o":"m 451 1100 l 335 1292 l 488 1292 l 558 1100 m 99 0 l 99 993 l 251 993 l 251 233 l 254 233 l 769 993 l 924 993 l 924 0 l 769 0 l 769 758 l 767 758 l 251 0 "},"К":{"ha":899,"x_min":0,"x_max":0,"o":"m 489 494 l 921 0 l 728 0 l 365 417 l 251 417 l 251 0 l 99 0 l 99 993 l 251 993 l 251 550 l 368 550 l 725 993 l 892 993 "},"Ќ":{"ha":899,"x_min":0,"x_max":0,"o":"m 639 1292 l 506 1100 l 397 1100 l 479 1292 m 489 494 l 921 0 l 728 0 l 365 417 l 251 417 l 251 0 l 99 0 l 99 993 l 251 993 l 251 550 l 368 550 l 725 993 l 892 993 "},"Л":{"ha":929,"x_min":0,"x_max":0,"o":"m 104 -21 b 3 -4 71 -21 24 -15 l 3 128 b 81 114 22 121 53 114 b 193 263 150 114 189 146 l 224 993 l 831 993 l 831 0 l 678 0 l 678 861 l 369 861 l 340 265 b 104 -21 331 44 240 -21 "},"М":{"ha":1176,"x_min":0,"x_max":0,"o":"m 99 0 l 99 993 l 300 993 l 586 213 l 589 213 l 876 993 l 1078 993 l 1078 0 l 928 0 l 928 771 l 925 771 l 651 0 l 525 0 l 251 771 l 249 771 l 249 0 "},"Н":{"ha":990,"x_min":0,"x_max":0,"o":"m 99 0 l 99 993 l 251 993 l 251 578 l 739 578 l 739 993 l 893 993 l 893 0 l 739 0 l 739 446 l 251 446 l 251 0 "},"О":{"ha":1075,"x_min":0,"x_max":0,"o":"m 538 -19 b 50 497 240 -19 50 199 b 538 1013 50 796 240 1013 b 1025 497 835 1013 1025 796 b 538 -19 1025 199 835 -19 m 538 113 b 865 497 772 113 865 293 b 538 881 865 701 772 881 b 210 497 303 881 210 701 b 538 113 210 293 303 113 "},"П":{"ha":967,"x_min":0,"x_max":0,"o":"m 99 0 l 99 993 l 868 993 l 868 0 l 714 0 l 714 861 l 251 861 l 251 0 "},"Р":{"ha":867,"x_min":0,"x_max":0,"o":"m 99 0 l 99 993 l 513 993 b 838 697 700 993 838 906 b 513 403 838 489 700 403 l 251 403 l 251 0 m 506 535 b 679 697 621 535 679 586 b 506 861 679 810 621 861 l 251 861 l 251 535 "},"С":{"ha":981,"x_min":0,"x_max":0,"o":"m 514 -19 b 50 496 232 -19 50 197 b 515 1013 50 796 233 1013 b 942 656 764 1013 918 854 l 782 656 b 513 881 764 753 703 881 b 210 497 293 881 210 694 b 513 113 210 299 293 113 b 782 361 704 113 772 240 l 942 361 b 514 -19 919 140 764 -19 "},"Т":{"ha":838,"x_min":0,"x_max":0,"o":"m 342 0 l 342 861 l 21 861 l 21 993 l 817 993 l 817 861 l 496 861 l 496 0 "},"У":{"ha":843,"x_min":0,"x_max":0,"o":"m 197 0 l 336 290 l 14 993 l 174 993 l 415 454 l 418 454 l 676 993 l 829 993 l 350 0 "},"Ў":{"ha":843,"x_min":0,"x_max":0,"o":"m 431 1086 b 243 1278 325 1086 247 1150 l 336 1278 b 431 1182 340 1211 371 1182 b 524 1278 490 1182 519 1211 l 617 1278 b 431 1086 611 1154 538 1086 m 197 0 l 336 290 l 14 993 l 174 993 l 415 454 l 418 454 l 676 993 l 829 993 l 350 0 "},"Ф":{"ha":1036,"x_min":0,"x_max":0,"o":"m 992 490 b 590 115 992 278 839 138 l 590 0 l 440 0 l 440 117 b 43 490 194 140 43 279 b 440 863 43 700 194 839 l 440 993 l 590 993 l 590 864 b 992 490 839 842 992 701 m 590 235 b 839 490 744 257 839 351 b 590 744 839 629 744 724 m 197 490 b 440 235 197 353 289 258 l 440 744 b 197 490 289 721 197 628 "},"Х":{"ha":835,"x_min":0,"x_max":0,"o":"m -6 0 l 331 507 l 18 993 l 188 993 l 418 618 l 419 618 l 651 993 l 819 993 l 507 510 l 836 0 l 658 0 l 415 396 l 414 396 l 174 0 "},"Ч":{"ha":854,"x_min":0,"x_max":0,"o":"m 603 0 l 603 431 l 600 431 b 351 308 546 364 454 308 b 61 617 179 308 61 421 l 61 993 l 214 993 l 214 626 b 397 442 214 507 282 442 b 603 550 493 442 542 481 l 603 993 l 756 993 l 756 0 "},"Ц":{"ha":1008,"x_min":0,"x_max":0,"o":"m 829 -181 l 829 -1 l 99 -1 l 99 992 l 251 992 l 251 132 l 704 132 l 704 992 l 857 992 l 857 132 l 972 132 l 972 -181 "},"Ш":{"ha":1228,"x_min":0,"x_max":0,"o":"m 99 -1 l 99 992 l 251 992 l 251 132 l 538 132 l 538 992 l 690 992 l 690 132 l 975 132 l 975 992 l 1129 992 l 1129 -1 "},"Щ":{"ha":1278,"x_min":0,"x_max":0,"o":"m 1100 -181 l 1100 -1 l 99 -1 l 99 992 l 251 992 l 251 132 l 538 132 l 538 992 l 690 992 l 690 132 l 975 132 l 975 992 l 1129 992 l 1129 132 l 1242 132 l 1242 -181 "},"Џ":{"ha":956,"x_min":0,"x_max":0,"o":"m 407 -181 l 407 -1 l 99 -1 l 99 992 l 251 992 l 251 132 l 704 132 l 704 992 l 857 992 l 857 -1 l 550 -1 l 550 -181 "},"Ь":{"ha":854,"x_min":0,"x_max":0,"o":"m 99 0 l 99 993 l 251 993 l 251 635 l 496 635 b 826 322 699 635 826 522 b 482 0 826 124 693 0 m 251 132 l 485 132 b 667 322 597 132 667 206 b 497 503 667 432 601 503 l 251 503 "},"Ы":{"ha":1136,"x_min":0,"x_max":0,"o":"m 99 0 l 99 993 l 251 993 l 251 635 l 446 635 b 776 322 649 635 776 522 b 432 0 776 124 643 0 m 885 0 l 885 993 l 1038 993 l 1038 0 m 251 132 l 436 132 b 618 322 547 132 618 206 b 449 503 618 432 553 503 l 251 503 "},"Ъ":{"ha":944,"x_min":0,"x_max":0,"o":"m 188 0 l 188 861 l 15 861 l 15 993 l 342 993 l 342 635 l 585 635 b 915 322 788 635 915 522 b 571 0 915 124 782 0 m 342 132 l 575 132 b 756 322 686 132 756 206 b 588 503 756 432 692 503 l 342 503 "},"Љ":{"ha":1297,"x_min":0,"x_max":0,"o":"m 104 -21 b 3 -4 71 -21 24 -15 l 3 128 b 81 114 22 121 53 114 b 193 263 150 114 189 146 l 224 993 l 772 993 l 772 635 l 939 635 b 1269 322 1142 635 1269 522 b 925 0 1269 124 1136 0 l 618 0 l 618 861 l 369 861 l 340 265 b 104 -21 331 44 240 -21 m 772 132 l 929 132 b 1110 322 1040 132 1110 206 b 942 503 1110 432 1044 503 l 772 503 "},"Њ":{"ha":1340,"x_min":0,"x_max":0,"o":"m 99 0 l 99 993 l 251 993 l 251 604 l 654 604 l 654 993 l 808 993 l 808 604 l 981 604 b 1311 306 1183 604 1311 496 b 967 0 1311 107 1178 0 l 654 0 l 654 472 l 251 472 l 251 0 m 808 132 l 971 132 b 1151 306 1082 132 1151 189 b 983 472 1151 415 1088 472 l 808 472 "},"Ѕ":{"ha":878,"x_min":0,"x_max":0,"o":"m 472 -19 b 33 335 221 -19 44 111 l 192 335 b 468 111 203 201 282 111 b 676 271 628 111 676 181 b 399 461 676 397 579 415 b 72 742 243 503 72 553 b 419 1013 72 914 206 1013 b 808 697 646 1013 793 897 l 650 697 b 421 882 633 817 565 882 b 232 750 296 882 232 836 b 464 583 232 639 336 615 b 836 279 656 535 836 489 b 472 -19 836 108 721 -19 "},"Є":{"ha":967,"x_min":0,"x_max":0,"o":"m 511 113 b 768 324 656 113 760 196 l 926 324 b 514 -19 918 124 758 -19 b 53 501 238 -19 53 169 b 522 1013 53 825 244 1013 b 926 697 747 1013 901 883 l 768 697 b 522 881 746 807 663 881 b 214 563 356 881 233 767 l 576 563 l 576 439 l 214 439 b 511 113 232 228 343 113 "},"Э":{"ha":965,"x_min":0,"x_max":0,"o":"m 449 1013 b 914 501 726 1013 914 825 b 456 -19 914 169 732 -19 b 39 324 211 -19 47 124 l 197 324 b 456 113 207 196 311 113 b 751 439 622 113 733 229 l 390 439 l 390 563 l 751 563 b 447 881 732 767 614 881 b 197 697 304 881 219 807 l 39 697 b 449 1013 64 883 221 1013 "},"І":{"ha":350,"x_min":0,"x_max":0,"o":"m 99 0 l 99 993 l 251 993 l 251 0 "},"Ї":{"ha":350,"x_min":0,"x_max":0,"o":"m -19 1119 l -19 1267 l 135 1267 l 135 1119 m 214 1119 l 214 1267 l 368 1267 l 368 1119 m 99 0 l 99 993 l 251 993 l 251 0 "},"Ј":{"ha":719,"x_min":0,"x_max":0,"o":"m 325 -19 b 25 310 90 -19 25 142 l 25 350 l 172 350 l 172 310 b 322 113 172 196 192 113 b 474 310 451 113 474 196 l 474 993 l 626 993 l 626 310 b 325 -19 626 142 560 -19 "},"Ћ":{"ha":1017,"x_min":0,"x_max":0,"o":"m 258 0 l 258 861 l 22 861 l 22 993 l 717 993 l 717 861 l 413 861 l 413 532 l 415 532 b 676 653 468 599 554 653 b 957 363 850 653 957 550 l 957 0 l 803 0 l 803 335 b 631 519 803 456 747 519 b 413 300 497 519 413 443 l 413 0 "},"Ю":{"ha":1331,"x_min":0,"x_max":0,"o":"m 844 1013 b 1276 497 1113 1013 1276 818 b 844 -19 1276 175 1113 -19 b 415 436 594 -19 436 150 l 251 436 l 251 0 l 99 0 l 99 993 l 251 993 l 251 568 l 417 568 b 844 1013 439 846 599 1013 m 844 113 b 1118 497 1013 113 1118 258 b 844 881 1118 736 1013 881 b 572 497 678 881 572 736 b 844 113 572 258 678 113 "},"Я":{"ha":907,"x_min":0,"x_max":0,"o":"m 39 0 l 39 8 b 260 468 92 50 36 425 l 260 471 b 72 707 146 497 72 581 b 418 993 72 886 201 993 l 808 993 l 808 0 l 654 0 l 654 400 l 419 400 b 206 0 176 400 244 58 m 654 529 l 654 861 l 429 861 b 228 701 286 861 228 804 b 438 529 228 588 301 529 "},"Ђ":{"ha":1018,"x_min":0,"x_max":0,"o":"m 765 -254 b 658 -242 721 -254 685 -250 l 658 -110 b 738 -122 683 -118 717 -122 b 803 -47 774 -122 803 -106 l 803 357 b 631 542 803 476 747 542 b 413 321 497 542 413 464 l 413 0 l 258 0 l 258 861 l 22 861 l 22 993 l 717 993 l 717 861 l 413 861 l 413 553 l 415 553 b 676 675 468 619 554 675 b 957 383 850 675 957 572 l 957 -62 b 765 -254 957 -194 876 -254 "},"Җ":{"ha":1311,"x_min":0,"x_max":0,"o":"m 1265 75 l 1340 75 l 1340 -181 l 1199 -181 l 1199 0 l 1142 0 l 836 417 l 733 417 l 733 0 l 579 0 l 579 417 l 476 417 l 171 0 l -10 0 l 356 494 l 17 993 l 178 993 l 478 550 l 579 550 l 579 993 l 733 993 l 733 550 l 838 550 l 1138 993 l 1294 993 l 956 494 "},"Қ":{"ha":899,"x_min":0,"x_max":0,"o":"m 856 75 l 942 75 l 942 -181 l 800 -181 l 800 0 l 728 0 l 365 417 l 251 417 l 251 0 l 99 0 l 99 993 l 251 993 l 251 550 l 368 550 l 725 993 l 892 993 l 489 494 "},"Ң":{"ha":990,"x_min":0,"x_max":0,"o":"m 893 75 l 951 75 l 951 -181 l 810 -181 l 810 0 l 739 0 l 739 446 l 251 446 l 251 0 l 99 0 l 99 993 l 251 993 l 251 578 l 739 578 l 739 993 l 893 993 "},"Ү":{"ha":885,"x_min":0,"x_max":0,"o":"m 365 0 l 365 397 l 10 993 l 175 993 l 442 518 l 444 518 l 711 993 l 875 993 l 519 397 l 519 0 "},"Ұ":{"ha":875,"x_min":0,"x_max":0,"o":"m 515 397 l 515 354 l 726 354 l 726 242 l 515 242 l 515 0 l 361 0 l 361 242 l 139 242 l 139 354 l 361 354 l 361 397 l 6 993 l 171 993 l 438 518 l 440 518 l 707 993 l 871 993 "},"Ҳ":{"ha":835,"x_min":0,"x_max":0,"o":"m 788 75 l 863 75 l 863 -181 l 721 -181 l 721 0 l 658 0 l 415 396 l 414 396 l 174 0 l -6 0 l 331 507 l 18 993 l 188 993 l 418 618 l 419 618 l 651 993 l 819 993 l 507 510 "},"Ҷ":{"ha":854,"x_min":0,"x_max":0,"o":"m 756 75 l 828 75 l 828 -181 l 686 -181 l 686 0 l 603 0 l 603 431 l 600 431 b 351 308 546 364 454 308 b 61 617 179 308 61 421 l 61 993 l 214 993 l 214 626 b 397 442 214 507 282 442 b 603 550 493 442 542 481 l 603 993 l 756 993 "},"Һ":{"ha":869,"x_min":0,"x_max":0,"o":"m 99 0 l 99 993 l 251 993 l 251 574 l 254 574 b 517 694 306 643 394 694 b 807 404 701 694 807 592 l 807 0 l 654 0 l 654 376 b 471 561 654 497 597 561 b 251 342 338 561 251 485 l 251 0 "},"Ә":{"ha":1017,"x_min":0,"x_max":0,"o":"m 517 1013 b 967 499 781 1013 967 792 b 504 -21 967 194 774 -21 b 50 453 236 -21 50 189 b 53 538 50 490 50 513 l 807 538 b 500 881 793 753 665 881 b 229 696 353 881 249 801 l 71 696 b 517 1013 104 890 294 1013 m 508 111 b 801 406 668 111 775 225 l 210 406 b 508 111 210 240 326 111 "},"Ӣ":{"ha":1022,"x_min":0,"x_max":0,"o":"m 326 1119 l 326 1226 l 693 1226 l 693 1119 m 99 0 l 99 993 l 251 993 l 251 233 l 254 233 l 769 993 l 924 993 l 924 0 l 769 0 l 769 758 l 767 758 l 251 0 "},"Ө":{"ha":1075,"x_min":0,"x_max":0,"o":"m 538 1013 b 1025 497 835 1013 1025 796 b 538 -19 1025 199 835 -19 b 50 497 240 -19 50 199 b 538 1013 50 796 240 1013 m 538 881 b 213 560 328 881 231 736 l 863 560 b 538 881 844 736 747 881 m 538 113 b 863 435 747 113 844 257 l 213 435 b 538 113 231 257 328 113 "},"Ӯ":{"ha":843,"x_min":0,"x_max":0,"o":"m 246 1119 l 246 1226 l 613 1226 l 613 1119 m 197 0 l 336 290 l 14 993 l 174 993 l 415 454 l 418 454 l 676 993 l 829 993 l 350 0 "},"а":{"ha":738,"x_min":0,"x_max":0,"o":"m 272 -19 b 40 183 131 -19 40 63 b 336 422 40 342 160 389 b 515 526 447 443 515 457 b 381 621 515 578 485 621 b 213 488 257 621 219 582 l 74 488 b 386 731 81 624 169 731 b 649 486 532 731 649 669 l 649 161 b 682 83 649 110 656 83 b 699 85 686 83 690 83 l 699 1 b 629 -7 675 -4 651 -7 b 517 100 561 -7 525 19 l 514 100 b 272 -19 468 26 388 -19 m 303 90 b 515 276 425 90 515 153 l 515 378 b 360 326 493 357 432 342 b 182 193 235 301 182 267 b 303 90 182 126 218 90 "},"б":{"ha":778,"x_min":0,"x_max":0,"o":"m 403 -21 b 53 417 190 -21 53 124 b 342 914 53 667 122 876 l 481 938 b 588 994 568 954 588 976 l 721 994 b 556 831 721 890 646 849 l 361 794 b 172 567 250 775 189 688 l 175 567 b 444 731 213 656 315 731 b 738 361 626 731 738 586 b 403 -21 738 147 621 -21 m 403 92 b 596 361 532 92 596 215 b 403 617 596 507 532 617 b 206 354 271 617 206 500 b 403 92 206 208 271 92 "},"в":{"ha":700,"x_min":0,"x_max":0,"o":"m 76 0 l 76 708 l 400 708 b 629 525 546 708 629 633 b 499 372 629 447 574 389 l 499 369 b 663 204 590 357 663 299 b 417 0 663 74 568 0 m 213 411 l 394 411 b 490 508 454 411 490 456 b 394 596 490 565 454 596 l 213 596 m 213 113 l 404 113 b 521 210 482 113 521 147 b 417 310 521 274 478 310 l 213 310 "},"г":{"ha":571,"x_min":0,"x_max":0,"o":"m 76 0 l 76 708 l 556 708 l 556 596 l 213 596 l 213 0 "},"ѓ":{"ha":571,"x_min":0,"x_max":0,"o":"m 258 815 l 340 1007 l 500 1007 l 367 815 m 76 0 l 76 708 l 556 708 l 556 596 l 213 596 l 213 0 "},"ґ":{"ha":586,"x_min":0,"x_max":0,"o":"m 76 0 l 76 708 l 447 708 l 447 861 l 569 861 l 569 596 l 213 596 l 213 0 "},"ғ":{"ha":622,"x_min":0,"x_max":0,"o":"m 604 596 l 263 596 l 263 401 l 494 401 l 494 306 l 263 306 l 263 0 l 126 0 l 126 306 l 10 306 l 10 401 l 126 401 l 126 708 l 604 708 "},"д":{"ha":796,"x_min":0,"x_max":0,"o":"m 669 113 l 767 113 l 767 -181 l 643 -181 l 643 0 l 133 0 l 133 -181 l 10 -181 l 10 113 l 65 113 b 146 229 113 113 142 161 l 175 708 l 669 708 m 246 113 l 532 113 l 532 596 l 303 596 l 281 235 b 246 115 278 181 268 142 "},"е":{"ha":765,"x_min":0,"x_max":0,"o":"m 726 369 b 725 318 726 350 726 329 l 181 318 b 393 90 183 200 253 90 b 579 218 518 90 567 171 l 718 218 b 390 -21 681 82 576 -21 b 40 356 165 -21 40 139 b 390 731 40 578 174 731 b 726 369 606 731 726 589 m 585 425 b 386 619 585 536 507 619 b 181 425 272 619 189 542 "},"ѐ":{"ha":765,"x_min":0,"x_max":0,"o":"m 432 818 l 325 818 l 208 1010 l 361 1010 m 726 369 b 725 318 726 350 726 329 l 181 318 b 393 90 183 200 253 90 b 579 218 518 90 567 171 l 718 218 b 390 -21 681 82 576 -21 b 40 356 165 -21 40 139 b 390 731 40 578 174 731 b 726 369 606 731 726 589 m 585 425 b 386 619 585 536 507 619 b 181 425 272 619 189 542 "},"ё":{"ha":765,"x_min":0,"x_max":0,"o":"m 343 985 l 343 838 l 189 838 l 189 985 m 576 985 l 576 838 l 422 838 l 422 985 m 726 369 b 725 318 726 350 726 329 l 181 318 b 393 90 183 200 253 90 b 579 218 518 90 567 171 l 718 218 b 390 -21 681 82 576 -21 b 40 356 165 -21 40 139 b 390 731 40 578 174 731 b 726 369 606 731 726 589 m 585 425 b 386 619 585 536 507 619 b 181 425 272 619 189 542 "},"ж":{"ha":974,"x_min":0,"x_max":0,"o":"m 0 0 l 242 354 l 3 708 l 153 708 l 356 406 l 418 406 l 418 708 l 554 708 l 554 406 l 618 406 l 821 708 l 971 708 l 732 354 l 974 0 l 810 0 l 614 292 l 554 292 l 554 0 l 418 0 l 418 292 l 357 292 l 161 0 "},"з":{"ha":649,"x_min":0,"x_max":0,"o":"m 311 -21 b 31 208 142 -21 31 71 l 167 208 b 324 93 167 142 224 93 b 468 203 413 93 468 132 b 343 306 468 267 418 306 l 254 306 l 254 411 l 339 411 b 454 515 415 411 454 451 b 315 617 454 582 400 617 b 174 507 225 617 174 569 l 36 507 b 318 731 36 639 150 731 b 590 525 471 731 590 658 b 454 361 590 450 538 383 l 454 360 b 608 200 553 339 608 279 b 311 -21 608 60 492 -21 "},"и":{"ha":803,"x_min":0,"x_max":0,"o":"m 76 0 l 76 708 l 213 708 l 213 190 l 590 708 l 726 708 l 726 0 l 590 0 l 590 518 l 213 0 "},"й":{"ha":803,"x_min":0,"x_max":0,"o":"m 406 801 b 218 993 300 801 222 865 l 311 993 b 406 897 315 926 346 897 b 499 993 465 897 494 926 l 592 993 b 406 801 586 869 513 801 m 76 0 l 76 708 l 213 708 l 213 190 l 590 708 l 726 708 l 726 0 l 590 0 l 590 518 l 213 0 "},"ѝ":{"ha":803,"x_min":0,"x_max":0,"o":"m 346 815 l 229 1007 l 382 1007 l 453 815 m 76 0 l 76 708 l 213 708 l 213 190 l 590 708 l 726 708 l 726 0 l 590 0 l 590 518 l 213 0 "},"к":{"ha":685,"x_min":0,"x_max":0,"o":"m 419 356 l 700 0 l 529 0 l 300 292 l 213 292 l 213 0 l 76 0 l 76 708 l 213 708 l 213 406 l 304 406 l 528 708 l 688 708 "},"ќ":{"ha":685,"x_min":0,"x_max":0,"o":"m 538 1007 l 404 815 l 296 815 l 378 1007 m 419 356 l 700 0 l 529 0 l 300 292 l 213 292 l 213 0 l 76 0 l 76 708 l 213 708 l 213 406 l 304 406 l 528 708 l 688 708 "},"л":{"ha":739,"x_min":0,"x_max":0,"o":"m 90 -21 b 11 -8 61 -21 32 -17 l 11 101 b 67 92 29 96 46 92 b 128 200 108 92 124 124 l 156 708 l 664 708 l 664 0 l 526 0 l 526 596 l 282 596 l 260 186 b 90 -21 253 40 188 -21 "},"м":{"ha":943,"x_min":0,"x_max":0,"o":"m 76 0 l 76 708 l 239 708 l 474 178 l 476 178 l 714 708 l 868 708 l 868 0 l 731 0 l 731 475 l 728 475 l 521 1 l 415 1 l 215 475 l 213 475 l 213 0 "},"н":{"ha":775,"x_min":0,"x_max":0,"o":"m 563 708 l 699 708 l 699 0 l 563 0 l 563 304 l 213 304 l 213 0 l 76 0 l 76 708 l 213 708 l 213 417 l 563 417 "},"о":{"ha":786,"x_min":0,"x_max":0,"o":"m 393 -21 b 39 354 172 -21 39 132 b 394 731 39 575 172 731 b 747 356 614 731 747 576 b 393 -21 747 133 614 -21 m 394 92 b 606 354 539 92 606 207 b 394 617 606 503 539 617 b 181 354 247 617 181 503 b 394 92 181 207 247 92 "},"п":{"ha":761,"x_min":0,"x_max":0,"o":"m 76 0 l 76 708 l 685 708 l 685 0 l 549 0 l 549 596 l 213 596 l 213 0 "},"р":{"ha":792,"x_min":0,"x_max":0,"o":"m 433 729 b 751 354 614 729 751 588 b 433 -19 751 121 614 -19 b 215 88 322 -19 254 31 l 213 88 l 213 -246 l 76 -246 l 76 708 l 213 708 l 213 625 l 215 625 b 433 729 254 675 322 729 m 411 93 b 608 354 544 93 608 215 b 411 615 608 493 544 615 b 214 354 289 615 214 515 b 411 93 214 194 289 93 "},"с":{"ha":738,"x_min":0,"x_max":0,"o":"m 388 -21 b 39 354 176 -21 39 132 b 386 729 39 576 176 729 b 706 451 568 729 689 611 l 565 451 b 388 617 558 525 517 617 b 181 354 236 617 181 488 b 388 93 181 221 236 93 b 565 263 518 93 558 182 l 706 263 b 388 -21 696 100 569 -21 "},"т":{"ha":647,"x_min":0,"x_max":0,"o":"m 256 0 l 256 596 l 17 596 l 17 708 l 631 708 l 631 596 l 392 596 l 392 0 "},"у":{"ha":701,"x_min":0,"x_max":0,"o":"m 168 -249 b 81 -239 138 -249 117 -246 l 81 -128 b 139 -132 104 -131 117 -132 b 285 7 193 -132 257 -104 l -1 708 l 147 708 l 354 167 l 357 167 l 551 708 l 694 708 l 414 -17 b 168 -249 346 -192 278 -249 "},"ў":{"ha":701,"x_min":0,"x_max":0,"o":"m 347 801 b 160 993 242 801 164 865 l 253 993 b 347 897 257 926 288 897 b 440 993 407 897 436 926 l 533 993 b 347 801 528 869 454 801 m 168 -249 b 81 -239 138 -249 117 -246 l 81 -128 b 139 -132 104 -131 117 -132 b 285 7 193 -132 257 -104 l -1 708 l 147 708 l 354 167 l 357 167 l 551 708 l 694 708 l 414 -17 b 168 -249 346 -192 278 -249 "},"ф":{"ha":914,"x_min":0,"x_max":0,"o":"m 874 354 b 524 -17 874 144 736 7 l 524 -246 l 389 -246 l 389 -17 b 39 354 176 7 39 146 b 389 726 39 564 176 703 l 389 993 l 524 993 l 524 726 b 874 354 736 703 874 565 m 524 96 b 735 354 651 121 735 215 b 524 614 735 493 651 589 m 179 354 b 389 97 179 215 263 121 l 389 613 b 179 354 263 589 179 493 "},"х":{"ha":676,"x_min":0,"x_max":0,"o":"m -11 0 l 256 363 l 13 708 l 168 708 l 338 456 l 340 456 l 507 708 l 663 708 l 419 363 l 689 0 l 529 0 l 338 271 l 335 271 l 147 0 "},"ч":{"ha":701,"x_min":0,"x_max":0,"o":"m 489 0 l 489 308 l 486 308 b 281 208 447 256 374 208 b 44 460 160 208 44 272 l 44 708 l 182 708 l 182 500 b 326 324 182 371 235 324 b 489 422 411 324 460 378 l 489 708 l 625 708 l 625 0 "},"ц":{"ha":801,"x_min":0,"x_max":0,"o":"m 649 -181 l 649 0 l 76 0 l 76 708 l 213 708 l 213 113 l 538 113 l 538 708 l 674 708 l 674 113 l 771 113 l 771 -181 "},"ш":{"ha":1010,"x_min":0,"x_max":0,"o":"m 76 0 l 76 708 l 210 708 l 210 113 l 439 113 l 439 708 l 572 708 l 572 113 l 801 113 l 801 708 l 935 708 l 935 0 "},"щ":{"ha":1061,"x_min":0,"x_max":0,"o":"m 908 -181 l 908 0 l 76 0 l 76 708 l 210 708 l 210 113 l 439 113 l 439 708 l 572 708 l 572 113 l 801 113 l 801 708 l 935 708 l 935 113 l 1032 113 l 1032 -181 "},"џ":{"ha":750,"x_min":0,"x_max":0,"o":"m 315 -181 l 315 0 l 76 0 l 76 708 l 213 708 l 213 113 l 538 113 l 538 708 l 674 708 l 674 0 l 438 0 l 438 -181 "},"ь":{"ha":643,"x_min":0,"x_max":0,"o":"m 76 0 l 76 708 l 213 708 l 213 454 l 375 454 b 621 228 528 454 621 367 b 374 0 621 88 526 0 m 213 113 l 368 113 b 479 226 438 113 479 157 b 368 342 479 297 442 342 l 213 342 "},"ы":{"ha":869,"x_min":0,"x_max":0,"o":"m 76 0 l 76 708 l 213 708 l 213 454 l 336 454 b 582 228 490 454 582 367 b 335 0 582 88 488 0 m 657 0 l 657 708 l 793 708 l 793 0 m 213 113 l 329 113 b 442 226 399 113 442 157 b 329 342 442 297 403 342 l 213 342 "},"ъ":{"ha":715,"x_min":0,"x_max":0,"o":"m 149 0 l 149 596 l 13 596 l 13 708 l 285 708 l 285 454 l 447 454 b 693 228 600 454 693 367 b 446 0 693 88 599 0 m 285 113 l 440 113 b 551 226 510 113 551 157 b 440 342 551 297 514 342 l 285 342 "},"љ":{"ha":996,"x_min":0,"x_max":0,"o":"m 90 -21 b 11 -8 61 -21 32 -17 l 11 103 b 67 93 29 96 46 93 b 128 201 108 93 124 124 l 156 708 l 603 708 l 603 454 l 726 454 b 972 228 881 454 972 367 b 725 0 972 88 878 0 l 467 0 l 467 596 l 282 596 l 260 188 b 90 -21 253 40 188 -21 m 603 113 l 719 113 b 832 226 789 113 832 157 b 719 342 832 297 793 342 l 603 342 "},"њ":{"ha":1001,"x_min":0,"x_max":0,"o":"m 733 438 b 979 219 886 438 979 360 b 732 0 979 79 883 0 l 472 0 l 472 324 l 213 324 l 213 0 l 76 0 l 76 708 l 213 708 l 213 438 l 472 438 l 472 708 l 610 708 l 610 438 m 726 113 b 838 218 796 113 838 149 b 726 324 838 289 800 324 l 610 324 l 610 113 "},"ѕ":{"ha":678,"x_min":0,"x_max":0,"o":"m 356 -19 b 29 236 140 -19 33 92 l 167 236 b 354 90 172 154 222 90 b 506 194 474 90 506 143 b 319 313 506 283 411 293 b 54 525 196 342 54 378 b 324 729 54 647 153 729 b 621 503 518 729 611 625 l 483 503 b 326 619 474 557 444 619 b 196 531 235 619 196 583 b 375 428 196 457 275 450 b 647 201 506 397 647 360 b 356 -19 647 64 542 -19 "},"є":{"ha":718,"x_min":0,"x_max":0,"o":"m 375 93 b 547 226 478 93 536 151 l 688 226 b 376 -21 674 79 557 -21 b 40 354 154 -21 40 139 b 382 729 40 571 168 729 b 688 488 563 729 668 628 l 547 488 b 382 617 536 560 485 617 b 183 408 265 617 197 544 l 428 408 l 428 301 l 183 301 b 375 93 196 165 258 93 "},"э":{"ha":718,"x_min":0,"x_max":0,"o":"m 340 729 b 678 354 556 729 678 575 b 347 -21 678 138 568 -21 b 29 226 163 -21 43 79 l 171 226 b 350 93 182 151 244 93 b 535 301 464 93 524 164 l 290 301 l 290 408 l 535 408 b 342 617 522 546 457 617 b 171 488 239 617 182 560 l 29 488 b 340 729 50 628 161 729 "},"і":{"ha":289,"x_min":0,"x_max":0,"o":"m 68 835 l 68 982 l 222 982 l 222 835 m 76 0 l 76 708 l 213 708 l 213 0 "},"ї":{"ha":289,"x_min":0,"x_max":0,"o":"m -11 838 l -11 979 l 129 979 l 129 838 m 160 838 l 160 979 l 300 979 l 300 838 m 76 0 l 76 708 l 213 708 l 213 0 "},"ј":{"ha":289,"x_min":0,"x_max":0,"o":"m 68 835 l 68 982 l 222 982 l 222 835 m 43 -251 b -42 -243 14 -251 -7 -249 l -42 -131 b 13 -135 -19 -133 -8 -135 b 76 -32 56 -135 76 -111 l 76 708 l 213 708 l 213 -37 b 43 -251 213 -189 143 -251 "},"ћ":{"ha":756,"x_min":0,"x_max":0,"o":"m 449 729 b 685 492 579 729 685 654 l 685 0 l 549 0 l 549 454 b 404 613 549 549 507 613 b 213 435 288 613 213 542 l 213 0 l 76 0 l 76 811 l -7 811 l -7 904 l 76 904 l 76 993 l 213 993 l 213 904 l 431 904 l 431 811 l 213 811 l 213 619 l 215 619 b 449 729 253 674 326 729 "},"ю":{"ha":982,"x_min":0,"x_max":0,"o":"m 633 731 b 942 356 821 731 942 586 b 632 -21 942 124 821 -21 b 325 299 460 -21 343 100 l 213 299 l 213 0 l 76 0 l 76 708 l 213 708 l 213 411 l 325 411 b 633 731 343 610 461 731 m 632 92 b 800 354 736 92 800 189 b 632 617 800 521 736 617 b 464 354 528 617 464 521 b 632 92 464 189 528 92 "},"я":{"ha":685,"x_min":0,"x_max":0,"o":"m 26 0 l 26 6 b 194 315 67 46 28 286 l 194 317 b 51 492 114 335 51 397 b 307 708 51 615 138 708 l 608 708 l 608 0 l 472 0 l 472 258 l 329 258 b 176 0 163 258 204 36 m 472 368 l 472 596 l 317 596 b 193 490 226 596 193 543 b 319 368 193 432 225 368 "},"ђ":{"ha":756,"x_min":0,"x_max":0,"o":"m 508 -251 b 411 -240 472 -251 442 -247 l 411 -129 b 485 -135 433 -132 460 -135 b 549 -32 528 -135 549 -108 l 549 454 b 404 613 549 549 507 613 b 213 435 288 613 213 542 l 213 0 l 76 0 l 76 811 l -7 811 l -7 904 l 76 904 l 76 993 l 213 993 l 213 904 l 431 904 l 431 811 l 213 811 l 213 619 l 215 619 b 449 729 253 674 326 729 b 685 492 579 729 685 654 l 685 -37 b 508 -251 685 -189 610 -251 "},"җ":{"ha":974,"x_min":0,"x_max":0,"o":"m 908 96 l 996 96 l 996 -181 l 874 -181 l 874 0 l 810 0 l 614 292 l 554 292 l 554 0 l 418 0 l 418 292 l 357 292 l 161 0 l 0 0 l 242 354 l 3 708 l 153 708 l 356 406 l 418 406 l 418 708 l 554 708 l 554 406 l 618 406 l 821 708 l 971 708 l 732 354 "},"қ":{"ha":685,"x_min":0,"x_max":0,"o":"m 625 96 l 707 96 l 707 -181 l 585 -181 l 585 0 l 529 0 l 300 292 l 213 292 l 213 0 l 76 0 l 76 708 l 213 708 l 213 406 l 304 406 l 528 708 l 688 708 l 419 356 "},"ң":{"ha":775,"x_min":0,"x_max":0,"o":"m 699 96 l 757 96 l 757 -181 l 635 -181 l 635 0 l 563 0 l 563 304 l 213 304 l 213 0 l 76 0 l 76 708 l 213 708 l 213 417 l 563 417 l 563 708 l 699 708 "},"ү":{"ha":699,"x_min":0,"x_max":0,"o":"m 285 -246 l 285 54 l -1 708 l 149 708 l 353 213 l 356 213 l 556 708 l 697 708 l 421 54 l 421 -246 "},"ұ":{"ha":699,"x_min":0,"x_max":0,"o":"m 421 54 l 421 -11 l 599 -11 l 599 -107 l 421 -107 l 421 -246 l 285 -246 l 285 -107 l 107 -107 l 107 -11 l 285 -11 l 285 54 l -1 708 l 149 708 l 353 213 l 356 213 l 556 708 l 697 708 "},"ҳ":{"ha":676,"x_min":0,"x_max":0,"o":"m 618 96 l 706 96 l 706 -181 l 583 -181 l 583 0 l 529 0 l 338 271 l 335 271 l 147 0 l -11 0 l 256 363 l 13 708 l 168 708 l 338 456 l 340 456 l 507 708 l 663 708 l 419 363 "},"ҷ":{"ha":701,"x_min":0,"x_max":0,"o":"m 625 96 l 671 96 l 671 -181 l 549 -181 l 549 0 l 489 0 l 489 308 l 486 308 b 281 208 447 256 374 208 b 44 460 160 208 44 272 l 44 708 l 182 708 l 182 500 b 326 324 182 371 235 324 b 489 422 411 324 460 378 l 489 708 l 625 708 "},"һ":{"ha":756,"x_min":0,"x_max":0,"o":"m 449 729 b 685 492 579 729 685 654 l 685 0 l 549 0 l 549 454 b 404 613 549 549 507 613 b 213 435 288 613 213 542 l 213 0 l 76 0 l 76 993 l 213 993 l 213 619 l 215 619 b 449 729 253 674 326 729 "},"ә":{"ha":742,"x_min":0,"x_max":0,"o":"m 368 729 b 701 354 583 729 701 575 b 371 -21 701 139 579 -21 b 40 347 163 -21 40 135 b 44 404 40 364 42 381 l 557 404 b 367 617 544 544 469 617 b 189 503 265 617 203 572 l 49 503 b 368 729 78 647 203 729 m 371 93 b 557 297 479 93 543 164 l 183 297 b 371 93 183 193 235 93 "},"ӣ":{"ha":803,"x_min":0,"x_max":0,"o":"m 221 835 l 221 942 l 588 942 l 588 835 m 76 0 l 76 708 l 213 708 l 213 190 l 590 708 l 726 708 l 726 0 l 590 0 l 590 518 l 213 0 "},"ө":{"ha":786,"x_min":0,"x_max":0,"o":"m 394 731 b 747 356 614 731 747 576 b 393 -21 747 133 614 -21 b 39 354 172 -21 39 132 b 394 731 39 575 172 731 m 394 617 b 183 408 265 617 199 529 l 603 408 b 394 617 588 529 521 617 m 394 92 b 603 301 521 92 588 181 l 183 301 b 394 92 199 181 265 92 "},"ӯ":{"ha":701,"x_min":0,"x_max":0,"o":"m 164 835 l 164 942 l 531 942 l 531 835 m 168 -249 b 81 -239 138 -249 117 -246 l 81 -128 b 139 -132 104 -131 117 -132 b 285 7 193 -132 257 -104 l -1 708 l 147 708 l 354 167 l 357 167 l 551 708 l 694 708 l 414 -17 b 168 -249 346 -192 278 -249 "},"Δ":{"ha":899,"x_min":0,"x_max":0,"o":"m 536 993 l 869 131 l 869 0 l 29 0 l 29 131 l 360 993 m 443 851 l 182 131 l 714 131 l 454 851 "},"Ω":{"ha":1103,"x_min":0,"x_max":0,"o":"m 50 0 l 50 132 l 264 132 b 72 528 153 210 72 347 b 551 1013 72 803 264 1013 b 1029 528 839 1013 1029 803 b 839 132 1029 347 950 210 l 1053 132 l 1053 0 l 642 0 l 643 115 b 874 506 772 188 874 293 b 551 879 874 738 753 879 b 229 506 350 879 229 738 b 460 115 229 293 331 188 l 460 0 "},"μ":{"ha":761,"x_min":0,"x_max":0,"o":"m 549 708 l 685 708 l 685 0 l 549 0 l 549 89 l 546 89 b 338 -18 510 32 438 -18 b 213 19 290 -18 246 -6 l 213 -246 l 76 -246 l 76 708 l 213 708 l 213 256 b 360 96 213 160 253 96 b 549 274 472 96 549 167 "},"π":{"ha":785,"x_min":0,"x_max":0,"o":"m 743 596 l 638 596 l 638 196 b 700 104 638 121 653 104 b 740 110 715 104 725 106 l 740 0 b 654 -11 717 -7 682 -11 b 500 196 549 -11 500 36 l 500 596 l 268 596 l 268 0 l 132 0 l 132 596 l 19 596 l 19 708 l 743 708 "},"⓪":{"ha":1171,"x_min":0,"x_max":0,"o":"m 586 -19 b 65 496 268 -19 65 179 b 586 1013 65 814 268 1013 b 1104 496 904 1013 1104 814 b 586 -19 1104 179 904 -19 m 586 85 b 985 496 829 85 985 243 b 586 908 985 750 829 908 b 186 496 340 908 186 750 b 586 85 186 243 340 85 m 586 203 b 344 496 419 203 344 338 b 586 790 344 654 419 790 b 828 496 754 790 828 653 b 586 203 828 339 754 203 m 586 301 b 701 496 676 301 701 383 b 586 692 701 608 676 692 b 469 496 497 692 469 608 b 586 301 469 383 496 301 "},"①":{"ha":1171,"x_min":0,"x_max":0,"o":"m 586 -19 b 65 496 268 -19 65 179 b 586 1013 65 814 268 1013 b 1104 496 904 1013 1104 814 b 586 -19 1104 179 904 -19 m 586 85 b 985 496 829 85 985 243 b 586 908 985 750 829 908 b 186 496 340 908 186 750 b 586 85 186 243 340 85 m 542 604 b 422 585 518 588 471 585 l 422 681 b 564 779 510 682 561 714 l 667 779 l 667 215 l 542 215 "},"②":{"ha":1171,"x_min":0,"x_max":0,"o":"m 586 -19 b 65 496 268 -19 65 179 b 586 1013 65 814 268 1013 b 1104 496 904 1013 1104 814 b 586 -19 1104 179 904 -19 m 586 85 b 985 496 829 85 985 243 b 586 908 985 750 829 908 b 186 496 340 908 186 750 b 586 85 186 243 340 85 m 372 215 b 507 436 372 318 417 369 b 674 615 589 497 674 532 b 596 693 674 658 653 693 b 501 575 531 693 501 653 l 383 575 b 600 793 383 700 451 793 b 799 624 718 793 799 733 b 643 406 799 515 719 460 b 544 318 601 378 564 350 l 544 317 l 796 317 l 796 215 "},"③":{"ha":1171,"x_min":0,"x_max":0,"o":"m 586 -19 b 65 496 268 -19 65 179 b 586 1013 65 814 268 1013 b 1104 496 904 1013 1104 814 b 586 -19 1104 179 904 -19 m 586 85 b 985 496 829 85 985 243 b 586 908 985 750 829 908 b 186 496 340 908 186 750 b 586 85 186 243 340 85 m 597 201 b 360 411 444 201 360 278 l 479 411 b 589 301 479 342 508 301 b 685 379 657 301 685 331 b 581 461 685 440 642 461 l 543 461 l 543 550 l 578 550 b 668 619 633 550 668 571 b 589 692 668 665 640 692 b 494 606 525 692 494 660 l 376 606 b 596 792 376 713 454 792 b 793 635 701 792 793 735 b 710 513 793 576 761 538 l 710 511 b 811 374 782 489 811 440 b 597 201 811 263 724 201 "},"④":{"ha":1171,"x_min":0,"x_max":0,"o":"m 586 -19 b 65 496 268 -19 65 179 b 586 1013 65 814 268 1013 b 1104 496 904 1013 1104 814 b 586 -19 1104 179 904 -19 m 586 85 b 985 496 829 85 985 243 b 586 908 985 750 829 908 b 186 496 340 908 186 750 b 586 85 186 243 340 85 m 603 214 l 603 336 l 343 336 l 343 454 l 603 778 l 725 778 l 725 436 l 807 436 l 807 336 l 725 336 l 725 214 m 439 436 l 603 436 l 603 639 "},"⑤":{"ha":1171,"x_min":0,"x_max":0,"o":"m 586 -19 b 65 496 268 -19 65 179 b 586 1013 65 814 268 1013 b 1104 496 904 1013 1104 814 b 586 -19 1104 179 904 -19 m 586 85 b 985 496 829 85 985 243 b 586 908 985 750 829 908 b 186 496 340 908 186 750 b 586 85 186 243 340 85 m 594 201 b 361 386 449 201 365 276 l 488 386 b 588 301 493 338 526 301 b 685 407 647 301 685 339 b 589 508 685 472 651 508 b 492 465 553 508 518 494 l 375 465 l 438 778 l 783 778 l 783 678 l 526 678 l 500 556 l 500 554 b 625 597 532 581 572 597 b 811 406 735 597 811 522 b 594 201 811 274 717 201 "},"⑥":{"ha":1171,"x_min":0,"x_max":0,"o":"m 586 -19 b 65 496 268 -19 65 179 b 586 1013 65 814 268 1013 b 1104 496 904 1013 1104 814 b 586 -19 1104 179 904 -19 m 586 85 b 985 496 829 85 985 243 b 586 908 985 750 829 908 b 186 496 340 908 186 750 b 586 85 186 243 340 85 m 594 201 b 360 492 417 201 360 335 b 593 792 360 686 450 792 b 796 636 704 792 781 724 l 672 636 b 592 697 664 674 638 697 b 479 544 518 697 481 647 l 479 536 l 482 535 b 619 594 508 569 557 594 b 813 403 736 594 813 514 b 594 201 813 286 729 201 m 590 297 b 692 397 656 297 692 340 b 594 500 692 458 656 500 b 489 397 528 500 489 456 b 590 297 489 339 526 297 "},"⑦":{"ha":1171,"x_min":0,"x_max":0,"o":"m 586 -19 b 65 496 268 -19 65 179 b 586 1013 65 814 268 1013 b 1104 496 904 1013 1104 814 b 586 -19 1104 179 904 -19 m 586 85 b 985 496 829 85 985 243 b 586 908 985 750 829 908 b 186 496 340 908 186 750 b 586 85 186 243 340 85 m 468 199 b 658 661 468 382 561 576 l 658 663 l 382 663 l 382 763 l 790 763 l 790 671 b 597 199 665 568 597 376 "},"⑧":{"ha":1171,"x_min":0,"x_max":0,"o":"m 586 -19 b 65 496 268 -19 65 179 b 586 1013 65 814 268 1013 b 1104 496 904 1013 1104 814 b 586 -19 1104 179 904 -19 m 586 85 b 985 496 829 85 985 243 b 586 908 985 750 829 908 b 186 496 340 908 186 750 b 586 85 186 243 340 85 m 585 201 b 357 374 457 201 357 260 b 464 515 357 451 410 493 l 464 517 b 383 638 421 540 383 576 b 585 792 383 735 472 792 b 788 638 700 792 788 735 b 708 517 788 576 750 540 l 708 515 b 814 374 764 490 814 449 b 585 201 814 260 714 201 m 585 554 b 674 629 644 554 674 583 b 585 703 674 672 643 703 b 496 629 528 703 496 672 b 585 554 496 583 526 554 m 585 296 b 689 385 653 296 689 333 b 585 472 689 435 653 472 b 481 385 518 472 481 435 b 585 296 481 333 518 296 "},"⑨":{"ha":1171,"x_min":0,"x_max":0,"o":"m 586 -19 b 65 496 268 -19 65 179 b 586 1013 65 814 268 1013 b 1104 496 904 1013 1104 814 b 586 -19 1104 179 904 -19 m 586 85 b 985 496 829 85 985 243 b 586 908 985 750 829 908 b 186 496 340 908 186 750 b 586 85 186 243 340 85 m 578 201 b 375 357 468 201 390 269 l 501 357 b 581 296 508 326 528 296 b 690 444 663 296 690 364 l 690 454 l 689 454 b 551 397 661 422 614 397 b 360 589 438 397 360 478 b 576 792 360 707 443 792 b 813 499 754 792 813 657 b 578 201 813 307 721 201 m 579 493 b 685 596 646 493 685 538 b 581 696 685 654 647 696 b 481 594 515 696 481 654 b 579 493 481 535 518 493 "},"⁄":{"ha":290,"x_min":0,"x_max":0,"o":"m -243 0 l 386 993 l 529 993 l -100 0 "},"½":{"ha":1119,"x_min":0,"x_max":0,"o":"m 143 818 b 24 799 121 801 72 799 l 24 894 b 165 993 113 896 164 928 l 269 993 l 269 429 l 143 429 m 99 0 l 728 993 l 871 993 l 242 0 m 649 0 b 783 221 649 103 693 154 b 950 400 865 281 950 317 b 874 478 950 443 929 478 b 779 360 808 478 779 438 l 660 360 b 878 578 660 483 729 578 b 1075 408 996 578 1075 517 b 921 190 1075 300 997 244 b 822 101 879 161 840 135 l 822 100 l 1072 100 l 1072 0 "},"¼":{"ha":1051,"x_min":0,"x_max":0,"o":"m 142 818 b 22 799 118 801 71 799 l 22 894 b 164 993 110 896 163 928 l 267 993 l 267 429 l 142 429 m 94 0 l 724 993 l 867 993 l 238 0 m 826 0 l 826 122 l 567 122 l 567 240 l 826 564 l 949 564 l 949 222 l 1031 222 l 1031 122 l 949 122 l 949 0 m 664 222 l 826 222 l 826 425 "},"¾":{"ha":1263,"x_min":0,"x_max":0,"o":"m 278 418 b 40 628 125 418 40 494 l 161 628 b 271 518 161 558 189 518 b 365 596 339 518 365 547 b 263 678 365 657 324 678 l 225 678 l 225 765 l 260 765 b 349 836 315 765 349 786 b 269 908 349 881 322 908 b 176 822 207 908 176 875 l 57 822 b 276 1008 57 929 135 1008 b 474 851 382 1008 474 951 b 390 729 474 793 442 753 l 390 728 b 493 590 463 706 493 656 b 278 418 493 479 404 418 m 299 0 l 928 993 l 1071 993 l 442 0 m 1031 0 l 1031 122 l 771 122 l 771 240 l 1031 564 l 1153 564 l 1153 222 l 1235 222 l 1235 122 l 1153 122 l 1153 0 m 867 222 l 1031 222 l 1031 425 "},"⅛":{"ha":1093,"x_min":0,"x_max":0,"o":"m 144 818 b 25 799 121 801 72 799 l 25 894 b 165 993 113 896 164 928 l 269 993 l 269 429 l 144 429 m 99 0 l 728 993 l 871 993 l 242 0 m 833 -12 b 606 160 706 -12 606 46 b 713 301 606 238 658 279 l 713 303 b 632 424 669 326 632 363 b 833 578 632 521 721 578 b 1036 424 949 578 1036 521 b 957 303 1036 363 999 326 l 957 301 b 1063 160 1013 276 1063 235 b 833 -12 1063 46 963 -12 m 833 340 b 922 415 893 340 922 369 b 833 489 922 458 892 489 b 744 415 776 489 744 458 b 833 340 744 369 775 340 m 833 82 b 938 171 901 82 938 119 b 833 258 938 221 901 258 b 729 171 767 258 729 221 b 833 82 729 119 767 82 "},"⅜":{"ha":1290,"x_min":0,"x_max":0,"o":"m 278 418 b 40 628 125 418 40 494 l 161 628 b 271 518 161 558 189 518 b 365 596 339 518 365 547 b 263 678 365 657 324 678 l 225 678 l 225 765 l 260 765 b 349 836 315 765 349 786 b 269 908 349 881 322 908 b 176 822 207 908 176 875 l 57 822 b 276 1008 57 929 135 1008 b 474 851 382 1008 474 951 b 390 729 474 793 442 753 l 390 728 b 493 590 463 706 493 656 b 278 418 493 479 404 418 m 283 0 l 913 993 l 1056 993 l 426 0 m 1025 -12 b 797 160 897 -12 797 46 b 903 301 797 238 850 279 l 903 303 b 822 424 860 326 822 363 b 1025 578 822 521 913 578 b 1228 424 1139 578 1228 521 b 1147 303 1228 363 1189 326 l 1147 301 b 1253 160 1204 276 1253 235 b 1025 -12 1253 46 1153 -12 m 1025 340 b 1113 415 1083 340 1113 369 b 1025 489 1113 458 1082 489 b 936 415 967 489 936 458 b 1025 340 936 369 967 340 m 1025 82 b 1129 171 1092 82 1129 119 b 1025 258 1129 221 1092 258 b 921 171 957 258 921 221 b 1025 82 921 119 958 82 "},"⅝":{"ha":1264,"x_min":0,"x_max":0,"o":"m 264 417 b 32 601 118 417 35 492 l 157 601 b 258 517 163 553 196 517 b 354 622 317 517 354 554 b 258 724 354 688 321 724 b 163 681 222 724 188 710 l 44 681 l 107 993 l 453 993 l 453 893 l 196 893 l 171 771 l 171 769 b 294 813 201 796 242 813 b 481 621 406 813 481 738 b 264 417 481 489 386 417 m 261 0 l 890 993 l 1033 993 l 404 0 m 1003 -12 b 774 160 875 -12 774 46 b 881 301 774 238 826 279 l 881 303 b 800 424 838 326 800 363 b 1003 578 800 521 890 578 b 1206 424 1117 578 1206 521 b 1125 303 1206 363 1167 326 l 1125 301 b 1231 160 1182 276 1231 235 b 1003 -12 1231 46 1131 -12 m 1003 340 b 1090 415 1061 340 1090 369 b 1003 489 1090 458 1060 489 b 914 415 944 489 914 458 b 1003 340 914 369 944 340 m 1003 82 b 1107 171 1069 82 1107 119 b 1003 258 1107 221 1069 258 b 899 171 935 258 899 221 b 1003 82 899 119 936 82 "},"⅞":{"ha":1143,"x_min":0,"x_max":0,"o":"m 107 429 b 297 892 107 613 200 807 l 297 893 l 21 893 l 21 993 l 429 993 l 429 901 b 236 429 304 799 236 607 m 121 0 l 750 993 l 893 993 l 264 0 m 883 -12 b 656 160 757 -12 656 46 b 763 301 656 238 708 279 l 763 303 b 682 424 719 326 682 363 b 883 578 682 521 771 578 b 1086 424 999 578 1086 521 b 1007 303 1086 363 1049 326 l 1007 301 b 1113 160 1064 276 1113 235 b 883 -12 1113 46 1013 -12 m 883 340 b 972 415 943 340 972 369 b 883 489 972 458 942 489 b 794 415 826 489 794 458 b 883 340 794 369 826 340 m 883 82 b 989 171 951 82 989 119 b 883 258 989 221 951 258 b 779 171 817 258 779 221 b 883 82 779 119 818 82 "},"₀":{"ha":557,"x_min":0,"x_max":0,"o":"m 279 -150 b 38 143 113 -150 38 -15 b 279 438 38 301 113 438 b 519 143 446 438 519 300 b 279 -150 519 -14 446 -150 m 279 -51 b 394 143 368 -51 394 31 b 279 339 394 256 368 339 b 163 143 189 339 163 256 b 279 -51 163 31 189 -51 "},"₁":{"ha":326,"x_min":0,"x_max":0,"o":"m 138 250 b 18 231 114 233 67 231 l 18 326 b 160 425 106 328 158 360 l 263 425 l 263 -139 l 138 -139 "},"₂":{"ha":494,"x_min":0,"x_max":0,"o":"m 28 -139 b 163 82 28 -36 72 15 b 329 261 244 142 329 178 b 253 339 329 304 308 339 b 158 221 188 339 158 299 l 39 221 b 257 439 39 344 108 439 b 454 269 375 439 454 378 b 300 51 454 161 376 106 b 201 -37 258 22 219 -4 l 201 -39 l 451 -39 l 451 -139 "},"₃":{"ha":518,"x_min":0,"x_max":0,"o":"m 267 -151 b 29 58 114 -151 29 -75 l 150 58 b 258 -51 150 -11 178 -51 b 354 26 326 -51 354 -22 b 250 108 354 88 311 108 l 213 108 l 213 197 l 247 197 b 338 267 304 197 338 218 b 258 339 338 313 311 339 b 165 253 194 339 165 307 l 46 253 b 265 439 46 360 124 439 b 463 282 371 439 463 382 b 379 160 463 224 431 185 l 379 158 b 481 21 451 136 481 88 b 267 -151 481 -90 393 -151 "},"₄":{"ha":525,"x_min":0,"x_max":0,"o":"m 290 -139 l 290 -17 l 31 -17 l 31 101 l 290 425 l 414 425 l 414 83 l 494 83 l 494 -17 l 414 -17 l 414 -139 m 128 83 l 290 83 l 290 286 "},"₅":{"ha":515,"x_min":0,"x_max":0,"o":"m 263 -151 b 29 33 117 -151 33 -76 l 154 33 b 256 -51 160 -15 193 -51 b 351 54 314 -51 351 -14 b 256 156 351 119 318 156 b 160 113 219 156 185 142 l 43 113 l 106 425 l 451 425 l 451 325 l 193 325 l 168 203 l 168 201 b 292 244 199 228 239 244 b 478 53 403 244 478 169 b 263 -151 478 -79 383 -151 "},"₆":{"ha":528,"x_min":0,"x_max":0,"o":"m 275 -151 b 39 139 96 -151 39 -18 b 274 439 39 333 131 439 b 475 283 385 439 460 371 l 351 283 b 271 344 344 321 318 344 b 158 192 197 344 160 294 l 158 183 l 161 182 b 300 242 189 217 236 242 b 493 50 415 242 493 161 b 275 -151 493 -67 408 -151 m 269 -56 b 371 44 336 -56 371 -12 b 274 147 371 106 335 147 b 169 44 207 147 169 103 b 269 -56 169 -14 206 -56 "},"₇":{"ha":446,"x_min":0,"x_max":0,"o":"m 101 -139 b 292 324 101 44 194 239 l 292 325 l 14 325 l 14 425 l 424 425 l 424 333 b 231 -139 297 231 231 39 "},"₈":{"ha":526,"x_min":0,"x_max":0,"o":"m 263 -151 b 35 21 135 -151 35 -93 b 142 163 35 99 88 140 l 142 164 b 61 285 99 188 61 224 b 263 439 61 382 150 439 b 465 285 378 439 465 382 b 386 164 465 224 428 188 l 386 163 b 492 21 442 138 492 96 b 263 -151 492 -93 392 -151 m 263 201 b 351 276 322 201 351 231 b 263 350 351 319 321 350 b 174 276 206 350 174 319 b 263 201 174 231 204 201 m 263 -57 b 367 32 331 -57 367 -19 b 263 119 367 82 331 119 b 158 32 196 119 158 82 b 263 -57 158 -19 196 -57 "},"₉":{"ha":526,"x_min":0,"x_max":0,"o":"m 254 -151 b 51 4 144 -151 67 -83 l 176 4 b 257 -57 183 -26 204 -57 b 367 92 339 -57 367 11 l 367 101 l 365 101 b 228 44 338 69 289 44 b 36 236 114 44 36 125 b 253 439 36 354 119 439 b 489 146 431 439 489 304 b 254 -151 489 -46 397 -151 m 254 140 b 361 243 322 140 361 185 b 257 343 361 301 322 343 b 156 242 192 343 156 301 b 254 140 156 182 193 140 "},"⁰":{"ha":557,"x_min":0,"x_max":0,"o":"m 279 501 b 38 794 113 501 38 636 b 279 1089 38 953 113 1089 b 519 794 446 1089 519 951 b 279 501 519 638 446 501 m 279 600 b 394 794 368 600 394 682 b 279 990 394 907 368 990 b 163 794 189 990 163 907 b 279 600 163 682 189 600 "},"¹":{"ha":326,"x_min":0,"x_max":0,"o":"m 138 894 b 18 875 114 878 67 875 l 18 971 b 160 1069 106 972 158 1004 l 263 1069 l 263 506 l 138 506 "},"²":{"ha":494,"x_min":0,"x_max":0,"o":"m 28 504 b 163 725 28 607 72 658 b 329 904 244 785 329 821 b 253 982 329 947 308 982 b 158 864 188 982 158 942 l 39 864 b 257 1082 39 988 108 1082 b 454 913 375 1082 454 1021 b 300 694 454 804 376 749 b 201 606 258 665 219 639 l 201 604 l 451 604 l 451 504 "},"³":{"ha":518,"x_min":0,"x_max":0,"o":"m 267 501 b 29 711 114 501 29 578 l 150 711 b 258 601 150 642 178 601 b 354 679 326 601 354 631 b 250 761 354 740 311 761 l 213 761 l 213 850 l 247 850 b 338 919 304 850 338 871 b 258 992 338 965 311 992 b 165 906 194 992 165 960 l 46 906 b 265 1092 46 1013 124 1092 b 463 935 371 1092 463 1035 b 379 813 463 876 431 838 l 379 811 b 481 674 451 789 481 740 b 267 501 481 563 393 501 "},"⁴":{"ha":525,"x_min":0,"x_max":0,"o":"m 290 506 l 290 628 l 31 628 l 31 746 l 290 1069 l 414 1069 l 414 728 l 494 728 l 494 628 l 414 628 l 414 506 m 128 728 l 290 728 l 290 931 "},"⁵":{"ha":515,"x_min":0,"x_max":0,"o":"m 263 493 b 29 678 117 493 33 568 l 154 678 b 256 593 160 629 193 593 b 351 699 314 593 351 631 b 256 800 351 764 318 800 b 160 757 219 800 185 786 l 43 757 l 106 1069 l 451 1069 l 451 969 l 193 969 l 168 847 l 168 846 b 292 889 199 872 239 889 b 478 697 403 889 478 814 b 263 493 478 565 383 493 "},"⁶":{"ha":528,"x_min":0,"x_max":0,"o":"m 275 497 b 39 788 96 497 39 631 b 274 1088 39 982 131 1088 b 475 932 385 1088 460 1019 l 351 932 b 271 993 344 969 318 993 b 158 840 197 993 160 943 l 158 832 l 161 831 b 300 890 189 865 236 890 b 493 699 415 890 493 810 b 275 497 493 582 408 497 m 269 593 b 371 693 336 593 371 636 b 274 796 371 754 335 796 b 169 693 207 796 169 751 b 269 593 169 635 206 593 "},"⁷":{"ha":446,"x_min":0,"x_max":0,"o":"m 101 506 b 292 968 101 689 194 883 l 292 969 l 14 969 l 14 1069 l 424 1069 l 424 978 b 231 506 297 875 231 683 "},"⁸":{"ha":526,"x_min":0,"x_max":0,"o":"m 263 500 b 35 672 135 500 35 558 b 142 814 35 750 88 792 l 142 815 b 61 936 99 839 61 875 b 263 1090 61 1033 150 1090 b 465 936 378 1090 465 1033 b 386 815 465 875 428 839 l 386 814 b 492 672 442 789 492 747 b 263 500 492 558 392 500 m 263 853 b 351 928 322 853 351 882 b 263 1001 351 971 321 1001 b 174 928 206 1001 174 971 b 263 853 174 882 204 853 m 263 594 b 367 683 331 594 367 632 b 263 771 367 733 331 771 b 158 683 196 771 158 733 b 263 594 158 632 196 594 "},"⁹":{"ha":526,"x_min":0,"x_max":0,"o":"m 254 501 b 51 657 144 501 67 569 l 176 657 b 257 596 183 626 204 596 b 367 744 339 596 367 664 l 367 754 l 365 754 b 228 697 338 722 289 697 b 36 889 114 697 36 778 b 253 1092 36 1007 119 1092 b 489 799 431 1092 489 957 b 254 501 489 607 397 501 m 254 793 b 361 896 322 793 361 838 b 257 996 361 954 322 996 b 156 894 192 996 156 954 b 254 793 156 835 193 793 "},"﻿":{"ha":0,"x_min":0,"x_max":0,"o":""}," ":{"ha":1389,"x_min":0,"x_max":0,"o":""}," ":{"ha":1389,"x_min":0,"x_max":0,"o":""}," ":{"ha":694,"x_min":0,"x_max":0,"o":""}," ":{"ha":694,"x_min":0,"x_max":0,"o":""}," ":{"ha":1004,"x_min":0,"x_max":0,"o":""}," ":{"ha":347,"x_min":0,"x_max":0,"o":""}," ":{"ha":58,"x_min":0,"x_max":0,"o":""}," ":{"ha":276,"x_min":0,"x_max":0,"o":""}," ":{"ha":232,"x_min":0,"x_max":0,"o":""}," ":{"ha":290,"x_min":0,"x_max":0,"o":""}," ":{"ha":174,"x_min":0,"x_max":0,"o":""}," ":{"ha":463,"x_min":0,"x_max":0,"o":""},"​":{"ha":0,"x_min":0,"x_max":0,"o":""},".":{"ha":276,"x_min":0,"x_max":0,"o":"m 63 0 l 63 151 l 214 151 l 214 0 "},",":{"ha":282,"x_min":0,"x_max":0,"o":"m 65 -114 b 138 0 117 -99 139 -72 l 65 0 l 65 151 l 217 151 l 217 0 b 65 -189 217 -90 176 -161 "},":":{"ha":290,"x_min":0,"x_max":0,"o":"m 69 425 l 69 576 l 221 576 l 221 425 m 69 0 l 69 151 l 221 151 l 221 0 "},";":{"ha":290,"x_min":0,"x_max":0,"o":"m 69 425 l 69 576 l 221 576 l 221 425 m 69 -114 b 142 0 121 -99 143 -72 l 69 0 l 69 151 l 221 151 l 221 0 b 69 -189 221 -90 181 -161 "},"…":{"ha":831,"x_min":0,"x_max":0,"o":"m 63 0 l 63 151 l 214 151 l 214 0 m 340 0 l 340 151 l 490 151 l 490 0 m 617 0 l 617 151 l 768 151 l 768 0 "},"!":{"ha":311,"x_min":0,"x_max":0,"o":"m 117 271 l 81 724 l 81 993 l 231 993 l 231 724 l 196 271 m 81 0 l 81 151 l 232 151 l 232 0 "},"¡":{"ha":308,"x_min":0,"x_max":0,"o":"m 78 661 l 78 813 l 229 813 l 229 661 m 79 -181 l 79 89 l 114 542 l 193 542 l 229 89 l 229 -181 "},"?":{"ha":696,"x_min":0,"x_max":0,"o":"m 242 271 b 400 576 242 451 311 508 b 522 751 472 632 522 665 b 364 883 522 832 467 883 b 172 669 256 883 172 826 l 21 669 b 361 1013 21 865 138 1013 b 672 751 549 1013 672 907 b 525 522 672 636 606 583 b 381 271 443 461 381 428 m 239 0 l 239 151 l 390 151 l 390 0 "},"¿":{"ha":697,"x_min":0,"x_max":0,"o":"m 307 661 l 307 813 l 458 813 l 458 661 m 335 -201 b 25 61 149 -201 25 -94 b 172 290 25 176 90 229 b 317 542 254 351 317 385 l 456 542 b 297 235 456 361 386 304 b 175 61 225 179 175 146 b 333 -72 175 -19 231 -72 b 525 143 442 -72 525 -15 l 675 143 b 335 -201 675 -54 560 -201 "},"·":{"ha":289,"x_min":0,"x_max":0,"o":"m 69 272 l 69 422 l 219 422 l 219 272 "},"•":{"ha":535,"x_min":0,"x_max":0,"o":"m 106 253 l 106 578 l 429 578 l 429 253 "},"*":{"ha":624,"x_min":0,"x_max":0,"o":"m 199 521 l 118 578 l 231 724 l 54 776 l 86 864 l 261 810 l 261 993 l 364 993 l 363 810 l 538 864 l 569 776 l 393 724 l 507 578 l 426 521 l 313 674 "},"#":{"ha":801,"x_min":0,"x_max":0,"o":"m 744 586 l 610 586 l 568 382 l 717 382 l 697 269 l 546 269 l 492 0 l 379 0 l 433 269 l 275 269 l 221 0 l 108 0 l 163 269 l 36 269 l 57 382 l 185 382 l 226 586 l 85 586 l 107 700 l 249 700 l 301 960 l 414 960 l 361 700 l 519 700 l 571 960 l 685 960 l 632 700 l 767 700 m 456 382 l 496 586 l 339 586 l 297 382 "},"/":{"ha":546,"x_min":0,"x_max":0,"o":"m 17 0 l 401 993 l 528 993 l 143 0 "},"\\":{"ha":546,"x_min":0,"x_max":0,"o":"m 403 0 l 18 993 l 144 993 l 529 0 "},"-":{"ha":489,"x_min":0,"x_max":0,"o":"m 58 289 l 58 418 l 431 418 l 431 289 "},"­":{"ha":489,"x_min":0,"x_max":0,"o":"m 58 289 l 58 418 l 431 418 l 431 289 "},"–":{"ha":810,"x_min":0,"x_max":0,"o":"m 58 289 l 58 418 l 753 418 l 753 289 "},"—":{"ha":1503,"x_min":0,"x_max":0,"o":"m 57 288 l 57 417 l 1446 417 l 1446 288 "},"_":{"ha":793,"x_min":0,"x_max":0,"o":"m 35 -211 l 35 -82 l 757 -82 l 757 -211 "},"(":{"ha":381,"x_min":0,"x_max":0,"o":"m 239 -169 b 46 440 135 -29 46 189 b 239 1053 46 700 135 913 l 358 1053 b 197 440 268 885 197 697 b 358 -169 197 189 268 -1 "},")":{"ha":381,"x_min":0,"x_max":0,"o":"m 22 -169 b 185 444 113 -1 185 188 b 22 1053 185 696 113 885 l 142 1053 b 335 444 246 913 335 696 b 142 -169 335 185 246 -29 "},"{":{"ha":433,"x_min":0,"x_max":0,"o":"m 372 -169 b 118 106 201 -169 118 -128 l 118 256 b 33 378 118 325 104 378 l 33 507 b 118 628 104 506 118 557 l 118 783 b 372 1053 118 1017 201 1053 l 401 1053 l 401 924 l 372 924 b 268 794 308 924 268 896 l 268 592 b 182 443 268 513 235 471 l 182 440 b 268 290 235 413 268 371 l 268 94 b 372 -40 268 -12 308 -40 l 401 -40 l 401 -169 "},"}":{"ha":433,"x_min":0,"x_max":0,"o":"m 32 -169 l 32 -40 l 61 -40 b 165 89 125 -40 165 -12 l 165 293 b 250 442 165 372 199 414 l 250 444 b 165 594 199 472 165 514 l 165 789 b 61 924 165 896 125 924 l 32 924 l 32 1053 l 61 1053 b 315 778 232 1053 315 1011 l 315 629 b 399 507 315 560 329 507 l 399 378 b 315 257 329 379 315 328 l 315 100 b 61 -169 315 -133 232 -169 "},"[":{"ha":419,"x_min":0,"x_max":0,"o":"m 90 -169 l 90 1053 l 390 1053 l 390 924 l 240 924 l 240 -40 l 390 -40 l 390 -169 "},"]":{"ha":419,"x_min":0,"x_max":0,"o":"m 29 -169 l 29 -40 l 179 -40 l 179 924 l 29 924 l 29 1053 l 329 1053 l 329 -169 "},"‚":{"ha":282,"x_min":0,"x_max":0,"o":"m 65 -114 b 138 0 117 -99 139 -72 l 65 0 l 65 151 l 217 151 l 217 0 b 65 -189 217 -90 176 -161 "},"„":{"ha":504,"x_min":0,"x_max":0,"o":"m 65 -114 b 138 0 117 -99 139 -72 l 65 0 l 65 151 l 217 151 l 217 0 b 65 -189 217 -90 176 -161 m 288 -114 b 360 0 338 -99 361 -72 l 288 0 l 288 151 l 439 151 l 439 0 b 288 -189 439 -90 399 -161 "},"“":{"ha":493,"x_min":0,"x_max":0,"o":"m 57 806 b 208 994 57 896 97 967 l 208 918 b 136 806 157 903 135 876 l 208 806 l 208 654 l 57 654 m 429 918 b 357 806 378 903 356 876 l 429 806 l 429 654 l 278 654 l 278 806 b 429 994 278 896 318 967 "},"”":{"ha":482,"x_min":0,"x_max":0,"o":"m 64 729 b 136 842 114 743 136 771 l 64 842 l 64 993 l 214 993 l 214 842 b 64 653 214 751 175 681 m 285 729 b 357 842 335 743 357 771 l 285 842 l 285 993 l 436 993 l 436 842 b 285 653 436 751 396 681 "},"‘":{"ha":272,"x_min":0,"x_max":0,"o":"m 208 917 b 136 804 157 903 135 876 l 208 804 l 208 653 l 57 653 l 57 804 b 208 993 57 894 97 965 "},"’":{"ha":261,"x_min":0,"x_max":0,"o":"m 64 729 b 136 842 114 743 136 771 l 64 842 l 64 993 l 214 993 l 214 842 b 64 653 214 751 175 681 "},"«":{"ha":651,"x_min":0,"x_max":0,"o":"m 333 57 l 60 279 l 60 431 l 333 653 l 333 507 l 133 356 l 133 353 l 333 201 m 583 57 l 310 279 l 310 431 l 583 653 l 583 507 l 383 356 l 383 353 l 583 201 "},"»":{"ha":651,"x_min":0,"x_max":0,"o":"m 69 57 l 69 203 l 268 354 l 268 357 l 69 507 l 69 653 l 342 431 l 342 279 m 319 57 l 319 203 l 518 354 l 518 357 l 319 507 l 319 653 l 592 431 l 592 279 "},"‹":{"ha":406,"x_min":0,"x_max":0,"o":"m 336 57 l 60 279 l 60 431 l 336 653 l 336 507 l 138 356 l 138 353 l 336 204 "},"›":{"ha":406,"x_min":0,"x_max":0,"o":"m 69 57 l 69 203 l 268 353 l 268 356 l 69 506 l 69 653 l 346 429 l 346 278 "},"\"":{"ha":464,"x_min":0,"x_max":0,"o":"m 75 646 l 58 993 l 188 993 l 171 646 m 293 646 l 276 993 l 407 993 l 390 646 "},"'":{"ha":246,"x_min":0,"x_max":0,"o":"m 75 646 l 58 993 l 188 993 l 171 646 "},"ƒ":{"ha":664,"x_min":0,"x_max":0,"o":"m 563 889 b 464 782 493 889 479 860 l 436 639 l 567 639 l 563 526 l 413 526 l 319 54 b 108 -154 288 -110 218 -154 b 26 -144 85 -154 64 -151 l 21 -35 b 85 -40 51 -39 67 -40 b 185 58 157 -40 171 -14 l 278 526 l 171 526 l 175 639 l 300 639 l 331 794 b 554 1003 363 958 439 1003 b 643 994 581 1003 604 1000 l 617 885 b 563 889 590 888 579 889 "},"@":{"ha":1215,"x_min":0,"x_max":0,"o":"m 603 -147 b 40 408 261 -147 40 74 b 617 990 40 731 272 990 b 1171 453 961 990 1171 750 b 914 111 1171 196 1031 111 b 738 226 825 111 771 153 l 735 226 b 542 115 700 160 639 115 b 310 400 413 115 310 219 b 569 718 310 593 426 718 b 756 604 660 718 731 665 l 758 604 l 772 708 l 889 708 l 844 360 b 928 214 832 267 860 214 b 1064 450 1010 214 1064 294 b 619 888 1064 710 889 888 b 150 408 328 888 150 661 b 603 -44 150 139 333 -44 b 849 -1 685 -44 767 -35 l 886 -87 b 603 -147 799 -135 704 -147 m 567 225 b 731 438 674 225 731 321 b 593 608 731 551 671 608 b 428 396 485 608 428 517 b 567 225 428 297 469 225 "},"&":{"ha":864,"x_min":0,"x_max":0,"o":"m 871 0 l 706 0 l 633 89 b 349 -19 563 24 469 -19 b 40 242 151 -19 40 93 b 268 535 40 392 154 469 b 153 778 200 619 153 688 b 401 1013 153 896 236 1013 b 649 779 560 1014 649 906 b 440 518 649 660 569 596 l 628 293 b 686 486 657 351 675 419 l 817 486 b 714 188 803 386 771 279 m 401 892 b 286 776 326 892 286 836 b 375 596 286 718 324 661 b 515 769 468 651 515 700 b 401 892 515 838 474 892 m 360 110 b 551 188 440 110 503 140 l 332 456 b 181 260 239 399 181 340 b 360 110 181 172 244 110 "},"¶":{"ha":779,"x_min":0,"x_max":0,"o":"m 360 0 l 360 465 l 296 465 b 25 725 118 465 25 558 b 296 993 25 892 118 993 l 676 993 l 676 0 l 569 0 l 569 879 l 465 879 l 465 0 "},"§":{"ha":840,"x_min":0,"x_max":0,"o":"m 781 306 b 639 119 781 208 726 146 b 697 -33 675 81 697 33 b 424 -258 697 -158 610 -258 b 140 -15 228 -258 146 -147 l 276 -15 b 424 -149 278 -82 306 -149 b 561 -47 528 -149 561 -104 b 401 122 561 40 483 76 l 329 164 b 58 439 182 247 58 301 b 201 625 58 536 114 599 b 142 778 165 664 142 713 b 417 1003 142 904 231 1003 b 700 761 613 1003 694 892 l 564 761 b 417 893 558 819 547 893 b 279 792 313 893 279 849 b 443 619 279 697 360 664 l 517 581 b 781 306 665 500 781 443 m 544 194 b 644 285 617 201 644 242 b 440 474 644 358 560 410 l 356 519 l 300 550 b 194 460 225 544 194 503 b 406 271 194 386 274 343 l 490 225 b 544 194 508 215 526 206 "},"©":{"ha":1171,"x_min":0,"x_max":0,"o":"m 586 -19 b 65 496 268 -19 65 179 b 586 1013 65 814 268 1013 b 1104 496 904 1013 1104 814 b 586 -19 1104 179 904 -19 m 586 71 b 997 496 839 71 997 233 b 586 922 997 758 839 922 b 174 496 332 922 174 758 b 586 71 174 233 332 71 m 597 185 b 301 496 411 185 301 313 b 586 808 301 678 406 808 b 858 582 747 808 844 707 l 742 582 b 590 701 736 618 707 701 b 422 496 461 701 422 607 b 590 292 422 386 461 292 b 742 413 707 292 736 371 l 858 413 b 597 185 850 286 756 185 "},"®":{"ha":792,"x_min":0,"x_max":0,"o":"m 396 343 b 65 679 211 343 65 486 b 396 1015 65 872 211 1015 b 726 679 581 1015 726 872 b 396 343 726 486 581 343 m 396 400 b 661 679 549 400 661 517 b 396 958 661 842 549 958 b 131 679 243 958 131 842 b 396 400 131 517 243 400 m 257 496 l 257 865 l 411 865 b 543 757 497 865 543 826 b 465 664 543 706 513 675 l 465 663 b 551 500 560 647 529 507 l 551 496 l 457 496 b 383 626 439 513 469 626 l 349 626 l 349 496 m 386 700 b 456 749 424 700 456 708 b 386 796 456 789 424 796 l 349 796 l 349 700 "},"™":{"ha":922,"x_min":0,"x_max":0,"o":"m 146 606 l 146 907 l 28 907 l 28 993 l 361 993 l 361 907 l 243 907 l 243 606 m 410 606 l 410 993 l 546 993 l 625 728 l 626 728 l 708 993 l 843 993 l 843 606 l 751 606 l 751 881 l 749 881 l 665 606 l 586 606 l 504 881 l 501 881 l 501 606 "},"°":{"ha":533,"x_min":0,"x_max":0,"o":"m 267 594 b 51 804 122 594 51 706 b 267 1013 51 901 122 1013 b 481 804 410 1013 481 901 b 267 594 481 706 410 594 m 267 683 b 383 804 336 683 383 732 b 267 924 383 875 336 924 b 149 804 197 924 149 875 b 267 683 149 732 197 683 "},"|":{"ha":307,"x_min":0,"x_max":0,"o":"m 99 -181 l 99 1036 l 208 1036 l 208 -181 "},"¦":{"ha":307,"x_min":0,"x_max":0,"o":"m 99 533 l 99 1036 l 208 1036 l 208 533 m 99 -181 l 99 340 l 208 340 l 208 -181 "},"†":{"ha":675,"x_min":0,"x_max":0,"o":"m 263 -246 l 263 582 l 19 582 l 19 711 l 263 711 l 263 993 l 414 993 l 414 711 l 657 711 l 657 582 l 414 582 l 414 -246 "},"‡":{"ha":728,"x_min":0,"x_max":0,"o":"m 289 -246 l 289 138 l 46 138 l 46 267 l 289 267 l 289 582 l 46 582 l 46 711 l 289 711 l 289 993 l 440 993 l 440 711 l 683 711 l 683 582 l 440 582 l 440 267 l 683 267 l 683 138 l 440 138 l 440 -246 "},"⮠":{"ha":838,"x_min":0,"x_max":0,"o":"m 654 794 l 764 794 l 764 289 l 257 289 l 490 40 l 408 -36 l 49 351 l 408 739 l 490 661 l 257 413 l 654 413 "},"⮡":{"ha":839,"x_min":0,"x_max":0,"o":"m 428 742 l 788 354 l 428 -33 l 346 44 l 581 293 l 72 293 l 72 797 l 182 797 l 182 417 l 581 417 l 346 664 "},"⮦":{"ha":914,"x_min":0,"x_max":0,"o":"m 879 596 l 499 596 l 499 197 l 747 432 l 824 349 l 436 -10 l 49 349 l 126 432 l 375 197 l 375 706 l 879 706 "},"⮤":{"ha":914,"x_min":0,"x_max":0,"o":"m 499 107 l 881 107 l 881 -3 l 375 -3 l 375 506 l 126 271 l 49 354 l 438 713 l 825 354 l 747 271 l 499 506 "},"⮧":{"ha":913,"x_min":0,"x_max":0,"o":"m 786 438 l 863 354 l 475 -4 l 88 354 l 165 438 l 414 203 l 414 601 l 32 601 l 32 711 l 538 711 l 538 203 "},"⮥":{"ha":915,"x_min":0,"x_max":0,"o":"m 476 715 l 864 357 l 786 274 l 539 508 l 539 0 l 33 0 l 33 110 l 414 110 l 414 508 l 167 274 l 89 357 "},"⮢":{"ha":838,"x_min":0,"x_max":0,"o":"m 258 432 l 767 432 l 767 -74 l 657 -74 l 657 308 l 258 308 l 492 60 l 410 -18 l 51 369 l 410 757 l 492 681 "},"⮣":{"ha":838,"x_min":0,"x_max":0,"o":"m 428 757 l 786 369 l 428 -18 l 344 60 l 579 308 l 181 308 l 181 -74 l 71 -74 l 71 432 l 579 432 l 344 681 "},"¢":{"ha":783,"x_min":0,"x_max":0,"o":"m 453 242 b 590 410 551 258 585 338 l 731 410 b 453 128 722 258 613 144 l 453 7 l 367 7 l 367 129 b 64 501 182 150 64 296 b 367 874 64 707 182 854 l 367 981 l 453 981 l 453 874 b 731 599 611 857 715 746 l 590 599 b 453 760 585 663 550 742 m 206 501 b 367 243 206 382 250 267 l 367 758 b 206 501 250 735 206 621 "},"¤":{"ha":740,"x_min":0,"x_max":0,"o":"m 643 479 b 600 324 643 418 626 365 l 688 236 l 615 163 l 528 250 b 371 201 482 218 426 201 b 213 250 314 201 258 218 l 125 163 l 53 235 l 140 322 b 97 479 114 365 97 417 b 142 636 97 542 114 594 l 53 725 l 125 797 l 213 710 b 371 757 258 740 314 757 b 528 710 428 757 482 740 l 614 796 l 688 724 l 600 636 b 643 479 626 594 643 542 m 221 479 b 371 306 221 364 282 306 b 519 479 458 306 519 364 b 371 654 519 594 458 654 b 221 479 282 654 221 594 "},"$":{"ha":838,"x_min":0,"x_max":0,"o":"m 792 251 b 469 -19 792 106 685 -11 l 469 -140 l 386 -140 l 386 -17 b 36 317 193 3 46 115 l 178 317 b 386 106 189 196 258 122 l 386 438 b 382 439 385 438 383 439 b 75 704 238 478 75 538 b 386 971 75 861 194 964 l 386 1069 l 469 1069 l 469 967 b 767 661 638 946 756 840 l 625 661 b 469 843 613 765 560 825 l 469 547 b 792 251 660 492 792 443 m 218 718 b 386 572 218 636 286 604 l 386 849 b 218 718 283 843 218 796 m 469 101 b 649 247 601 108 649 167 b 469 414 649 339 590 376 "},"€":{"ha":925,"x_min":0,"x_max":0,"o":"m 524 110 b 721 346 667 110 713 224 l 871 346 b 525 -19 851 126 740 -19 b 153 349 314 -19 186 126 l 67 349 l 67 435 l 144 435 b 143 476 143 449 143 463 l 143 511 l 67 511 l 67 596 l 151 596 b 525 971 183 822 311 971 b 871 629 739 971 850 825 l 721 629 b 524 842 706 728 665 842 b 301 596 389 842 324 738 l 565 596 l 565 511 l 293 511 l 293 476 b 294 435 293 463 293 449 l 565 435 l 565 349 l 303 349 b 524 110 325 211 392 110 "},"£":{"ha":814,"x_min":0,"x_max":0,"o":"m 779 64 b 579 -19 722 19 668 -19 b 299 64 450 -19 396 64 b 128 0 242 64 199 44 l 53 110 b 179 374 129 160 179 257 l 179 379 l 67 379 l 67 493 l 147 493 b 92 692 122 547 92 603 b 418 971 92 808 174 971 b 749 639 654 971 749 829 l 599 639 b 419 842 599 767 547 842 b 242 679 303 842 242 775 b 300 493 242 604 275 551 l 518 493 l 518 379 l 329 379 l 329 372 b 222 143 329 275 288 194 l 224 140 b 353 181 256 156 293 181 b 567 122 449 181 485 122 b 718 182 631 122 671 146 "},"¥":{"ha":847,"x_min":0,"x_max":0,"o":"m 815 953 l 519 424 l 739 424 l 739 339 l 499 339 l 499 258 l 739 258 l 739 174 l 499 174 l 499 0 l 349 0 l 349 174 l 108 174 l 108 258 l 349 258 l 349 339 l 108 339 l 108 424 l 328 424 l 32 953 l 196 953 l 422 513 l 425 513 l 651 953 "},"∙":{"ha":424,"x_min":0,"x_max":0,"o":"m 136 406 l 136 556 l 288 556 l 288 406 "},"≧":{"ha":781,"x_min":0,"x_max":0,"o":"m 83 361 l 83 492 l 576 653 l 576 656 l 83 818 l 83 949 l 707 728 l 707 581 m 83 203 l 83 325 l 707 325 l 707 203 m 83 0 l 83 122 l 707 122 l 707 0 "},"≦":{"ha":781,"x_min":0,"x_max":0,"o":"m 697 361 l 74 581 l 74 728 l 697 949 l 697 818 l 204 656 l 204 653 l 697 492 m 74 203 l 74 325 l 697 325 l 697 203 m 74 0 l 74 122 l 697 122 l 697 0 "},"+":{"ha":774,"x_min":0,"x_max":0,"o":"m 322 125 l 322 389 l 67 389 l 67 518 l 322 518 l 322 782 l 451 782 l 451 518 l 707 518 l 707 389 l 451 389 l 451 125 "},"−":{"ha":774,"x_min":0,"x_max":0,"o":"m 67 389 l 67 518 l 707 518 l 707 389 "},"×":{"ha":774,"x_min":0,"x_max":0,"o":"m 179 153 l 88 246 l 294 453 l 88 660 l 179 751 l 388 544 l 594 751 l 686 660 l 479 453 l 686 246 l 594 153 l 388 361 "},"÷":{"ha":774,"x_min":0,"x_max":0,"o":"m 311 621 l 311 771 l 463 771 l 463 621 m 67 390 l 67 518 l 707 518 l 707 390 m 311 138 l 311 288 l 463 288 l 463 138 "},"=":{"ha":765,"x_min":0,"x_max":0,"o":"m 69 499 l 69 628 l 696 628 l 696 499 m 69 281 l 69 408 l 696 408 l 696 281 "},"≠":{"ha":765,"x_min":0,"x_max":0,"o":"m 700 499 l 461 499 l 418 408 l 700 408 l 700 281 l 358 281 l 290 136 l 183 136 l 251 281 l 74 281 l 74 408 l 311 408 l 354 499 l 74 499 l 74 628 l 415 628 l 483 774 l 590 774 l 522 628 l 700 628 "},">":{"ha":704,"x_min":0,"x_max":0,"o":"m 74 124 l 74 253 l 528 431 l 528 433 l 74 611 l 74 740 l 640 503 l 640 360 "},"<":{"ha":704,"x_min":0,"x_max":0,"o":"m 631 124 l 63 360 l 63 504 l 631 740 l 631 611 l 175 433 l 175 431 l 631 253 "},"≥":{"ha":692,"x_min":0,"x_max":0,"o":"m 67 156 l 67 285 l 521 446 l 521 449 l 67 611 l 67 740 l 633 519 l 633 375 m 67 0 l 67 113 l 633 113 l 633 0 "},"≤":{"ha":692,"x_min":0,"x_max":0,"o":"m 625 156 l 58 375 l 58 519 l 625 740 l 625 611 l 171 449 l 171 446 l 625 285 m 58 0 l 58 113 l 625 113 l 625 0 "},"±":{"ha":774,"x_min":0,"x_max":0,"o":"m 322 164 l 322 428 l 67 428 l 67 557 l 322 557 l 322 821 l 451 821 l 451 557 l 707 557 l 707 428 l 451 428 l 451 164 m 67 -8 l 67 121 l 707 121 l 707 -8 "},"≈":{"ha":808,"x_min":0,"x_max":0,"o":"m 78 454 b 238 633 78 543 114 633 b 557 581 339 633 463 581 b 631 643 614 581 631 603 l 736 643 b 576 465 736 554 700 465 b 257 517 476 465 351 517 b 185 454 201 517 185 496 m 78 218 b 238 396 78 307 114 396 b 557 344 339 396 463 344 b 631 407 614 344 631 365 l 736 407 b 576 228 736 318 700 228 b 257 281 476 228 351 281 b 185 218 201 281 185 258 "},"~":{"ha":614,"x_min":0,"x_max":0,"o":"m 72 365 b 206 547 72 475 119 547 b 383 486 290 547 335 486 b 438 547 426 486 438 522 l 543 547 b 411 365 543 438 496 365 b 232 425 326 365 282 425 b 179 365 190 425 179 390 "},"¬":{"ha":715,"x_min":0,"x_max":0,"o":"m 486 197 l 486 433 l 54 433 l 54 563 l 633 563 l 633 197 "},"^":{"ha":661,"x_min":0,"x_max":0,"o":"m 28 611 l 269 993 l 393 993 l 633 611 l 490 611 l 331 871 l 329 871 l 172 611 "},"∅":{"ha":1158,"x_min":0,"x_max":0,"o":"m 968 815 b 1092 479 1046 729 1092 614 b 581 -19 1092 182 867 -19 b 246 93 451 -19 335 21 l 156 3 l 103 57 l 190 144 b 68 479 114 231 68 344 b 581 979 68 776 294 979 b 913 867 708 979 824 939 l 1004 958 l 1057 903 m 143 479 b 246 200 143 368 182 272 l 858 813 b 581 904 782 871 686 904 b 143 479 339 904 143 732 m 581 56 b 1015 479 819 56 1015 228 b 914 760 1015 592 976 688 l 301 147 b 581 56 376 89 474 56 "},"∞":{"ha":1029,"x_min":0,"x_max":0,"o":"m 268 178 b 61 422 163 178 61 256 b 268 668 61 590 163 668 b 514 525 388 668 461 588 l 517 525 b 763 668 571 588 642 668 b 968 422 867 668 968 590 b 763 178 968 256 867 178 b 517 335 642 178 571 274 l 514 335 b 268 178 461 274 388 178 m 288 300 b 454 424 363 300 415 374 b 288 549 415 474 363 549 b 182 424 224 549 182 506 b 288 300 182 342 224 300 m 742 300 b 847 424 806 300 847 342 b 742 549 847 506 806 549 b 575 424 668 549 615 474 b 742 300 615 374 668 300 "},"∫":{"ha":519,"x_min":0,"x_max":0,"o":"m 132 -243 b 19 -229 83 -243 44 -237 l 19 -106 b 69 -112 38 -111 54 -112 b 183 38 156 -112 183 -57 l 183 792 b 388 1026 183 931 246 1026 b 499 1013 436 1026 474 1021 l 499 889 b 449 896 481 894 464 896 b 335 746 363 896 335 831 l 335 -8 b 132 -243 335 -147 272 -243 "},"Ω":{"ha":1103,"x_min":0,"x_max":0,"o":"m 50 0 l 50 132 l 264 132 b 72 528 153 210 72 347 b 551 1013 72 803 264 1013 b 1029 528 839 1013 1029 803 b 839 132 1029 347 950 210 l 1053 132 l 1053 0 l 642 0 l 643 115 b 874 506 772 188 874 293 b 551 879 874 738 753 879 b 229 506 350 879 229 738 b 460 115 229 293 331 188 l 460 0 "},"∆":{"ha":896,"x_min":0,"x_max":0,"o":"m 535 993 l 868 131 l 868 0 l 28 0 l 28 131 l 358 993 m 442 851 l 181 131 l 713 131 l 453 851 "},"∏":{"ha":992,"x_min":0,"x_max":0,"o":"m 99 -139 l 99 993 l 894 993 l 894 -139 l 743 -139 l 743 864 l 249 864 l 249 -139 "},"∑":{"ha":832,"x_min":0,"x_max":0,"o":"m 43 -139 l 43 -6 l 419 438 l 419 440 l 43 861 l 43 993 l 781 993 l 781 864 l 218 864 l 218 861 l 556 481 l 556 406 l 208 -7 l 208 -10 l 794 -10 l 794 -139 "},"√":{"ha":878,"x_min":0,"x_max":0,"o":"m 331 -139 l 163 322 l 58 322 l 58 451 l 258 451 l 397 46 l 400 46 l 703 993 l 853 993 l 467 -139 "},"µ":{"ha":789,"x_min":0,"x_max":0,"o":"m 563 708 l 699 708 l 699 0 l 563 0 l 563 89 l 560 89 b 351 -18 524 32 451 -18 b 226 19 304 -18 260 -6 l 226 -246 l 90 -246 l 90 708 l 226 708 l 226 256 b 374 96 226 160 268 96 b 563 274 486 96 563 167 "},"∂":{"ha":743,"x_min":0,"x_max":0,"o":"m 325 -19 b 28 301 147 -19 28 103 b 344 654 28 485 160 654 b 553 546 443 654 508 618 b 201 875 508 754 388 843 l 201 993 b 692 439 539 950 692 728 b 325 -19 692 206 589 -19 m 340 96 b 553 342 476 96 553 206 b 376 539 553 451 489 539 b 164 292 242 539 164 426 b 340 96 164 169 238 96 "},"%":{"ha":1161,"x_min":0,"x_max":0,"o":"m 269 428 b 29 704 111 428 29 550 b 269 979 29 857 108 979 b 508 704 426 979 508 857 b 269 428 508 550 429 428 m 254 0 l 788 960 l 907 960 l 374 0 m 269 532 b 382 704 346 532 382 599 b 269 876 382 810 346 876 b 156 704 192 876 156 810 b 269 532 156 599 192 532 m 893 -19 b 654 256 735 -19 654 103 b 893 532 654 410 733 532 b 1132 256 1051 532 1132 410 b 893 -19 1132 103 1053 -19 m 893 83 b 1007 256 969 83 1007 150 b 893 428 1007 361 969 428 b 779 256 817 428 779 361 b 893 83 779 150 817 83 "},"‰":{"ha":1681,"x_min":0,"x_max":0,"o":"m 269 428 b 29 704 111 428 29 550 b 269 979 29 857 108 979 b 508 704 426 979 508 857 b 269 428 508 550 429 428 m 254 0 l 788 960 l 907 960 l 374 0 m 269 532 b 382 704 346 532 382 599 b 269 876 382 810 346 876 b 156 704 192 876 156 810 b 269 532 156 599 192 532 m 893 -19 b 654 256 735 -19 654 103 b 893 532 654 410 733 532 b 1132 256 1051 532 1132 410 b 893 -19 1132 103 1053 -19 m 1414 -19 b 1175 256 1256 -19 1175 103 b 1414 532 1175 410 1254 532 b 1653 256 1572 532 1653 410 b 1414 -19 1653 103 1574 -19 m 893 83 b 1007 256 969 83 1007 150 b 893 428 1007 361 969 428 b 779 256 817 428 779 361 b 893 83 779 150 817 83 m 1414 83 b 1528 256 1490 83 1528 150 b 1414 428 1528 361 1490 428 b 1300 256 1338 428 1300 361 b 1414 83 1300 150 1338 83 "},"↑":{"ha":833,"x_min":0,"x_max":0,"o":"m 360 0 l 360 757 l 107 518 l 29 601 l 417 960 l 804 601 l 726 518 l 474 757 l 474 0 "},"↗":{"ha":826,"x_min":0,"x_max":0,"o":"m 114 97 l 35 178 l 571 713 l 226 713 l 226 819 l 756 819 l 756 289 l 647 290 l 647 633 "},"→":{"ha":1082,"x_min":0,"x_max":0,"o":"m 665 56 l 583 133 l 822 388 l 65 388 l 65 500 l 822 500 l 583 754 l 665 831 l 1025 443 "},"↘":{"ha":838,"x_min":0,"x_max":0,"o":"m 228 75 l 228 182 l 572 182 l 36 717 l 115 797 l 649 261 l 649 604 l 758 606 l 758 75 "},"↓":{"ha":835,"x_min":0,"x_max":0,"o":"m 418 -56 l 29 303 l 107 386 l 361 147 l 361 904 l 474 904 l 474 147 l 728 386 l 806 303 "},"↙":{"ha":838,"x_min":0,"x_max":0,"o":"m 81 75 l 81 606 l 189 604 l 189 261 l 722 797 l 801 717 l 265 182 l 610 182 l 611 75 "},"←":{"ha":1082,"x_min":0,"x_max":0,"o":"m 417 56 l 58 443 l 417 831 l 499 754 l 261 500 l 1018 500 l 1018 388 l 261 388 l 499 133 "},"↖":{"ha":826,"x_min":0,"x_max":0,"o":"m 713 97 l 179 633 l 179 290 l 71 289 l 71 819 l 601 819 l 600 713 l 256 713 l 792 178 "},"↔":{"ha":1610,"x_min":0,"x_max":0,"o":"m 414 56 l 54 443 l 414 831 l 496 754 l 257 500 l 1351 500 l 1114 754 l 1196 831 l 1554 443 l 1196 56 l 1114 133 l 1351 388 l 257 388 l 496 133 "},"↕":{"ha":842,"x_min":0,"x_max":0,"o":"m 421 -246 l 33 113 l 111 196 l 364 -43 l 364 889 l 111 650 l 33 733 l 421 1092 l 808 733 l 731 650 l 478 889 l 478 -43 l 731 196 l 808 113 "},"⬎":{"ha":913,"x_min":0,"x_max":0,"o":"m 786 438 l 863 354 l 475 -4 l 88 354 l 165 438 l 414 203 l 414 601 l 32 601 l 32 711 l 538 711 l 538 203 "},"⬏":{"ha":915,"x_min":0,"x_max":0,"o":"m 476 715 l 864 357 l 786 274 l 539 508 l 539 0 l 33 0 l 33 110 l 414 110 l 414 508 l 167 274 l 89 357 "},"⬐":{"ha":914,"x_min":0,"x_max":0,"o":"m 879 596 l 499 596 l 499 197 l 747 432 l 824 349 l 436 -10 l 49 349 l 126 432 l 375 197 l 375 706 l 879 706 "},"⬑":{"ha":914,"x_min":0,"x_max":0,"o":"m 500 108 l 881 108 l 881 -3 l 375 -3 l 375 506 l 128 272 l 50 354 l 438 713 l 825 354 l 747 272 l 500 506 "},"▄":{"ha":1161,"x_min":0,"x_max":0,"o":"m 83 0 l 83 497 l 1076 497 l 1076 0 "},"█":{"ha":1190,"x_min":0,"x_max":0,"o":"m 99 0 l 99 993 l 1092 993 l 1092 0 "},"▀":{"ha":1158,"x_min":0,"x_max":0,"o":"m 82 496 l 82 993 l 1075 993 l 1075 496 "},"●":{"ha":1163,"x_min":0,"x_max":0,"o":"m 582 -19 b 64 496 296 -19 64 211 b 582 1013 64 781 296 1013 b 1097 496 867 1013 1097 781 b 582 -19 1097 211 867 -19 "},"○":{"ha":1171,"x_min":0,"x_max":0,"o":"m 586 -19 b 65 496 268 -19 65 179 b 586 1013 65 814 268 1013 b 1104 496 904 1013 1104 814 b 586 -19 1104 179 904 -19 m 586 85 b 985 496 829 85 985 243 b 586 908 985 750 829 908 b 186 496 340 908 186 750 b 586 85 186 243 340 85 "},"◊":{"ha":815,"x_min":0,"x_max":0,"o":"m 333 0 l 53 497 l 333 993 l 481 993 l 761 496 l 482 0 m 407 129 l 410 129 l 611 493 l 407 864 l 404 864 l 204 499 "},"■":{"ha":1190,"x_min":0,"x_max":0,"o":"m 99 0 l 99 993 l 1092 993 l 1092 0 "},"□":{"ha":1190,"x_min":0,"x_max":0,"o":"m 99 0 l 99 993 l 1092 993 l 1092 0 m 222 124 l 968 124 l 968 869 l 222 869 "},"▪":{"ha":478,"x_min":0,"x_max":0,"o":"m 76 282 l 76 607 l 401 607 l 401 282 "},"▫":{"ha":533,"x_min":0,"x_max":0,"o":"m 76 254 l 76 635 l 457 635 l 457 254 m 200 378 l 333 378 l 333 511 l 200 511 "},"▲":{"ha":1147,"x_min":0,"x_max":0,"o":"m 18 0 l 574 993 l 1129 0 "},"▼":{"ha":1149,"x_min":0,"x_max":0,"o":"m 575 0 l 19 993 l 1131 993 "},"►":{"ha":1154,"x_min":0,"x_max":0,"o":"m 115 -60 l 115 1051 l 1108 496 "},"◄":{"ha":1154,"x_min":0,"x_max":0,"o":"m 1040 -60 l 47 496 l 1040 1051 "},"̈":{"ha":0,"x_min":0,"x_max":0,"o":"m 58 835 l 58 982 l 213 982 l 213 835 m 292 835 l 292 982 l 446 982 l 446 835 "},"̇":{"ha":0,"x_min":0,"x_max":0,"o":"m 56 835 l 56 982 l 210 982 l 210 835 "},"̀":{"ha":0,"x_min":0,"x_max":0,"o":"m 167 815 l 50 1007 l 203 1007 l 274 815 "},"́":{"ha":0,"x_min":0,"x_max":0,"o":"m 44 815 l 126 1007 l 286 1007 l 153 815 "},"̋":{"ha":0,"x_min":0,"x_max":0,"o":"m 53 815 l 138 1007 l 289 1007 l 158 815 m 261 815 l 351 1007 l 503 1007 l 367 815 "},"̂":{"ha":0,"x_min":0,"x_max":0,"o":"m 56 815 l 188 1007 l 335 1007 l 467 815 l 336 815 l 263 939 l 260 939 l 185 815 "},"̌":{"ha":0,"x_min":0,"x_max":0,"o":"m 188 815 l 56 1007 l 185 1007 l 260 883 l 263 883 l 336 1007 l 467 1007 l 335 815 "},"̆":{"ha":0,"x_min":0,"x_max":0,"o":"m 243 801 b 56 993 138 801 60 865 l 149 993 b 243 897 153 926 183 897 b 336 993 303 897 332 926 l 429 993 b 243 801 424 869 350 801 "},"̊":{"ha":0,"x_min":0,"x_max":0,"o":"m 181 771 b 53 899 108 771 53 822 b 181 1026 53 975 108 1026 b 310 899 256 1026 310 975 b 181 771 310 822 256 771 m 181 832 b 246 899 219 832 246 858 b 181 965 246 938 219 965 b 118 899 144 965 118 938 b 181 832 118 858 144 832 "},"̃":{"ha":0,"x_min":0,"x_max":0,"o":"m 56 824 b 163 971 56 928 106 971 b 338 919 233 971 296 919 b 372 968 368 919 372 947 l 464 968 b 357 821 464 861 414 821 b 183 872 288 821 224 872 b 147 824 151 872 147 842 "},"̄":{"ha":0,"x_min":0,"x_max":0,"o":"m 56 835 l 56 942 l 422 942 l 422 835 "},"̒":{"ha":0,"x_min":0,"x_max":0,"o":"m 211 1038 b 139 942 160 1025 138 1003 l 211 942 l 211 815 l 60 815 l 60 942 b 211 1103 60 1018 100 1078 "},"̦":{"ha":0,"x_min":0,"x_max":0,"o":"m 57 -68 l 208 -68 l 208 -183 b 57 -331 208 -253 168 -307 l 57 -272 b 129 -183 107 -260 129 -239 l 57 -183 "},"̧":{"ha":0,"x_min":0,"x_max":0,"o":"m 210 -275 b 60 -232 150 -275 97 -256 l 92 -193 b 186 -214 122 -206 150 -214 b 254 -165 231 -214 254 -194 b 201 -124 254 -135 235 -124 b 146 -133 185 -124 160 -128 l 125 -103 l 211 0 l 288 0 l 225 -74 l 225 -76 b 363 -167 285 -68 363 -90 b 210 -275 363 -243 288 -275 "},"̨":{"ha":0,"x_min":0,"x_max":0,"o":"m 189 -246 b 56 -140 101 -246 56 -204 b 160 0 56 -75 111 -24 l 256 0 b 169 -111 201 -43 169 -82 b 219 -151 169 -137 192 -151 b 285 -139 244 -151 265 -146 l 285 -232 b 189 -246 257 -240 222 -246 "},"̵":{"ha":0,"x_min":0,"x_max":0,"o":"m 56 463 l 56 565 l 635 565 l 635 463 "},"̶":{"ha":0,"x_min":0,"x_max":0,"o":"m 56 428 l 56 571 l 763 571 l 763 428 "},"̷":{"ha":0,"x_min":0,"x_max":0,"o":"m 106 -14 l 56 38 l 740 725 l 792 674 "},"̸":{"ha":0,"x_min":0,"x_max":0,"o":"m 106 -14 l 56 38 l 740 725 l 792 674 "},"¨":{"ha":513,"x_min":0,"x_max":0,"o":"m 58 835 l 58 983 l 213 983 l 213 835 m 292 835 l 292 983 l 444 983 l 444 835 "},"˙":{"ha":265,"x_min":0,"x_max":0,"o":"m 56 835 l 56 983 l 208 983 l 208 835 "},"`":{"ha":329,"x_min":0,"x_max":0,"o":"m 167 815 l 50 1007 l 203 1007 l 274 815 "},"´":{"ha":329,"x_min":0,"x_max":0,"o":"m 44 815 l 126 1007 l 286 1007 l 153 815 "},"˝":{"ha":551,"x_min":0,"x_max":0,"o":"m 53 815 l 138 1007 l 289 1007 l 158 815 m 261 815 l 351 1007 l 503 1007 l 367 815 "},"ˆ":{"ha":522,"x_min":0,"x_max":0,"o":"m 56 815 l 188 1007 l 335 1007 l 467 815 l 336 815 l 263 939 l 260 939 l 185 815 "},"ˇ":{"ha":522,"x_min":0,"x_max":0,"o":"m 188 815 l 56 1007 l 185 1007 l 260 883 l 263 883 l 336 1007 l 467 1007 l 335 815 "},"˘":{"ha":485,"x_min":0,"x_max":0,"o":"m 243 801 b 56 993 138 801 60 865 l 149 993 b 243 897 153 926 183 897 b 336 993 303 897 332 926 l 429 993 b 243 801 424 869 350 801 "},"˚":{"ha":364,"x_min":0,"x_max":0,"o":"m 181 753 b 53 881 108 753 53 806 b 181 1010 53 957 108 1010 b 310 881 256 1010 310 957 b 181 753 310 806 256 753 m 181 815 b 246 881 219 815 246 842 b 181 949 246 921 219 949 b 118 881 144 949 118 921 b 181 815 118 842 144 815 "},"˜":{"ha":519,"x_min":0,"x_max":0,"o":"m 56 824 b 163 971 56 928 106 971 b 338 919 233 971 296 919 b 372 968 368 919 372 947 l 464 968 b 357 821 464 861 414 821 b 183 872 288 821 224 872 b 147 824 151 872 147 842 "},"¯":{"ha":478,"x_min":0,"x_max":0,"o":"m 56 835 l 56 942 l 422 942 l 422 835 "},"¸":{"ha":414,"x_min":0,"x_max":0,"o":"m 210 -275 b 60 -232 150 -275 97 -256 l 92 -193 b 186 -214 122 -206 150 -214 b 254 -165 231 -214 254 -194 b 201 -124 254 -135 235 -124 b 146 -133 185 -124 160 -128 l 125 -103 l 211 0 l 288 0 l 225 -74 l 225 -76 b 363 -167 285 -68 363 -90 b 210 -275 363 -243 288 -275 "},"˛":{"ha":340,"x_min":0,"x_max":0,"o":"m 189 -246 b 56 -140 101 -246 56 -204 b 160 0 56 -75 111 -24 l 256 0 b 169 -111 201 -43 169 -82 b 219 -151 169 -137 192 -151 b 285 -139 244 -151 265 -146 l 285 -232 b 189 -246 257 -240 222 -246 "},"᎚":{"ha":911,"x_min":0,"x_max":0,"o":""}}}
